<?xml version="1.0" encoding="UTF-8" standalone="no"?>
<!DOCTYPE svg PUBLIC "-//W3C//DTD SVG 1.1//EN"
 "http://www.w3.org/Graphics/SVG/1.1/DTD/svg11.dtd">
<!-- Generated by graphviz version 14.0.2 (20251019.1705)
 -->
<!-- Title: FA16 Pages: 1 -->
<svg width="215pt" height="132pt"
 viewBox="0.00 0.00 215.00 132.00" xmlns="http://www.w3.org/2000/svg" xmlns:xlink="http://www.w3.org/1999/xlink">
<g id="graph0" class="graph" transform="scale(1 1) rotate(0) translate(4 127.97)">
<title>FA16</title>
<polygon fill="white" stroke="none" points="-4,4 -4,-127.97 211.37,-127.97 211.37,4 -4,4"/>
<!-- q0 -->
<g id="node1" class="node">
<title>q0</title>
<ellipse fill="#f9f9f9" stroke="black" cx="61.98" cy="-61.98" rx="57.98" ry="57.98"/>
<ellipse fill="none" stroke="black" cx="61.98" cy="-61.98" rx="61.98" ry="61.98"/>
<text xml:space="preserve" text-anchor="middle" x="61.98" y="-65.93" font-family="Times,serif" font-size="14.00">q₀</text>
<text xml:space="preserve" text-anchor="middle" x="61.98" y="-47.93" font-family="Times,serif" font-size="14.00">(Start,Final)</text>
</g>
<!-- q1 -->
<g id="node2" class="node">
<title>q1</title>
<ellipse fill="#f9f9f9" stroke="black" cx="187.04" cy="-61.98" rx="20.33" ry="20.33"/>
<text xml:space="preserve" text-anchor="middle" x="187.04" y="-57.68" font-family="Times,serif" font-size="14.00">q₁</text>
</g>
<!-- q0&#45;&gt;q1 -->
<g id="edge1" class="edge">
<title>q0&#45;&gt;q1</title>
<path fill="none" stroke="black" d="M124.15,-61.98C134.93,-61.98 145.71,-61.98 155.2,-61.98"/>
<polygon fill="black" stroke="black" points="154.89,-65.48 164.89,-61.98 154.89,-58.48 154.89,-65.48"/>
<text xml:space="preserve" text-anchor="middle" x="145.34" y="-65.18" font-family="Times,serif" font-size="14.00">a</text>
</g>
<!-- q1&#45;&gt;q0 -->
<g id="edge2" class="edge">
<title>q1&#45;&gt;q0</title>
<path fill="none" stroke="black" d="M169.7,-50.69C163.43,-46.99 156.02,-43.36 148.72,-41.48 143.11,-40.05 137.3,-39.48 131.46,-39.56"/>
<polygon fill="black" stroke="black" points="131.43,-36.05 121.74,-40.33 131.98,-43.03 131.43,-36.05"/>
<text xml:space="preserve" text-anchor="middle" x="145.34" y="-44.68" font-family="Times,serif" font-size="14.00">b</text>
</g>
</g>
</svg>
