<?xml version="1.0" encoding="UTF-8" standalone="no"?>
<!DOCTYPE svg PUBLIC "-//W3C//DTD SVG 1.1//EN"
 "http://www.w3.org/Graphics/SVG/1.1/DTD/svg11.dtd">
<!-- Generated by graphviz version 14.0.2 (20251019.1705)
 -->
<!-- Title: CFG29 Pages: 1 -->
<svg width="229pt" height="206pt"
 viewBox="0.00 0.00 229.00 206.00" xmlns="http://www.w3.org/2000/svg" xmlns:xlink="http://www.w3.org/1999/xlink">
<g id="graph0" class="graph" transform="scale(1 1) rotate(0) translate(4 202)">
<title>CFG29</title>
<polygon fill="white" stroke="none" points="-4,4 -4,-202 225.25,-202 225.25,4 -4,4"/>
<!-- S -->
<g id="node1" class="node">
<title>S</title>
<ellipse fill="#ffffff" stroke="black" cx="27" cy="-99" rx="27" ry="18"/>
<text xml:space="preserve" text-anchor="middle" x="27" y="-93.2" font-family="Helvetica,sans-Serif" font-size="14.00">S</text>
</g>
<!-- S1 -->
<g id="node2" class="node">
<title>S1</title>
<ellipse fill="#ffffff" stroke="black" cx="194.25" cy="-180" rx="27" ry="18"/>
<text xml:space="preserve" text-anchor="middle" x="194.25" y="-174.2" font-family="Helvetica,sans-Serif" font-size="14.00">S1</text>
</g>
<!-- S&#45;&gt;S1 -->
<g id="edge1" class="edge">
<title>S&#45;&gt;S1</title>
<path fill="none" stroke="black" d="M41.84,-114.36C49.96,-122.61 60.79,-132.4 72,-139 98.74,-154.74 132.38,-165.5 157.43,-172.04"/>
<polygon fill="black" stroke="black" points="156.27,-175.36 166.82,-174.38 157.96,-168.57 156.27,-175.36"/>
<text xml:space="preserve" text-anchor="middle" x="110.62" y="-172.71" font-family="Times,serif" font-size="14.00">aS | bS</text>
</g>
<!-- a -->
<g id="node3" class="node">
<title>a</title>
<ellipse fill="#ffffff" stroke="black" cx="194.25" cy="-126" rx="27" ry="18"/>
<text xml:space="preserve" text-anchor="middle" x="194.25" y="-120.2" font-family="Helvetica,sans-Serif" font-size="14.00">a</text>
</g>
<!-- S&#45;&gt;a -->
<g id="edge2" class="edge">
<title>S&#45;&gt;a</title>
<path fill="none" stroke="black" d="M53.46,-103.16C80.91,-107.65 124.89,-114.83 156.18,-119.94"/>
<polygon fill="black" stroke="black" points="155.56,-123.39 166,-121.55 156.69,-116.48 155.56,-123.39"/>
<text xml:space="preserve" text-anchor="middle" x="110.62" y="-121.96" font-family="Times,serif" font-size="14.00">a</text>
</g>
<!-- b -->
<g id="node4" class="node">
<title>b</title>
<ellipse fill="#ffffff" stroke="black" cx="194.25" cy="-72" rx="27" ry="18"/>
<text xml:space="preserve" text-anchor="middle" x="194.25" y="-66.2" font-family="Helvetica,sans-Serif" font-size="14.00">b</text>
</g>
<!-- S&#45;&gt;b -->
<g id="edge3" class="edge">
<title>S&#45;&gt;b</title>
<path fill="none" stroke="black" d="M51.54,-90.89C58.1,-88.88 65.27,-86.89 72,-85.5 99.8,-79.74 131.74,-76.31 155.85,-74.35"/>
<polygon fill="black" stroke="black" points="155.8,-77.86 165.5,-73.62 155.27,-70.88 155.8,-77.86"/>
<text xml:space="preserve" text-anchor="middle" x="110.62" y="-88.7" font-family="Times,serif" font-size="14.00">b</text>
</g>
<!-- e -->
<g id="node5" class="node">
<title>e</title>
<ellipse fill="#ffffff" stroke="black" cx="194.25" cy="-18" rx="27" ry="18"/>
<text xml:space="preserve" text-anchor="middle" x="194.25" y="-12.2" font-family="Helvetica,sans-Serif" font-size="14.00">e</text>
</g>
<!-- S&#45;&gt;e -->
<g id="edge4" class="edge">
<title>S&#45;&gt;e</title>
<path fill="none" stroke="black" d="M39.82,-82.84C47.87,-72.91 59.33,-60.67 72,-53 97.89,-37.33 131.14,-28.38 156.27,-23.46"/>
<polygon fill="black" stroke="black" points="156.83,-26.92 166.05,-21.69 155.58,-20.03 156.83,-26.92"/>
<text xml:space="preserve" text-anchor="middle" x="110.62" y="-57.7" font-family="Times,serif" font-size="14.00">λ (only in G₂)</text>
</g>
</g>
</svg>
