<?xml version="1.0" encoding="UTF-8" standalone="no"?>
<!DOCTYPE svg PUBLIC "-//W3C//DTD SVG 1.1//EN"
 "http://www.w3.org/Graphics/SVG/1.1/DTD/svg11.dtd">
<!-- Generated by graphviz version 14.0.2 (20251019.1705)
 -->
<!-- Title: CFG2 Pages: 1 -->
<svg width="152pt" height="260pt"
 viewBox="0.00 0.00 152.00 260.00" xmlns="http://www.w3.org/2000/svg" xmlns:xlink="http://www.w3.org/1999/xlink">
<g id="graph0" class="graph" transform="scale(1 1) rotate(0) translate(4 256)">
<title>CFG2</title>
<polygon fill="white" stroke="none" points="-4,4 -4,-256 148,-256 148,4 -4,4"/>
<!-- S -->
<g id="node1" class="node">
<title>S</title>
<ellipse fill="#f9f9f9" stroke="black" cx="99" cy="-234" rx="18" ry="18"/>
<text xml:space="preserve" text-anchor="middle" x="99" y="-228.57" font-family="Arial" font-size="14.00">S</text>
</g>
<!-- A -->
<g id="node2" class="node">
<title>A</title>
<ellipse fill="#f9f9f9" stroke="black" cx="72" cy="-162" rx="18" ry="18"/>
<text xml:space="preserve" text-anchor="middle" x="72" y="-156.57" font-family="Arial" font-size="14.00">A</text>
</g>
<!-- S&#45;&gt;A -->
<g id="edge1" class="edge">
<title>S&#45;&gt;A</title>
<path fill="none" stroke="black" d="M92.74,-216.76C89.64,-208.72 85.81,-198.81 82.3,-189.69"/>
<polygon fill="black" stroke="black" points="85.64,-188.63 78.77,-180.56 79.11,-191.15 85.64,-188.63"/>
</g>
<!-- B -->
<g id="node3" class="node">
<title>B</title>
<ellipse fill="#f9f9f9" stroke="black" cx="126" cy="-162" rx="18" ry="18"/>
<text xml:space="preserve" text-anchor="middle" x="126" y="-156.57" font-family="Arial" font-size="14.00">B</text>
</g>
<!-- S&#45;&gt;B -->
<g id="edge2" class="edge">
<title>S&#45;&gt;B</title>
<path fill="none" stroke="black" d="M105.26,-216.76C108.36,-208.72 112.19,-198.81 115.7,-189.69"/>
<polygon fill="black" stroke="black" points="118.89,-191.15 119.23,-180.56 112.36,-188.63 118.89,-191.15"/>
</g>
<!-- E -->
<g id="node4" class="node">
<title>E</title>
<ellipse fill="#f9f9f9" stroke="black" cx="18" cy="-90" rx="18" ry="18"/>
<text xml:space="preserve" text-anchor="middle" x="18" y="-84.58" font-family="Arial" font-size="14.00">E</text>
</g>
<!-- A&#45;&gt;E -->
<g id="edge3" class="edge">
<title>A&#45;&gt;E</title>
<path fill="none" stroke="black" d="M61.33,-147.17C54.01,-137.68 44.12,-124.86 35.64,-113.86"/>
<polygon fill="black" stroke="black" points="38.45,-111.78 29.57,-106 32.91,-116.06 38.45,-111.78"/>
</g>
<!-- F -->
<g id="node5" class="node">
<title>F</title>
<ellipse fill="#f9f9f9" stroke="black" cx="72" cy="-90" rx="18" ry="18"/>
<text xml:space="preserve" text-anchor="middle" x="72" y="-84.58" font-family="Arial" font-size="14.00">F</text>
</g>
<!-- A&#45;&gt;F -->
<g id="edge4" class="edge">
<title>A&#45;&gt;F</title>
<path fill="none" stroke="black" d="M72,-143.7C72,-136.41 72,-127.73 72,-119.54"/>
<polygon fill="black" stroke="black" points="75.5,-119.62 72,-109.62 68.5,-119.62 75.5,-119.62"/>
</g>
<!-- C -->
<g id="node8" class="node">
<title>C</title>
<ellipse fill="#f9f9f9" stroke="black" cx="126" cy="-90" rx="18" ry="18"/>
<text xml:space="preserve" text-anchor="middle" x="126" y="-84.58" font-family="Arial" font-size="14.00">C</text>
</g>
<!-- B&#45;&gt;C -->
<g id="edge7" class="edge">
<title>B&#45;&gt;C</title>
<path fill="none" stroke="black" d="M126,-143.7C126,-136.41 126,-127.73 126,-119.54"/>
<polygon fill="black" stroke="black" points="129.5,-119.62 126,-109.62 122.5,-119.62 129.5,-119.62"/>
</g>
<!-- a -->
<g id="node6" class="node">
<title>a</title>
<ellipse fill="#f9f9f9" stroke="black" cx="18" cy="-18" rx="18" ry="18"/>
<text xml:space="preserve" text-anchor="middle" x="18" y="-12.57" font-family="Arial" font-size="14.00">a</text>
</g>
<!-- E&#45;&gt;a -->
<g id="edge5" class="edge">
<title>E&#45;&gt;a</title>
<path fill="none" stroke="black" d="M18,-71.7C18,-64.41 18,-55.73 18,-47.54"/>
<polygon fill="black" stroke="black" points="21.5,-47.62 18,-37.62 14.5,-47.62 21.5,-47.62"/>
</g>
<!-- b -->
<g id="node7" class="node">
<title>b</title>
<ellipse fill="#f9f9f9" stroke="black" cx="72" cy="-18" rx="18" ry="18"/>
<text xml:space="preserve" text-anchor="middle" x="72" y="-12.57" font-family="Arial" font-size="14.00">b</text>
</g>
<!-- F&#45;&gt;b -->
<g id="edge6" class="edge">
<title>F&#45;&gt;b</title>
<path fill="none" stroke="black" d="M72,-71.7C72,-64.41 72,-55.73 72,-47.54"/>
<polygon fill="black" stroke="black" points="75.5,-47.62 72,-37.62 68.5,-47.62 75.5,-47.62"/>
</g>
<!-- c -->
<g id="node9" class="node">
<title>c</title>
<ellipse fill="#f9f9f9" stroke="black" cx="126" cy="-18" rx="18" ry="18"/>
<text xml:space="preserve" text-anchor="middle" x="126" y="-12.57" font-family="Arial" font-size="14.00">c</text>
</g>
<!-- C&#45;&gt;c -->
<g id="edge8" class="edge">
<title>C&#45;&gt;c</title>
<path fill="none" stroke="black" d="M126,-71.7C126,-64.41 126,-55.73 126,-47.54"/>
<polygon fill="black" stroke="black" points="129.5,-47.62 126,-37.62 122.5,-47.62 129.5,-47.62"/>
</g>
</g>
</svg>
