<?xml version="1.0" encoding="UTF-8" standalone="no"?>
<!DOCTYPE svg PUBLIC "-//W3C//DTD SVG 1.1//EN"
 "http://www.w3.org/Graphics/SVG/1.1/DTD/svg11.dtd">
<!-- Generated by graphviz version 14.0.2 (20251019.1705)
 -->
<!-- Title: G Pages: 1 -->
<svg width="165pt" height="309pt"
 viewBox="0.00 0.00 165.00 309.00" xmlns="http://www.w3.org/2000/svg" xmlns:xlink="http://www.w3.org/1999/xlink">
<g id="graph0" class="graph" transform="scale(1 1) rotate(0) translate(4 304.83)">
<title>G</title>
<polygon fill="white" stroke="none" points="-4,4 -4,-304.83 160.75,-304.83 160.75,4 -4,4"/>
<!-- S1 -->
<g id="node1" class="node">
<title>S1</title>
<ellipse fill="#f9f9f9" stroke="black" cx="77.62" cy="-282.83" rx="18" ry="18"/>
<text xml:space="preserve" text-anchor="middle" x="77.62" y="-277.78" font-family="Times,serif" font-size="14.00">S</text>
</g>
<!-- a1 -->
<g id="node2" class="node">
<title>a1</title>
<ellipse fill="#f9f9f9" stroke="black" cx="19.62" cy="-191.69" rx="19.62" ry="19.62"/>
<text xml:space="preserve" text-anchor="middle" x="19.62" y="-186.64" font-family="Times,serif" font-size="14.00">a1</text>
</g>
<!-- S1&#45;&gt;a1 -->
<g id="edge1" class="edge">
<title>S1&#45;&gt;a1</title>
<path fill="none" stroke="black" d="M68.04,-267.11C59.36,-253.76 46.37,-233.8 36.03,-217.91"/>
<polygon fill="black" stroke="black" points="39.21,-216.38 30.82,-209.91 33.34,-220.2 39.21,-216.38"/>
</g>
<!-- S2 -->
<g id="node3" class="node">
<title>S2</title>
<ellipse fill="#f9f9f9" stroke="black" cx="77.62" cy="-191.69" rx="20.64" ry="20.64"/>
<text xml:space="preserve" text-anchor="middle" x="77.62" y="-186.64" font-family="Times,serif" font-size="14.00">S2</text>
</g>
<!-- S1&#45;&gt;S2 -->
<g id="edge2" class="edge">
<title>S1&#45;&gt;S2</title>
<path fill="none" stroke="black" d="M77.62,-264.65C77.62,-253.14 77.62,-237.66 77.62,-224.01"/>
<polygon fill="black" stroke="black" points="81.12,-224.14 77.62,-214.14 74.12,-224.14 81.12,-224.14"/>
<text xml:space="preserve" text-anchor="middle" x="81.37" y="-233.53" font-family="Times,serif" font-size="14.00">S</text>
</g>
<!-- b1 -->
<g id="node4" class="node">
<title>b1</title>
<ellipse fill="#f9f9f9" stroke="black" cx="136.62" cy="-191.69" rx="20.13" ry="20.13"/>
<text xml:space="preserve" text-anchor="middle" x="136.62" y="-186.64" font-family="Times,serif" font-size="14.00">b1</text>
</g>
<!-- S1&#45;&gt;b1 -->
<g id="edge3" class="edge">
<title>S1&#45;&gt;b1</title>
<path fill="none" stroke="black" d="M87.36,-267.11C96.14,-253.85 109.25,-234.05 119.73,-218.2"/>
<polygon fill="black" stroke="black" points="122.43,-220.48 125.03,-210.21 116.59,-216.61 122.43,-220.48"/>
</g>
<!-- a2 -->
<g id="node5" class="node">
<title>a2</title>
<ellipse fill="#f9f9f9" stroke="black" cx="19.62" cy="-97.91" rx="19.62" ry="19.62"/>
<text xml:space="preserve" text-anchor="middle" x="19.62" y="-92.86" font-family="Times,serif" font-size="14.00">a2</text>
</g>
<!-- S2&#45;&gt;a2 -->
<g id="edge4" class="edge">
<title>S2&#45;&gt;a2</title>
<path fill="none" stroke="black" d="M66.98,-173.86C58.29,-160.1 45.86,-140.43 35.91,-124.69"/>
<polygon fill="black" stroke="black" points="38.91,-122.88 30.61,-116.3 32.99,-126.62 38.91,-122.88"/>
</g>
<!-- S3 -->
<g id="node6" class="node">
<title>S3</title>
<ellipse fill="#f9f9f9" stroke="black" cx="77.62" cy="-97.91" rx="20.64" ry="20.64"/>
<text xml:space="preserve" text-anchor="middle" x="77.62" y="-92.86" font-family="Times,serif" font-size="14.00">S3</text>
</g>
<!-- S2&#45;&gt;S3 -->
<g id="edge5" class="edge">
<title>S2&#45;&gt;S3</title>
<path fill="none" stroke="black" d="M77.62,-170.77C77.62,-158.87 77.62,-143.48 77.62,-130"/>
<polygon fill="black" stroke="black" points="81.12,-130.3 77.62,-120.3 74.12,-130.3 81.12,-130.3"/>
<text xml:space="preserve" text-anchor="middle" x="81.37" y="-139.75" font-family="Times,serif" font-size="14.00">S</text>
</g>
<!-- b2 -->
<g id="node7" class="node">
<title>b2</title>
<ellipse fill="#f9f9f9" stroke="black" cx="136.62" cy="-97.91" rx="20.13" ry="20.13"/>
<text xml:space="preserve" text-anchor="middle" x="136.62" y="-92.86" font-family="Times,serif" font-size="14.00">b2</text>
</g>
<!-- S2&#45;&gt;b2 -->
<g id="edge6" class="edge">
<title>S2&#45;&gt;b2</title>
<path fill="none" stroke="black" d="M88.44,-173.86C97.23,-160.19 109.77,-140.67 119.86,-124.98"/>
<polygon fill="black" stroke="black" points="122.78,-126.9 125.25,-116.6 116.9,-123.12 122.78,-126.9"/>
</g>
<!-- a3 -->
<g id="node8" class="node">
<title>a3</title>
<ellipse fill="#f9f9f9" stroke="black" cx="48.62" cy="-20.13" rx="19.62" ry="19.62"/>
<text xml:space="preserve" text-anchor="middle" x="48.62" y="-15.08" font-family="Times,serif" font-size="14.00">a3</text>
</g>
<!-- S3&#45;&gt;a3 -->
<g id="edge7" class="edge">
<title>S3&#45;&gt;a3</title>
<path fill="none" stroke="black" d="M70.45,-78.17C67.15,-69.54 63.16,-59.11 59.49,-49.54"/>
<polygon fill="black" stroke="black" points="62.79,-48.37 55.95,-40.28 56.25,-50.87 62.79,-48.37"/>
</g>
<!-- b3 -->
<g id="node9" class="node">
<title>b3</title>
<ellipse fill="#f9f9f9" stroke="black" cx="106.62" cy="-20.13" rx="20.13" ry="20.13"/>
<text xml:space="preserve" text-anchor="middle" x="106.62" y="-15.08" font-family="Times,serif" font-size="14.00">b3</text>
</g>
<!-- S3&#45;&gt;b3 -->
<g id="edge8" class="edge">
<title>S3&#45;&gt;b3</title>
<path fill="none" stroke="black" d="M84.79,-78.17C88.04,-69.67 91.97,-59.42 95.58,-49.96"/>
<polygon fill="black" stroke="black" points="98.79,-51.39 99.09,-40.8 92.25,-48.89 98.79,-51.39"/>
</g>
</g>
</svg>
