<?xml version="1.0" encoding="UTF-8" standalone="no"?>
<!DOCTYPE svg PUBLIC "-//W3C//DTD SVG 1.1//EN"
 "http://www.w3.org/Graphics/SVG/1.1/DTD/svg11.dtd">
<!-- Generated by graphviz version 14.0.2 (20251019.1705)
 -->
<!-- Title: AmbigTree2 Pages: 1 -->
<svg width="242pt" height="260pt"
 viewBox="0.00 0.00 242.00 260.00" xmlns="http://www.w3.org/2000/svg" xmlns:xlink="http://www.w3.org/1999/xlink">
<g id="graph0" class="graph" transform="scale(1 1) rotate(0) translate(4 256)">
<title>AmbigTree2</title>
<polygon fill="white" stroke="none" points="-4,4 -4,-256 238,-256 238,4 -4,4"/>
<!-- E0 -->
<g id="node1" class="node">
<title>E0</title>
<ellipse fill="#ffe6e6" stroke="black" cx="117" cy="-234" rx="18" ry="18"/>
<text xml:space="preserve" text-anchor="middle" x="117" y="-228.95" font-family="Times,serif" font-size="14.00">E</text>
</g>
<!-- E1 -->
<g id="node2" class="node">
<title>E1</title>
<ellipse fill="#ffe6e6" stroke="black" cx="59" cy="-162" rx="18" ry="18"/>
<text xml:space="preserve" text-anchor="middle" x="59" y="-156.95" font-family="Times,serif" font-size="14.00">E</text>
</g>
<!-- E0&#45;&gt;E1 -->
<g id="edge1" class="edge">
<title>E0&#45;&gt;E1</title>
<path fill="none" stroke="black" d="M105.82,-219.5C97.79,-209.82 86.8,-196.55 77.48,-185.3"/>
<polygon fill="black" stroke="black" points="80.19,-183.09 71.11,-177.62 74.8,-187.55 80.19,-183.09"/>
</g>
<!-- E2 -->
<g id="node3" class="node">
<title>E2</title>
<ellipse fill="#ffe6e6" stroke="black" cx="117" cy="-162" rx="18" ry="18"/>
<text xml:space="preserve" text-anchor="middle" x="117" y="-156.95" font-family="Times,serif" font-size="14.00">E</text>
</g>
<!-- E0&#45;&gt;E2 -->
<g id="edge3" class="edge">
<title>E0&#45;&gt;E2</title>
<path fill="none" stroke="black" d="M117,-215.7C117,-208.41 117,-199.73 117,-191.54"/>
<polygon fill="black" stroke="black" points="120.5,-191.62 117,-181.62 113.5,-191.62 120.5,-191.62"/>
</g>
<!-- plus -->
<g id="node6" class="node">
<title>plus</title>
<polygon fill="#e6f3ff" stroke="black" points="207,-180 153,-180 153,-144 207,-144 207,-180"/>
<text xml:space="preserve" text-anchor="middle" x="180" y="-156.95" font-family="Times,serif" font-size="14.00">+</text>
</g>
<!-- E0&#45;&gt;plus -->
<g id="edge2" class="edge">
<title>E0&#45;&gt;plus</title>
<path fill="none" stroke="black" d="M128.85,-219.83C136.7,-211.11 147.27,-199.37 156.76,-188.82"/>
<polygon fill="black" stroke="black" points="159.29,-191.24 163.38,-181.47 154.09,-186.56 159.29,-191.24"/>
</g>
<!-- num2 -->
<g id="node8" class="node">
<title>num2</title>
<polygon fill="#e6e6e6" stroke="black" points="54,-108 0,-108 0,-72 54,-72 54,-108"/>
<text xml:space="preserve" text-anchor="middle" x="27" y="-84.95" font-family="Times,serif" font-size="14.00">2</text>
</g>
<!-- E1&#45;&gt;num2 -->
<g id="edge4" class="edge">
<title>E1&#45;&gt;num2</title>
<path fill="none" stroke="black" d="M51.74,-145.12C48.17,-137.32 43.77,-127.69 39.67,-118.73"/>
<polygon fill="black" stroke="black" points="42.88,-117.31 35.53,-109.67 36.51,-120.22 42.88,-117.31"/>
</g>
<!-- E3 -->
<g id="node4" class="node">
<title>E3</title>
<ellipse fill="#ffe6e6" stroke="black" cx="90" cy="-90" rx="18" ry="18"/>
<text xml:space="preserve" text-anchor="middle" x="90" y="-84.95" font-family="Times,serif" font-size="14.00">E</text>
</g>
<!-- E2&#45;&gt;E3 -->
<g id="edge5" class="edge">
<title>E2&#45;&gt;E3</title>
<path fill="none" stroke="black" d="M110.74,-144.76C107.64,-136.72 103.81,-126.81 100.3,-117.69"/>
<polygon fill="black" stroke="black" points="103.64,-116.63 96.77,-108.56 97.11,-119.15 103.64,-116.63"/>
</g>
<!-- E4 -->
<g id="node5" class="node">
<title>E4</title>
<ellipse fill="#ffe6e6" stroke="black" cx="144" cy="-90" rx="18" ry="18"/>
<text xml:space="preserve" text-anchor="middle" x="144" y="-84.95" font-family="Times,serif" font-size="14.00">E</text>
</g>
<!-- E2&#45;&gt;E4 -->
<g id="edge7" class="edge">
<title>E2&#45;&gt;E4</title>
<path fill="none" stroke="black" d="M123.26,-144.76C126.36,-136.72 130.19,-126.81 133.7,-117.69"/>
<polygon fill="black" stroke="black" points="136.89,-119.15 137.23,-108.56 130.36,-116.63 136.89,-119.15"/>
</g>
<!-- times -->
<g id="node7" class="node">
<title>times</title>
<polygon fill="#e6f3ff" stroke="black" points="234,-108 180,-108 180,-72 234,-72 234,-108"/>
<text xml:space="preserve" text-anchor="middle" x="207" y="-84.95" font-family="Times,serif" font-size="14.00">*</text>
</g>
<!-- E2&#45;&gt;times -->
<g id="edge6" class="edge">
<title>E2&#45;&gt;times</title>
<path fill="none" stroke="black" d="M131.06,-150.06C142.94,-140.83 160.38,-127.26 175.55,-115.46"/>
<polygon fill="black" stroke="black" points="177.7,-118.22 183.44,-109.32 173.4,-112.7 177.7,-118.22"/>
</g>
<!-- num3 -->
<g id="node9" class="node">
<title>num3</title>
<polygon fill="#e6e6e6" stroke="black" points="108,-36 54,-36 54,0 108,0 108,-36"/>
<text xml:space="preserve" text-anchor="middle" x="81" y="-12.95" font-family="Times,serif" font-size="14.00">3</text>
</g>
<!-- E3&#45;&gt;num3 -->
<g id="edge8" class="edge">
<title>E3&#45;&gt;num3</title>
<path fill="none" stroke="black" d="M87.78,-71.7C86.83,-64.32 85.7,-55.52 84.63,-47.25"/>
<polygon fill="black" stroke="black" points="88.14,-47.08 83.39,-37.61 81.2,-47.97 88.14,-47.08"/>
</g>
<!-- num4 -->
<g id="node10" class="node">
<title>num4</title>
<polygon fill="#e6e6e6" stroke="black" points="180,-36 126,-36 126,0 180,0 180,-36"/>
<text xml:space="preserve" text-anchor="middle" x="153" y="-12.95" font-family="Times,serif" font-size="14.00">4</text>
</g>
<!-- E4&#45;&gt;num4 -->
<g id="edge9" class="edge">
<title>E4&#45;&gt;num4</title>
<path fill="none" stroke="black" d="M146.22,-71.7C147.17,-64.32 148.3,-55.52 149.37,-47.25"/>
<polygon fill="black" stroke="black" points="152.8,-47.97 150.61,-37.61 145.86,-47.08 152.8,-47.97"/>
</g>
</g>
</svg>
