<?xml version="1.0" encoding="UTF-8" standalone="no"?>
<!DOCTYPE svg PUBLIC "-//W3C//DTD SVG 1.1//EN"
 "http://www.w3.org/Graphics/SVG/1.1/DTD/svg11.dtd">
<!-- Generated by graphviz version 14.0.2 (20251019.1705)
 -->
<!-- Title: CFG27 Pages: 1 -->
<svg width="364pt" height="152pt"
 viewBox="0.00 0.00 364.00 152.00" xmlns="http://www.w3.org/2000/svg" xmlns:xlink="http://www.w3.org/1999/xlink">
<g id="graph0" class="graph" transform="scale(1 1) rotate(0) translate(4 148)">
<title>CFG27</title>
<polygon fill="white" stroke="none" points="-4,4 -4,-148 360.25,-148 360.25,4 -4,4"/>
<!-- S -->
<g id="node1" class="node">
<title>S</title>
<ellipse fill="#ffffff" stroke="black" cx="27" cy="-72" rx="27" ry="18"/>
<text xml:space="preserve" text-anchor="middle" x="27" y="-66.2" font-family="Helvetica,sans-Serif" font-size="14.00">S</text>
</g>
<!-- A -->
<g id="node2" class="node">
<title>A</title>
<ellipse fill="#ffffff" stroke="black" cx="138.75" cy="-126" rx="27" ry="18"/>
<text xml:space="preserve" text-anchor="middle" x="138.75" y="-120.2" font-family="Helvetica,sans-Serif" font-size="14.00">A</text>
</g>
<!-- S&#45;&gt;A -->
<g id="edge1" class="edge">
<title>S&#45;&gt;A</title>
<path fill="none" stroke="black" d="M49.42,-82.54C65.59,-90.49 88.02,-101.53 106.23,-110.49"/>
<polygon fill="black" stroke="black" points="104.51,-113.54 115.02,-114.82 107.6,-107.26 104.51,-113.54"/>
<text xml:space="preserve" text-anchor="middle" x="82.88" y="-107.04" font-family="Times,serif" font-size="14.00">aA</text>
</g>
<!-- S1 -->
<g id="node3" class="node">
<title>S1</title>
<ellipse fill="#ffffff" stroke="black" cx="138.75" cy="-72" rx="27" ry="18"/>
<text xml:space="preserve" text-anchor="middle" x="138.75" y="-66.2" font-family="Helvetica,sans-Serif" font-size="14.00">S1</text>
</g>
<!-- S&#45;&gt;S1 -->
<g id="edge2" class="edge">
<title>S&#45;&gt;S1</title>
<path fill="none" stroke="black" d="M54.29,-72C68.03,-72 85.1,-72 100.21,-72"/>
<polygon fill="black" stroke="black" points="99.78,-75.5 109.78,-72 99.78,-68.5 99.78,-75.5"/>
<text xml:space="preserve" text-anchor="middle" x="82.88" y="-75.2" font-family="Times,serif" font-size="14.00">bSS</text>
</g>
<!-- S2 -->
<g id="node4" class="node">
<title>S2</title>
<ellipse fill="#ffffff" stroke="black" cx="138.75" cy="-18" rx="27" ry="18"/>
<text xml:space="preserve" text-anchor="middle" x="138.75" y="-12.2" font-family="Helvetica,sans-Serif" font-size="14.00">S2</text>
</g>
<!-- S&#45;&gt;S2 -->
<g id="edge3" class="edge">
<title>S&#45;&gt;S2</title>
<path fill="none" stroke="black" d="M49.42,-61.46C65.59,-53.51 88.02,-42.47 106.23,-33.51"/>
<polygon fill="black" stroke="black" points="107.6,-36.74 115.02,-29.18 104.51,-30.46 107.6,-36.74"/>
<text xml:space="preserve" text-anchor="middle" x="82.88" y="-53.04" font-family="Times,serif" font-size="14.00">SS</text>
</g>
<!-- A1 -->
<g id="node5" class="node">
<title>A1</title>
<ellipse fill="#ffffff" stroke="black" cx="329.25" cy="-126" rx="27" ry="18"/>
<text xml:space="preserve" text-anchor="middle" x="329.25" y="-120.2" font-family="Helvetica,sans-Serif" font-size="14.00">A1</text>
</g>
<!-- A&#45;&gt;A1 -->
<g id="edge4" class="edge">
<title>A&#45;&gt;A1</title>
<path fill="none" stroke="black" d="M165.96,-126C198.37,-126 253.75,-126 290.67,-126"/>
<polygon fill="black" stroke="black" points="290.45,-129.5 300.45,-126 290.45,-122.5 290.45,-129.5"/>
<text xml:space="preserve" text-anchor="middle" x="234" y="-129.2" font-family="Times,serif" font-size="14.00">aAb | bAa | AA | ε</text>
</g>
</g>
</svg>
