<?xml version="1.0" encoding="UTF-8" standalone="no"?>
<!DOCTYPE svg PUBLIC "-//W3C//DTD SVG 1.1//EN"
 "http://www.w3.org/Graphics/SVG/1.1/DTD/svg11.dtd">
<!-- Generated by graphviz version 14.0.2 (20251019.1705)
 -->
<!-- Title: Q18 Pages: 1 -->
<svg width="98pt" height="188pt"
 viewBox="0.00 0.00 98.00 188.00" xmlns="http://www.w3.org/2000/svg" xmlns:xlink="http://www.w3.org/1999/xlink">
<g id="graph0" class="graph" transform="scale(1 1) rotate(0) translate(4 184)">
<title>Q18</title>
<polygon fill="white" stroke="none" points="-4,4 -4,-184 94,-184 94,4 -4,4"/>
<!-- S -->
<g id="node1" class="node">
<title>S</title>
<ellipse fill="#f9f9f9" stroke="black" cx="45" cy="-162" rx="18" ry="18"/>
<text xml:space="preserve" text-anchor="middle" x="45" y="-156.95" font-family="Times,serif" font-size="14.00">S</text>
</g>
<!-- A -->
<g id="node2" class="node">
<title>A</title>
<ellipse fill="#f9f9f9" stroke="black" cx="18" cy="-90" rx="18" ry="18"/>
<text xml:space="preserve" text-anchor="middle" x="18" y="-84.95" font-family="Times,serif" font-size="14.00">A</text>
</g>
<!-- S&#45;&gt;A -->
<g id="edge1" class="edge">
<title>S&#45;&gt;A</title>
<path fill="none" stroke="black" d="M38.74,-144.76C35.64,-136.72 31.81,-126.81 28.3,-117.69"/>
<polygon fill="black" stroke="black" points="31.64,-116.63 24.77,-108.56 25.11,-119.15 31.64,-116.63"/>
</g>
<!-- B -->
<g id="node3" class="node">
<title>B</title>
<ellipse fill="#f9f9f9" stroke="black" cx="72" cy="-90" rx="18" ry="18"/>
<text xml:space="preserve" text-anchor="middle" x="72" y="-84.95" font-family="Times,serif" font-size="14.00">B</text>
</g>
<!-- S&#45;&gt;B -->
<g id="edge2" class="edge">
<title>S&#45;&gt;B</title>
<path fill="none" stroke="black" d="M51.26,-144.76C54.36,-136.72 58.19,-126.81 61.7,-117.69"/>
<polygon fill="black" stroke="black" points="64.89,-119.15 65.23,-108.56 58.36,-116.63 64.89,-119.15"/>
</g>
<!-- a -->
<g id="node4" class="node">
<title>a</title>
<ellipse fill="#f9f9f9" stroke="black" cx="18" cy="-18" rx="18" ry="18"/>
<text xml:space="preserve" text-anchor="middle" x="18" y="-12.95" font-family="Times,serif" font-size="14.00">a</text>
</g>
<!-- A&#45;&gt;a -->
<g id="edge3" class="edge">
<title>A&#45;&gt;a</title>
<path fill="none" stroke="black" d="M18,-71.7C18,-64.41 18,-55.73 18,-47.54"/>
<polygon fill="black" stroke="black" points="21.5,-47.62 18,-37.62 14.5,-47.62 21.5,-47.62"/>
</g>
<!-- b -->
<g id="node5" class="node">
<title>b</title>
<ellipse fill="#f9f9f9" stroke="black" cx="72" cy="-18" rx="18" ry="18"/>
<text xml:space="preserve" text-anchor="middle" x="72" y="-12.95" font-family="Times,serif" font-size="14.00">b</text>
</g>
<!-- B&#45;&gt;b -->
<g id="edge4" class="edge">
<title>B&#45;&gt;b</title>
<path fill="none" stroke="black" d="M72,-71.7C72,-64.41 72,-55.73 72,-47.54"/>
<polygon fill="black" stroke="black" points="75.5,-47.62 72,-37.62 68.5,-47.62 75.5,-47.62"/>
</g>
</g>
</svg>
