<?xml version="1.0" encoding="UTF-8" standalone="no"?>
<!DOCTYPE svg PUBLIC "-//W3C//DTD SVG 1.1//EN"
 "http://www.w3.org/Graphics/SVG/1.1/DTD/svg11.dtd">
<!-- Generated by graphviz version 14.0.2 (20251019.1705)
 -->
<!-- Title: PDA_brackets Pages: 1 -->
<svg width="360pt" height="137pt"
 viewBox="0.00 0.00 360.00 137.00" xmlns="http://www.w3.org/2000/svg" xmlns:xlink="http://www.w3.org/1999/xlink">
<g id="graph0" class="graph" transform="scale(1 1) rotate(0) translate(4 132.83)">
<title>PDA_brackets</title>
<polygon fill="white" stroke="none" points="-4,4 -4,-132.83 356.22,-132.83 356.22,4 -4,4"/>
<!-- q0 -->
<g id="node1" class="node">
<title>q0</title>
<ellipse fill="#fff8f8" stroke="#7b1113" cx="30.41" cy="-41.83" rx="30.41" ry="30.41"/>
<text xml:space="preserve" text-anchor="middle" x="30.41" y="-45.06" font-family="Times,serif" font-size="12.00">q₀</text>
<text xml:space="preserve" text-anchor="middle" x="30.41" y="-30.06" font-family="Times,serif" font-size="12.00">(start)</text>
</g>
<!-- q1 -->
<g id="node2" class="node">
<title>q1</title>
<ellipse fill="#f8f8f8" stroke="#7b1113" cx="162.81" cy="-41.83" rx="18" ry="18"/>
<text xml:space="preserve" text-anchor="middle" x="162.81" y="-37.93" font-family="Times,serif" font-size="12.00">q₁</text>
</g>
<!-- q0&#45;&gt;q1 -->
<g id="edge1" class="edge">
<title>q0&#45;&gt;q1</title>
<path fill="none" stroke="black" d="M61,-41.83C82.58,-41.83 111.68,-41.83 133.06,-41.83"/>
<polygon fill="black" stroke="black" points="132.84,-45.33 142.84,-41.83 132.84,-38.33 132.84,-45.33"/>
<text xml:space="preserve" text-anchor="middle" x="102.81" y="-45.03" font-family="Times,serif" font-size="14.00">ε, ε → $</text>
</g>
<!-- q1&#45;&gt;q1 -->
<g id="edge2" class="edge">
<title>q1&#45;&gt;q1</title>
<path fill="none" stroke="black" d="M157.46,-59.24C156.46,-68.92 158.24,-77.83 162.81,-77.83 165.45,-77.83 167.16,-74.85 167.95,-70.47"/>
<polygon fill="black" stroke="black" points="171.44,-70.82 168.14,-60.75 164.44,-70.68 171.44,-70.82"/>
<text xml:space="preserve" text-anchor="middle" x="162.81" y="-81.03" font-family="Times,serif" font-size="14.00">[ , ε → [</text>
</g>
<!-- q1&#45;&gt;q1 -->
<g id="edge3" class="edge">
<title>q1&#45;&gt;q1</title>
<path fill="none" stroke="black" d="M154.29,-58.14C148.78,-75.79 151.62,-95.83 162.81,-95.83 171.73,-95.83 175.35,-83.1 173.66,-69"/>
<polygon fill="black" stroke="black" points="177.17,-68.67 171.65,-59.62 170.32,-70.13 177.17,-68.67"/>
<text xml:space="preserve" text-anchor="middle" x="162.81" y="-99.03" font-family="Times,serif" font-size="14.00">] , [ → ε</text>
</g>
<!-- q2 -->
<g id="node3" class="node">
<title>q2</title>
<ellipse fill="#f2fff2" stroke="#7b1113" cx="310.39" cy="-41.83" rx="37.83" ry="37.83"/>
<ellipse fill="none" stroke="#7b1113" cx="310.39" cy="-41.83" rx="41.83" ry="41.83"/>
<text xml:space="preserve" text-anchor="middle" x="310.39" y="-45.06" font-family="Times,serif" font-size="12.00">q₂</text>
<text xml:space="preserve" text-anchor="middle" x="310.39" y="-30.06" font-family="Times,serif" font-size="12.00">(accept)</text>
</g>
<!-- q1&#45;&gt;q2 -->
<g id="edge4" class="edge">
<title>q1&#45;&gt;q2</title>
<path fill="none" stroke="black" d="M181.08,-41.83C199.65,-41.83 230.08,-41.83 256.65,-41.83"/>
<polygon fill="black" stroke="black" points="256.63,-45.33 266.63,-41.83 256.63,-38.33 256.63,-45.33"/>
<text xml:space="preserve" text-anchor="middle" x="224.69" y="-45.03" font-family="Times,serif" font-size="14.00">ε , $ → ε</text>
</g>
</g>
</svg>
