<?xml version="1.0" encoding="UTF-8" standalone="no"?>
<!DOCTYPE svg PUBLIC "-//W3C//DTD SVG 1.1//EN"
 "http://www.w3.org/Graphics/SVG/1.1/DTD/svg11.dtd">
<!-- Generated by graphviz version 14.0.2 (20251019.1705)
 -->
<!-- Title: ParseTree_Parens Pages: 1 -->
<svg width="197pt" height="260pt"
 viewBox="0.00 0.00 197.00 260.00" xmlns="http://www.w3.org/2000/svg" xmlns:xlink="http://www.w3.org/1999/xlink">
<g id="graph0" class="graph" transform="scale(1 1) rotate(0) translate(4 256)">
<title>ParseTree_Parens</title>
<polygon fill="white" stroke="none" points="-4,4 -4,-256 193,-256 193,4 -4,4"/>
<!-- S0 -->
<g id="node1" class="node">
<title>S0</title>
<ellipse fill="#ffe6e6" stroke="black" cx="90" cy="-234" rx="18" ry="18"/>
<text xml:space="preserve" text-anchor="middle" x="90" y="-229.72" font-family="Times,serif" font-size="12.00">S</text>
</g>
<!-- paren1 -->
<g id="node2" class="node">
<title>paren1</title>
<polygon fill="#e6f3ff" stroke="black" points="54,-180 0,-180 0,-144 54,-144 54,-180"/>
<text xml:space="preserve" text-anchor="middle" x="27" y="-157.72" font-family="Times,serif" font-size="12.00">(</text>
</g>
<!-- S0&#45;&gt;paren1 -->
<g id="edge1" class="edge">
<title>S0&#45;&gt;paren1</title>
<path fill="none" stroke="black" d="M78.15,-219.83C70.3,-211.11 59.73,-199.37 50.24,-188.82"/>
<polygon fill="black" stroke="black" points="52.91,-186.56 43.62,-181.47 47.71,-191.24 52.91,-186.56"/>
</g>
<!-- S1 -->
<g id="node3" class="node">
<title>S1</title>
<ellipse fill="#ffe6e6" stroke="black" cx="90" cy="-162" rx="18" ry="18"/>
<text xml:space="preserve" text-anchor="middle" x="90" y="-157.72" font-family="Times,serif" font-size="12.00">S</text>
</g>
<!-- S0&#45;&gt;S1 -->
<g id="edge2" class="edge">
<title>S0&#45;&gt;S1</title>
<path fill="none" stroke="black" d="M90,-215.7C90,-208.41 90,-199.73 90,-191.54"/>
<polygon fill="black" stroke="black" points="93.5,-191.62 90,-181.62 86.5,-191.62 93.5,-191.62"/>
</g>
<!-- paren4 -->
<g id="node8" class="node">
<title>paren4</title>
<polygon fill="#e6f3ff" stroke="black" points="180,-180 126,-180 126,-144 180,-144 180,-180"/>
<text xml:space="preserve" text-anchor="middle" x="153" y="-157.72" font-family="Times,serif" font-size="12.00">)</text>
</g>
<!-- S0&#45;&gt;paren4 -->
<g id="edge3" class="edge">
<title>S0&#45;&gt;paren4</title>
<path fill="none" stroke="black" d="M101.85,-219.83C109.7,-211.11 120.27,-199.37 129.76,-188.82"/>
<polygon fill="black" stroke="black" points="132.29,-191.24 136.38,-181.47 127.09,-186.56 132.29,-191.24"/>
</g>
<!-- S2 -->
<g id="node4" class="node">
<title>S2</title>
<ellipse fill="#ffe6e6" stroke="black" cx="27" cy="-90" rx="18" ry="18"/>
<text xml:space="preserve" text-anchor="middle" x="27" y="-85.72" font-family="Times,serif" font-size="12.00">S</text>
</g>
<!-- S1&#45;&gt;S2 -->
<g id="edge5" class="edge">
<title>S1&#45;&gt;S2</title>
<path fill="none" stroke="black" d="M78.15,-147.83C69.17,-137.86 56.66,-123.95 46.25,-112.39"/>
<polygon fill="black" stroke="black" points="49.1,-110.32 39.81,-105.23 43.9,-115.01 49.1,-110.32"/>
</g>
<!-- paren2 -->
<g id="node5" class="node">
<title>paren2</title>
<polygon fill="#e6f3ff" stroke="black" points="117,-108 63,-108 63,-72 117,-72 117,-108"/>
<text xml:space="preserve" text-anchor="middle" x="90" y="-85.72" font-family="Times,serif" font-size="12.00">(</text>
</g>
<!-- S1&#45;&gt;paren2 -->
<g id="edge4" class="edge">
<title>S1&#45;&gt;paren2</title>
<path fill="none" stroke="black" d="M90,-143.7C90,-136.41 90,-127.73 90,-119.54"/>
<polygon fill="black" stroke="black" points="93.5,-119.62 90,-109.62 86.5,-119.62 93.5,-119.62"/>
</g>
<!-- paren3 -->
<g id="node6" class="node">
<title>paren3</title>
<polygon fill="#e6f3ff" stroke="black" points="189,-108 135,-108 135,-72 189,-72 189,-108"/>
<text xml:space="preserve" text-anchor="middle" x="162" y="-85.72" font-family="Times,serif" font-size="12.00">)</text>
</g>
<!-- S1&#45;&gt;paren3 -->
<g id="edge6" class="edge">
<title>S1&#45;&gt;paren3</title>
<path fill="none" stroke="black" d="M102.54,-148.81C111.81,-139.79 124.76,-127.2 136.21,-116.07"/>
<polygon fill="black" stroke="black" points="138.39,-118.83 143.12,-109.35 133.51,-113.81 138.39,-118.83"/>
</g>
<!-- eps -->
<g id="node7" class="node">
<title>eps</title>
<polygon fill="#e6e6e6" stroke="black" points="54,-36 0,-36 0,0 54,0 54,-36"/>
<text xml:space="preserve" text-anchor="middle" x="27" y="-13.72" font-family="Times,serif" font-size="12.00">ÃÂµ</text>
</g>
<!-- S2&#45;&gt;eps -->
<g id="edge7" class="edge">
<title>S2&#45;&gt;eps</title>
<path fill="none" stroke="black" d="M27,-71.7C27,-64.41 27,-55.73 27,-47.54"/>
<polygon fill="black" stroke="black" points="30.5,-47.62 27,-37.62 23.5,-47.62 30.5,-47.62"/>
</g>
</g>
</svg>
