<?xml version="1.0" encoding="UTF-8" standalone="no"?>
<!DOCTYPE svg PUBLIC "-//W3C//DTD SVG 1.1//EN"
 "http://www.w3.org/Graphics/SVG/1.1/DTD/svg11.dtd">
<!-- Generated by graphviz version 14.0.2 (20251019.1705)
 -->
<!-- Title: PDA Pages: 1 -->
<svg width="294pt" height="152pt"
 viewBox="0.00 0.00 294.00 152.00" xmlns="http://www.w3.org/2000/svg" xmlns:xlink="http://www.w3.org/1999/xlink">
<g id="graph0" class="graph" transform="scale(1 1) rotate(0) translate(4 147.76)">
<title>PDA</title>
<polygon fill="white" stroke="none" points="-4,4 -4,-147.76 289.72,-147.76 289.72,4 -4,4"/>
<!-- q0 -->
<g id="node1" class="node">
<title>q0</title>
<ellipse fill="none" stroke="black" cx="20.13" cy="-20.13" rx="20.13" ry="20.13"/>
<text xml:space="preserve" text-anchor="middle" x="20.13" y="-15.08" font-family="Times,serif" font-size="14.00">q0</text>
</g>
<!-- q1 -->
<g id="node2" class="node">
<title>q1</title>
<ellipse fill="none" stroke="black" cx="145.14" cy="-20.13" rx="20.13" ry="20.13"/>
<text xml:space="preserve" text-anchor="middle" x="145.14" y="-15.08" font-family="Times,serif" font-size="14.00">q1</text>
</g>
<!-- q0&#45;&gt;q1 -->
<g id="edge1" class="edge">
<title>q0&#45;&gt;q1</title>
<path fill="none" stroke="black" d="M40.62,-20.13C60.15,-20.13 90.49,-20.13 113.29,-20.13"/>
<polygon fill="black" stroke="black" points="113.23,-23.63 123.23,-20.13 113.23,-16.63 113.23,-23.63"/>
<text xml:space="preserve" text-anchor="middle" x="82.64" y="-23.33" font-family="Times,serif" font-size="14.00">ε, ε → S</text>
</g>
<!-- q1&#45;&gt;q1 -->
<g id="edge2" class="edge">
<title>q1&#45;&gt;q1</title>
<path fill="none" stroke="black" d="M141.38,-40.14C140.91,-49.77 142.17,-58.26 145.14,-58.26 146.82,-58.26 147.95,-55.57 148.53,-51.51"/>
<polygon fill="black" stroke="black" points="152.02,-51.76 148.86,-41.65 145.03,-51.53 152.02,-51.76"/>
<text xml:space="preserve" text-anchor="middle" x="145.14" y="-61.46" font-family="Times,serif" font-size="14.00">ε, S → aSb</text>
</g>
<!-- q1&#45;&gt;q1 -->
<g id="edge3" class="edge">
<title>q1&#45;&gt;q1</title>
<path fill="none" stroke="black" d="M138.8,-39.69C135.71,-57.35 137.83,-76.26 145.14,-76.26 150.92,-76.26 153.45,-64.49 152.75,-50.84"/>
<polygon fill="black" stroke="black" points="156.26,-50.74 151.66,-41.19 149.3,-51.52 156.26,-50.74"/>
<text xml:space="preserve" text-anchor="middle" x="145.14" y="-79.46" font-family="Times,serif" font-size="14.00">ε, S → SS</text>
</g>
<!-- q1&#45;&gt;q1 -->
<g id="edge4" class="edge">
<title>q1&#45;&gt;q1</title>
<path fill="none" stroke="black" d="M137.23,-39.12C130.44,-64.1 133.08,-94.26 145.14,-94.26 155.46,-94.26 158.88,-72.19 155.41,-50.17"/>
<polygon fill="black" stroke="black" points="158.88,-49.65 153.37,-40.6 152.03,-51.11 158.88,-49.65"/>
<text xml:space="preserve" text-anchor="middle" x="145.14" y="-97.46" font-family="Times,serif" font-size="14.00">ε, S → ε</text>
</g>
<!-- qf -->
<g id="node3" class="node">
<title>qf</title>
<ellipse fill="none" stroke="black" cx="267.12" cy="-20.13" rx="18.6" ry="18.6"/>
<text xml:space="preserve" text-anchor="middle" x="267.12" y="-15.08" font-family="Times,serif" font-size="14.00">qf</text>
</g>
<!-- q1&#45;&gt;qf -->
<g id="edge5" class="edge">
<title>q1&#45;&gt;qf</title>
<path fill="none" stroke="black" d="M165.69,-20.13C184.96,-20.13 214.66,-20.13 236.77,-20.13"/>
<polygon fill="black" stroke="black" points="236.64,-23.63 246.64,-20.13 236.64,-16.63 236.64,-23.63"/>
<text xml:space="preserve" text-anchor="middle" x="206.9" y="-23.33" font-family="Times,serif" font-size="14.00">ε, ε → ε</text>
</g>
</g>
</svg>
