<?xml version="1.0" encoding="UTF-8" standalone="no"?>
<!DOCTYPE svg PUBLIC "-//W3C//DTD SVG 1.1//EN"
 "http://www.w3.org/Graphics/SVG/1.1/DTD/svg11.dtd">
<!-- Generated by graphviz version 14.0.2 (20251019.1705)
 -->
<!-- Title: StackTrace_equal Pages: 1 -->
<svg width="1009pt" height="90pt"
 viewBox="0.00 0.00 1009.00 90.00" xmlns="http://www.w3.org/2000/svg" xmlns:xlink="http://www.w3.org/1999/xlink">
<g id="graph0" class="graph" transform="scale(1 1) rotate(0) translate(4 86)">
<title>StackTrace_equal</title>
<polygon fill="white" stroke="none" points="-4,4 -4,-86 1004.5,-86 1004.5,4 -4,4"/>
<!-- e0 -->
<g id="node1" class="node">
<title>e0</title>
<polygon fill="#fff8f8" stroke="black" points="0,-9.88 0,-72.12 54,-72.12 54,-9.88 0,-9.88"/>
<text xml:space="preserve" text-anchor="middle" x="27" y="-58.62" font-family="Times,serif" font-size="10.00">q₀</text>
<polyline fill="none" stroke="black" points="0,-52.12 54,-52.12"/>
<text xml:space="preserve" text-anchor="middle" x="27" y="-38.62" font-family="Times,serif" font-size="10.00">aababb</text>
<polyline fill="none" stroke="black" points="0,-32.88 54,-32.88"/>
<text xml:space="preserve" text-anchor="middle" x="27" y="-19.38" font-family="Times,serif" font-size="10.00">⊥</text>
</g>
<!-- e1 -->
<g id="node2" class="node">
<title>e1</title>
<polygon fill="#e6f7ff" stroke="black" points="126.75,-11.75 126.75,-70.25 180.75,-70.25 180.75,-11.75 126.75,-11.75"/>
<text xml:space="preserve" text-anchor="middle" x="153.75" y="-56.75" font-family="Times,serif" font-size="10.00">q₁</text>
<polyline fill="none" stroke="black" points="126.75,-50.25 180.75,-50.25"/>
<text xml:space="preserve" text-anchor="middle" x="153.75" y="-36.75" font-family="Times,serif" font-size="10.00">aababb</text>
<polyline fill="none" stroke="black" points="126.75,-31 180.75,-31"/>
<text xml:space="preserve" text-anchor="middle" x="153.75" y="-17.5" font-family="Times,serif" font-size="10.00">$</text>
</g>
<!-- e0&#45;&gt;e1 -->
<g id="edge1" class="edge">
<title>e0&#45;&gt;e1</title>
<path fill="none" stroke="black" d="M54.46,-41C72.07,-41 95.48,-41 115.04,-41"/>
<polygon fill="black" stroke="black" points="114.82,-44.5 124.82,-41 114.82,-37.5 114.82,-44.5"/>
<text xml:space="preserve" text-anchor="middle" x="90.38" y="-44.2" font-family="Times,serif" font-size="14.00">ε,ε→$</text>
</g>
<!-- e2 -->
<g id="node3" class="node">
<title>e2</title>
<polygon fill="#e6f7ff" stroke="black" points="264,-6.12 264,-75.88 318,-75.88 318,-6.12 264,-6.12"/>
<text xml:space="preserve" text-anchor="middle" x="291" y="-62.38" font-family="Times,serif" font-size="10.00">q₁</text>
<polyline fill="none" stroke="black" points="264,-55.88 318,-55.88"/>
<text xml:space="preserve" text-anchor="middle" x="291" y="-42.38" font-family="Times,serif" font-size="10.00">ababb</text>
<polyline fill="none" stroke="black" points="264,-36.62 318,-36.62"/>
<text xml:space="preserve" text-anchor="middle" x="291" y="-23.12" font-family="Times,serif" font-size="10.00">A</text>
<text xml:space="preserve" text-anchor="middle" x="291" y="-11.88" font-family="Times,serif" font-size="10.00">$</text>
</g>
<!-- e1&#45;&gt;e2 -->
<g id="edge2" class="edge">
<title>e1&#45;&gt;e2</title>
<path fill="none" stroke="black" d="M181.15,-41C201.44,-41 229.75,-41 252.41,-41"/>
<polygon fill="black" stroke="black" points="252.15,-44.5 262.15,-41 252.15,-37.5 252.15,-44.5"/>
<text xml:space="preserve" text-anchor="middle" x="222.38" y="-44.2" font-family="Times,serif" font-size="14.00">a,$→A$</text>
</g>
<!-- e3 -->
<g id="node4" class="node">
<title>e3</title>
<polygon fill="#e6f7ff" stroke="black" points="407.25,-0.5 407.25,-81.5 461.25,-81.5 461.25,-0.5 407.25,-0.5"/>
<text xml:space="preserve" text-anchor="middle" x="434.25" y="-68" font-family="Times,serif" font-size="10.00">q₁</text>
<polyline fill="none" stroke="black" points="407.25,-61.5 461.25,-61.5"/>
<text xml:space="preserve" text-anchor="middle" x="434.25" y="-48" font-family="Times,serif" font-size="10.00">babb</text>
<polyline fill="none" stroke="black" points="407.25,-42.25 461.25,-42.25"/>
<text xml:space="preserve" text-anchor="middle" x="434.25" y="-28.75" font-family="Times,serif" font-size="10.00">A</text>
<text xml:space="preserve" text-anchor="middle" x="434.25" y="-17.5" font-family="Times,serif" font-size="10.00">A</text>
<text xml:space="preserve" text-anchor="middle" x="434.25" y="-6.25" font-family="Times,serif" font-size="10.00">$</text>
</g>
<!-- e2&#45;&gt;e3 -->
<g id="edge3" class="edge">
<title>e2&#45;&gt;e3</title>
<path fill="none" stroke="black" d="M318.24,-41C340.04,-41 371.33,-41 395.78,-41"/>
<polygon fill="black" stroke="black" points="395.64,-44.5 405.64,-41 395.64,-37.5 395.64,-44.5"/>
<text xml:space="preserve" text-anchor="middle" x="362.62" y="-44.2" font-family="Times,serif" font-size="14.00">a,A→AA</text>
</g>
<!-- e4 -->
<g id="node5" class="node">
<title>e4</title>
<polygon fill="#e6f7ff" stroke="black" points="537.75,-6.12 537.75,-75.88 591.75,-75.88 591.75,-6.12 537.75,-6.12"/>
<text xml:space="preserve" text-anchor="middle" x="564.75" y="-62.38" font-family="Times,serif" font-size="10.00">q₁</text>
<polyline fill="none" stroke="black" points="537.75,-55.88 591.75,-55.88"/>
<text xml:space="preserve" text-anchor="middle" x="564.75" y="-42.38" font-family="Times,serif" font-size="10.00">abb</text>
<polyline fill="none" stroke="black" points="537.75,-36.62 591.75,-36.62"/>
<text xml:space="preserve" text-anchor="middle" x="564.75" y="-23.12" font-family="Times,serif" font-size="10.00">A</text>
<text xml:space="preserve" text-anchor="middle" x="564.75" y="-11.88" font-family="Times,serif" font-size="10.00">$</text>
</g>
<!-- e3&#45;&gt;e4 -->
<g id="edge4" class="edge">
<title>e3&#45;&gt;e4</title>
<path fill="none" stroke="black" d="M461.56,-41C480.19,-41 505.44,-41 526.18,-41"/>
<polygon fill="black" stroke="black" points="525.96,-44.5 535.96,-41 525.96,-37.5 525.96,-44.5"/>
<text xml:space="preserve" text-anchor="middle" x="499.5" y="-44.2" font-family="Times,serif" font-size="14.00">b,A→ε</text>
</g>
<!-- e5 -->
<g id="node6" class="node">
<title>e5</title>
<polygon fill="#e6f7ff" stroke="black" points="667.5,-11.75 667.5,-70.25 721.5,-70.25 721.5,-11.75 667.5,-11.75"/>
<text xml:space="preserve" text-anchor="middle" x="694.5" y="-56.75" font-family="Times,serif" font-size="10.00">q₁</text>
<polyline fill="none" stroke="black" points="667.5,-50.25 721.5,-50.25"/>
<text xml:space="preserve" text-anchor="middle" x="694.5" y="-36.75" font-family="Times,serif" font-size="10.00">bb</text>
<polyline fill="none" stroke="black" points="667.5,-31 721.5,-31"/>
<text xml:space="preserve" text-anchor="middle" x="694.5" y="-17.5" font-family="Times,serif" font-size="10.00">$</text>
</g>
<!-- e4&#45;&gt;e5 -->
<g id="edge5" class="edge">
<title>e4&#45;&gt;e5</title>
<path fill="none" stroke="black" d="M592.22,-41C610.55,-41 635.22,-41 655.62,-41"/>
<polygon fill="black" stroke="black" points="655.55,-44.5 665.55,-41 655.55,-37.5 655.55,-44.5"/>
<text xml:space="preserve" text-anchor="middle" x="629.62" y="-44.2" font-family="Times,serif" font-size="14.00">a,A→ε</text>
</g>
<!-- e6 -->
<g id="node7" class="node">
<title>e6</title>
<polygon fill="#e6f7ff" stroke="black" points="804.75,-6.12 804.75,-75.88 858.75,-75.88 858.75,-6.12 804.75,-6.12"/>
<text xml:space="preserve" text-anchor="middle" x="831.75" y="-62.38" font-family="Times,serif" font-size="10.00">q₁</text>
<polyline fill="none" stroke="black" points="804.75,-55.88 858.75,-55.88"/>
<text xml:space="preserve" text-anchor="middle" x="831.75" y="-42.38" font-family="Times,serif" font-size="10.00">b</text>
<polyline fill="none" stroke="black" points="804.75,-36.62 858.75,-36.62"/>
<text xml:space="preserve" text-anchor="middle" x="831.75" y="-23.12" font-family="Times,serif" font-size="10.00">B</text>
<text xml:space="preserve" text-anchor="middle" x="831.75" y="-11.88" font-family="Times,serif" font-size="10.00">$</text>
</g>
<!-- e5&#45;&gt;e6 -->
<g id="edge6" class="edge">
<title>e5&#45;&gt;e6</title>
<path fill="none" stroke="black" d="M721.9,-41C742.19,-41 770.5,-41 793.16,-41"/>
<polygon fill="black" stroke="black" points="792.9,-44.5 802.9,-41 792.9,-37.5 792.9,-44.5"/>
<text xml:space="preserve" text-anchor="middle" x="763.12" y="-44.2" font-family="Times,serif" font-size="14.00">b,$→B$</text>
</g>
<!-- e7 -->
<g id="node8" class="node">
<title>e7</title>
<polygon fill="#fff1f0" stroke="black" points="946.5,-0.5 946.5,-81.5 1000.5,-81.5 1000.5,-0.5 946.5,-0.5"/>
<text xml:space="preserve" text-anchor="middle" x="973.5" y="-68" font-family="Times,serif" font-size="10.00">q₁</text>
<polyline fill="none" stroke="black" points="946.5,-61.5 1000.5,-61.5"/>
<text xml:space="preserve" text-anchor="middle" x="973.5" y="-48" font-family="Times,serif" font-size="10.00">ε</text>
<polyline fill="none" stroke="black" points="946.5,-42.25 1000.5,-42.25"/>
<text xml:space="preserve" text-anchor="middle" x="973.5" y="-28.75" font-family="Times,serif" font-size="10.00">B</text>
<text xml:space="preserve" text-anchor="middle" x="973.5" y="-17.5" font-family="Times,serif" font-size="10.00">B</text>
<text xml:space="preserve" text-anchor="middle" x="973.5" y="-6.25" font-family="Times,serif" font-size="10.00">$</text>
</g>
<!-- e6&#45;&gt;e7 -->
<g id="edge7" class="edge">
<title>e6&#45;&gt;e7</title>
<path fill="none" stroke="black" d="M859.04,-41C880.51,-41 911.12,-41 935.14,-41"/>
<polygon fill="black" stroke="black" points="934.82,-44.5 944.82,-41 934.82,-37.5 934.82,-44.5"/>
<text xml:space="preserve" text-anchor="middle" x="902.62" y="-44.2" font-family="Times,serif" font-size="14.00">b,B→BB</text>
</g>
</g>
</svg>
