<?xml version="1.0" encoding="UTF-8" standalone="no"?>
<!DOCTYPE svg PUBLIC "-//W3C//DTD SVG 1.1//EN"
 "http://www.w3.org/Graphics/SVG/1.1/DTD/svg11.dtd">
<!-- Generated by graphviz version 14.0.2 (20251019.1705)
 -->
<!-- Title: PDA_anbn Pages: 1 -->
<svg width="530pt" height="117pt"
 viewBox="0.00 0.00 530.00 117.00" xmlns="http://www.w3.org/2000/svg" xmlns:xlink="http://www.w3.org/1999/xlink">
<g id="graph0" class="graph" transform="scale(1 1) rotate(0) translate(4 112.86)">
<title>PDA_anbn</title>
<polygon fill="white" stroke="none" points="-4,4 -4,-112.86 525.72,-112.86 525.72,4 -4,4"/>
<!-- q0 -->
<g id="node1" class="node">
<title>q0</title>
<ellipse fill="#fff8f8" stroke="#7b1113" cx="30.41" cy="-41.83" rx="30.41" ry="30.41"/>
<text xml:space="preserve" text-anchor="middle" x="30.41" y="-45.06" font-family="Times,serif" font-size="12.00">q₀</text>
<text xml:space="preserve" text-anchor="middle" x="30.41" y="-30.06" font-family="Times,serif" font-size="12.00">(start)</text>
</g>
<!-- q1 -->
<g id="node2" class="node">
<title>q1</title>
<ellipse fill="#f8f8f8" stroke="#7b1113" cx="177.34" cy="-41.83" rx="32.53" ry="32.53"/>
<text xml:space="preserve" text-anchor="middle" x="177.34" y="-45.06" font-family="Times,serif" font-size="12.00">q₁</text>
<text xml:space="preserve" text-anchor="middle" x="177.34" y="-30.06" font-family="Times,serif" font-size="12.00">(push)</text>
</g>
<!-- q0&#45;&gt;q1 -->
<g id="edge1" class="edge">
<title>q0&#45;&gt;q1</title>
<path fill="none" stroke="black" d="M61.08,-41.83C81.84,-41.83 109.9,-41.83 133.13,-41.83"/>
<polygon fill="black" stroke="black" points="132.92,-45.33 142.92,-41.83 132.92,-38.33 132.92,-45.33"/>
<text xml:space="preserve" text-anchor="middle" x="102.81" y="-45.03" font-family="Times,serif" font-size="14.00">ε, ε → $</text>
</g>
<!-- q1&#45;&gt;q1 -->
<g id="edge2" class="edge">
<title>q1&#45;&gt;q1</title>
<path fill="none" stroke="black" d="M163.41,-71.66C162.87,-82.99 167.51,-92.36 177.34,-92.36 183.63,-92.36 187.8,-88.51 189.84,-82.77"/>
<polygon fill="black" stroke="black" points="193.27,-83.53 191.08,-73.17 186.33,-82.64 193.27,-83.53"/>
<text xml:space="preserve" text-anchor="middle" x="177.34" y="-95.56" font-family="Times,serif" font-size="14.00">a, ε → A</text>
</g>
<!-- q2 -->
<g id="node3" class="node">
<title>q2</title>
<ellipse fill="#f8f8f8" stroke="#7b1113" cx="324.71" cy="-41.83" rx="29.34" ry="29.34"/>
<text xml:space="preserve" text-anchor="middle" x="324.71" y="-45.06" font-family="Times,serif" font-size="12.00">q₂</text>
<text xml:space="preserve" text-anchor="middle" x="324.71" y="-30.06" font-family="Times,serif" font-size="12.00">(pop)</text>
</g>
<!-- q1&#45;&gt;q2 -->
<g id="edge3" class="edge">
<title>q1&#45;&gt;q2</title>
<path fill="none" stroke="black" d="M210.24,-41.83C231.98,-41.83 260.91,-41.83 284.11,-41.83"/>
<polygon fill="black" stroke="black" points="283.81,-45.33 293.81,-41.83 283.81,-38.33 283.81,-45.33"/>
<text xml:space="preserve" text-anchor="middle" x="252.62" y="-45.03" font-family="Times,serif" font-size="14.00">b, A → ε</text>
</g>
<!-- q2&#45;&gt;q2 -->
<g id="edge4" class="edge">
<title>q2&#45;&gt;q2</title>
<path fill="none" stroke="black" d="M311.49,-68.12C310.41,-79.46 314.82,-89.18 324.71,-89.18 331.05,-89.18 335.13,-85.19 336.97,-79.34"/>
<polygon fill="black" stroke="black" points="340.43,-79.89 337.8,-69.63 333.46,-79.29 340.43,-79.89"/>
<text xml:space="preserve" text-anchor="middle" x="324.71" y="-92.38" font-family="Times,serif" font-size="14.00">b, A → ε</text>
</g>
<!-- q3 -->
<g id="node4" class="node">
<title>q3</title>
<ellipse fill="#f2fff2" stroke="#7b1113" cx="479.89" cy="-41.83" rx="37.83" ry="37.83"/>
<ellipse fill="none" stroke="#7b1113" cx="479.89" cy="-41.83" rx="41.83" ry="41.83"/>
<text xml:space="preserve" text-anchor="middle" x="479.89" y="-45.06" font-family="Times,serif" font-size="12.00">q₃</text>
<text xml:space="preserve" text-anchor="middle" x="479.89" y="-30.06" font-family="Times,serif" font-size="12.00">(accept)</text>
</g>
<!-- q2&#45;&gt;q3 -->
<g id="edge5" class="edge">
<title>q2&#45;&gt;q3</title>
<path fill="none" stroke="black" d="M354.52,-41.83C374.7,-41.83 402.26,-41.83 426.3,-41.83"/>
<polygon fill="black" stroke="black" points="426.26,-45.33 436.26,-41.83 426.26,-38.33 426.26,-45.33"/>
<text xml:space="preserve" text-anchor="middle" x="396.05" y="-45.03" font-family="Times,serif" font-size="14.00">ε, $ → ε</text>
</g>
</g>
</svg>
