<?xml version="1.0" encoding="UTF-8" standalone="no"?>
<!DOCTYPE svg PUBLIC "-//W3C//DTD SVG 1.1//EN"
 "http://www.w3.org/Graphics/SVG/1.1/DTD/svg11.dtd">
<!-- Generated by graphviz version 14.0.2 (20251019.1705)
 -->
<!-- Title: StackTrace_equal2 Pages: 1 -->
<svg width="851pt" height="79pt"
 viewBox="0.00 0.00 851.00 79.00" xmlns="http://www.w3.org/2000/svg" xmlns:xlink="http://www.w3.org/1999/xlink">
<g id="graph0" class="graph" transform="scale(1 1) rotate(0) translate(4 74.75)">
<title>StackTrace_equal2</title>
<polygon fill="white" stroke="none" points="-4,4 -4,-74.75 847,-74.75 847,4 -4,4"/>
<!-- f0 -->
<g id="node1" class="node">
<title>f0</title>
<polygon fill="#fff8f8" stroke="black" points="0,-4.25 0,-66.5 54,-66.5 54,-4.25 0,-4.25"/>
<text xml:space="preserve" text-anchor="middle" x="27" y="-53" font-family="Times,serif" font-size="10.00">q₀</text>
<polyline fill="none" stroke="black" points="0,-46.5 54,-46.5"/>
<text xml:space="preserve" text-anchor="middle" x="27" y="-33" font-family="Times,serif" font-size="10.00">abab</text>
<polyline fill="none" stroke="black" points="0,-27.25 54,-27.25"/>
<text xml:space="preserve" text-anchor="middle" x="27" y="-13.75" font-family="Times,serif" font-size="10.00">⊥</text>
</g>
<!-- f1 -->
<g id="node2" class="node">
<title>f1</title>
<polygon fill="#e6f7ff" stroke="black" points="126.75,-6.12 126.75,-64.62 180.75,-64.62 180.75,-6.12 126.75,-6.12"/>
<text xml:space="preserve" text-anchor="middle" x="153.75" y="-51.12" font-family="Times,serif" font-size="10.00">q₁</text>
<polyline fill="none" stroke="black" points="126.75,-44.62 180.75,-44.62"/>
<text xml:space="preserve" text-anchor="middle" x="153.75" y="-31.12" font-family="Times,serif" font-size="10.00">abab</text>
<polyline fill="none" stroke="black" points="126.75,-25.38 180.75,-25.38"/>
<text xml:space="preserve" text-anchor="middle" x="153.75" y="-11.88" font-family="Times,serif" font-size="10.00">$</text>
</g>
<!-- f0&#45;&gt;f1 -->
<g id="edge1" class="edge">
<title>f0&#45;&gt;f1</title>
<path fill="none" stroke="black" d="M54.46,-35.38C72.07,-35.38 95.48,-35.38 115.04,-35.38"/>
<polygon fill="black" stroke="black" points="114.82,-38.88 124.82,-35.38 114.82,-31.88 114.82,-38.88"/>
<text xml:space="preserve" text-anchor="middle" x="90.38" y="-38.58" font-family="Times,serif" font-size="14.00">ε,ε→$</text>
</g>
<!-- f2 -->
<g id="node3" class="node">
<title>f2</title>
<polygon fill="#e6f7ff" stroke="black" points="264,-0.5 264,-70.25 318,-70.25 318,-0.5 264,-0.5"/>
<text xml:space="preserve" text-anchor="middle" x="291" y="-56.75" font-family="Times,serif" font-size="10.00">q₁</text>
<polyline fill="none" stroke="black" points="264,-50.25 318,-50.25"/>
<text xml:space="preserve" text-anchor="middle" x="291" y="-36.75" font-family="Times,serif" font-size="10.00">bab</text>
<polyline fill="none" stroke="black" points="264,-31 318,-31"/>
<text xml:space="preserve" text-anchor="middle" x="291" y="-17.5" font-family="Times,serif" font-size="10.00">A</text>
<text xml:space="preserve" text-anchor="middle" x="291" y="-6.25" font-family="Times,serif" font-size="10.00">$</text>
</g>
<!-- f1&#45;&gt;f2 -->
<g id="edge2" class="edge">
<title>f1&#45;&gt;f2</title>
<path fill="none" stroke="black" d="M181.15,-35.38C201.44,-35.38 229.75,-35.38 252.41,-35.38"/>
<polygon fill="black" stroke="black" points="252.15,-38.88 262.15,-35.38 252.15,-31.88 252.15,-38.88"/>
<text xml:space="preserve" text-anchor="middle" x="222.38" y="-38.58" font-family="Times,serif" font-size="14.00">a,$→A$</text>
</g>
<!-- f3 -->
<g id="node4" class="node">
<title>f3</title>
<polygon fill="#e6f7ff" stroke="black" points="394.5,-6.12 394.5,-64.62 448.5,-64.62 448.5,-6.12 394.5,-6.12"/>
<text xml:space="preserve" text-anchor="middle" x="421.5" y="-51.12" font-family="Times,serif" font-size="10.00">q₁</text>
<polyline fill="none" stroke="black" points="394.5,-44.62 448.5,-44.62"/>
<text xml:space="preserve" text-anchor="middle" x="421.5" y="-31.12" font-family="Times,serif" font-size="10.00">ab</text>
<polyline fill="none" stroke="black" points="394.5,-25.38 448.5,-25.38"/>
<text xml:space="preserve" text-anchor="middle" x="421.5" y="-11.88" font-family="Times,serif" font-size="10.00">$</text>
</g>
<!-- f2&#45;&gt;f3 -->
<g id="edge3" class="edge">
<title>f2&#45;&gt;f3</title>
<path fill="none" stroke="black" d="M318.31,-35.38C336.94,-35.38 362.19,-35.38 382.93,-35.38"/>
<polygon fill="black" stroke="black" points="382.71,-38.88 392.71,-35.38 382.71,-31.88 382.71,-38.88"/>
<text xml:space="preserve" text-anchor="middle" x="356.25" y="-38.58" font-family="Times,serif" font-size="14.00">b,A→ε</text>
</g>
<!-- f4 -->
<g id="node5" class="node">
<title>f4</title>
<polygon fill="#e6f7ff" stroke="black" points="531.75,-0.5 531.75,-70.25 585.75,-70.25 585.75,-0.5 531.75,-0.5"/>
<text xml:space="preserve" text-anchor="middle" x="558.75" y="-56.75" font-family="Times,serif" font-size="10.00">q₁</text>
<polyline fill="none" stroke="black" points="531.75,-50.25 585.75,-50.25"/>
<text xml:space="preserve" text-anchor="middle" x="558.75" y="-36.75" font-family="Times,serif" font-size="10.00">b</text>
<polyline fill="none" stroke="black" points="531.75,-31 585.75,-31"/>
<text xml:space="preserve" text-anchor="middle" x="558.75" y="-17.5" font-family="Times,serif" font-size="10.00">A</text>
<text xml:space="preserve" text-anchor="middle" x="558.75" y="-6.25" font-family="Times,serif" font-size="10.00">$</text>
</g>
<!-- f3&#45;&gt;f4 -->
<g id="edge4" class="edge">
<title>f3&#45;&gt;f4</title>
<path fill="none" stroke="black" d="M448.9,-35.38C469.19,-35.38 497.5,-35.38 520.16,-35.38"/>
<polygon fill="black" stroke="black" points="519.9,-38.88 529.9,-35.38 519.9,-31.88 519.9,-38.88"/>
<text xml:space="preserve" text-anchor="middle" x="490.12" y="-38.58" font-family="Times,serif" font-size="14.00">a,$→A$</text>
</g>
<!-- f5 -->
<g id="node6" class="node">
<title>f5</title>
<polygon fill="#fffbe6" stroke="black" points="662.25,-6.12 662.25,-64.62 716.25,-64.62 716.25,-6.12 662.25,-6.12"/>
<text xml:space="preserve" text-anchor="middle" x="689.25" y="-51.12" font-family="Times,serif" font-size="10.00">q₁</text>
<polyline fill="none" stroke="black" points="662.25,-44.62 716.25,-44.62"/>
<text xml:space="preserve" text-anchor="middle" x="689.25" y="-31.12" font-family="Times,serif" font-size="10.00">ε</text>
<polyline fill="none" stroke="black" points="662.25,-25.38 716.25,-25.38"/>
<text xml:space="preserve" text-anchor="middle" x="689.25" y="-11.88" font-family="Times,serif" font-size="10.00">$</text>
</g>
<!-- f4&#45;&gt;f5 -->
<g id="edge5" class="edge">
<title>f4&#45;&gt;f5</title>
<path fill="none" stroke="black" d="M586.06,-35.38C604.69,-35.38 629.94,-35.38 650.68,-35.38"/>
<polygon fill="black" stroke="black" points="650.46,-38.88 660.46,-35.38 650.46,-31.88 650.46,-38.88"/>
<text xml:space="preserve" text-anchor="middle" x="624" y="-38.58" font-family="Times,serif" font-size="14.00">b,A→ε</text>
</g>
<!-- f6 -->
<g id="node7" class="node">
<title>f6</title>
<polygon fill="#f2fff2" stroke="black" points="789,-4.25 789,-66.5 843,-66.5 843,-4.25 789,-4.25"/>
<text xml:space="preserve" text-anchor="middle" x="816" y="-53" font-family="Times,serif" font-size="10.00">q₂</text>
<polyline fill="none" stroke="black" points="789,-46.5 843,-46.5"/>
<text xml:space="preserve" text-anchor="middle" x="816" y="-33" font-family="Times,serif" font-size="10.00">ε</text>
<polyline fill="none" stroke="black" points="789,-27.25 843,-27.25"/>
<text xml:space="preserve" text-anchor="middle" x="816" y="-13.75" font-family="Times,serif" font-size="10.00">⊥</text>
</g>
<!-- f5&#45;&gt;f6 -->
<g id="edge6" class="edge">
<title>f5&#45;&gt;f6</title>
<path fill="none" stroke="black" d="M716.71,-35.38C734.32,-35.38 757.73,-35.38 777.29,-35.38"/>
<polygon fill="black" stroke="black" points="777.07,-38.88 787.07,-35.38 777.07,-31.88 777.07,-38.88"/>
<text xml:space="preserve" text-anchor="middle" x="752.62" y="-38.58" font-family="Times,serif" font-size="14.00">ε,$→ε</text>
</g>
</g>
</svg>
