<?xml version="1.0" encoding="UTF-8" standalone="no"?>
<!DOCTYPE svg PUBLIC "-//W3C//DTD SVG 1.1//EN"
 "http://www.w3.org/Graphics/SVG/1.1/DTD/svg11.dtd">
<!-- Generated by graphviz version 14.0.2 (20251019.1705)
 -->
<!-- Title: PDA9 Pages: 1 -->
<svg width="398pt" height="143pt"
 viewBox="0.00 0.00 398.00 143.00" xmlns="http://www.w3.org/2000/svg" xmlns:xlink="http://www.w3.org/1999/xlink">
<g id="graph0" class="graph" transform="scale(1 1) rotate(0) translate(4 138.68)">
<title>PDA9</title>
<polygon fill="white" stroke="none" points="-4,4 -4,-138.68 393.77,-138.68 393.77,4 -4,4"/>
<!-- q0 -->
<g id="node1" class="node">
<title>q0</title>
<ellipse fill="#f9f9f9" stroke="black" cx="45.21" cy="-47.08" rx="45.21" ry="45.21"/>
<text xml:space="preserve" text-anchor="middle" x="45.21" y="-42.03" font-family="Arial" font-size="14.00">q₀ (start)</text>
</g>
<!-- q1 -->
<g id="node2" class="node">
<title>q1</title>
<ellipse fill="#f9f9f9" stroke="black" cx="193.02" cy="-47.08" rx="18.6" ry="18.6"/>
<text xml:space="preserve" text-anchor="middle" x="193.02" y="-42.03" font-family="Arial" font-size="14.00">q₁</text>
</g>
<!-- q0&#45;&gt;q1 -->
<g id="edge1" class="edge">
<title>q0&#45;&gt;q1</title>
<path fill="none" stroke="black" d="M90.75,-47.08C114.02,-47.08 141.86,-47.08 162.46,-47.08"/>
<polygon fill="black" stroke="black" points="162.44,-50.58 172.44,-47.08 162.44,-43.58 162.44,-50.58"/>
<text xml:space="preserve" text-anchor="middle" x="132.42" y="-50.28" font-family="Times,serif" font-size="14.00">ε, ε → $</text>
</g>
<!-- q1&#45;&gt;q1 -->
<g id="edge2" class="edge">
<title>q1&#45;&gt;q1</title>
<path fill="none" stroke="black" d="M187.57,-65.16C186.64,-74.85 188.46,-83.68 193.02,-83.68 195.65,-83.68 197.37,-80.72 198.17,-76.36"/>
<polygon fill="black" stroke="black" points="201.66,-76.76 198.42,-66.67 194.66,-76.57 201.66,-76.76"/>
<text xml:space="preserve" text-anchor="middle" x="193.02" y="-86.88" font-family="Times,serif" font-size="14.00">(, ε → (</text>
</g>
<!-- q1&#45;&gt;q1 -->
<g id="edge3" class="edge">
<title>q1&#45;&gt;q1</title>
<path fill="none" stroke="black" d="M184.32,-63.85C178.87,-81.63 181.77,-101.68 193.02,-101.68 201.97,-101.68 205.64,-88.94 204,-74.78"/>
<polygon fill="black" stroke="black" points="207.49,-74.4 202.02,-65.33 200.64,-75.83 207.49,-74.4"/>
<text xml:space="preserve" text-anchor="middle" x="193.02" y="-104.88" font-family="Times,serif" font-size="14.00">), ( → ε</text>
</g>
<!-- qf -->
<g id="node3" class="node">
<title>qf</title>
<ellipse fill="#f9f9f9" stroke="black" cx="342.69" cy="-47.08" rx="43.08" ry="43.08"/>
<ellipse fill="none" stroke="black" cx="342.69" cy="-47.08" rx="47.08" ry="47.08"/>
<text xml:space="preserve" text-anchor="middle" x="342.69" y="-41.65" font-family="Arial" font-size="14.00">qf (final)</text>
</g>
<!-- q1&#45;&gt;qf -->
<g id="edge4" class="edge">
<title>q1&#45;&gt;qf</title>
<path fill="none" stroke="black" d="M211.83,-47.08C229.74,-47.08 258.31,-47.08 284.11,-47.08"/>
<polygon fill="black" stroke="black" points="283.82,-50.58 293.82,-47.08 283.82,-43.58 283.82,-50.58"/>
<text xml:space="preserve" text-anchor="middle" x="253.61" y="-50.28" font-family="Times,serif" font-size="14.00">ε, $ → ε</text>
</g>
</g>
</svg>
