<?xml version="1.0" encoding="UTF-8" standalone="no"?>
<!DOCTYPE svg PUBLIC "-//W3C//DTD SVG 1.1//EN"
 "http://www.w3.org/Graphics/SVG/1.1/DTD/svg11.dtd">
<!-- Generated by graphviz version 14.0.2 (20251019.1705)
 -->
<!-- Title: TopDownParsing Pages: 1 -->
<svg width="128pt" height="476pt"
 viewBox="0.00 0.00 128.00 476.00" xmlns="http://www.w3.org/2000/svg" xmlns:xlink="http://www.w3.org/1999/xlink">
<g id="graph0" class="graph" transform="scale(1 1) rotate(0) translate(4 472)">
<title>TopDownParsing</title>
<polygon fill="white" stroke="none" points="-4,4 -4,-472 124.25,-472 124.25,4 -4,4"/>
<!-- step1 -->
<g id="node1" class="node">
<title>step1</title>
<path fill="#e8f4f8" stroke="black" d="M83.5,-468C83.5,-468 36.75,-468 36.75,-468 30.75,-468 24.75,-462 24.75,-456 24.75,-456 24.75,-444 24.75,-444 24.75,-438 30.75,-432 36.75,-432 36.75,-432 83.5,-432 83.5,-432 89.5,-432 95.5,-438 95.5,-444 95.5,-444 95.5,-456 95.5,-456 95.5,-462 89.5,-468 83.5,-468"/>
<text xml:space="preserve" text-anchor="middle" x="60.12" y="-444.95" font-family="Times,serif" font-size="14.00">1. Start: S</text>
</g>
<!-- step2 -->
<g id="node2" class="node">
<title>step2</title>
<path fill="#e8f4f8" stroke="black" d="M85,-396C85,-396 35.25,-396 35.25,-396 29.25,-396 23.25,-390 23.25,-384 23.25,-384 23.25,-372 23.25,-372 23.25,-366 29.25,-360 35.25,-360 35.25,-360 85,-360 85,-360 91,-360 97,-366 97,-372 97,-372 97,-384 97,-384 97,-390 91,-396 85,-396"/>
<text xml:space="preserve" text-anchor="middle" x="60.12" y="-372.95" font-family="Times,serif" font-size="14.00">2. S→AB</text>
</g>
<!-- step1&#45;&gt;step2 -->
<g id="edge1" class="edge">
<title>step1&#45;&gt;step2</title>
<path fill="none" stroke="black" d="M60.12,-431.7C60.12,-424.41 60.12,-415.73 60.12,-407.54"/>
<polygon fill="black" stroke="black" points="63.63,-407.62 60.13,-397.62 56.63,-407.62 63.63,-407.62"/>
</g>
<!-- step3 -->
<g id="node3" class="node">
<title>step3</title>
<path fill="#e8f4f8" stroke="black" d="M108.25,-324C108.25,-324 12,-324 12,-324 6,-324 0,-318 0,-312 0,-312 0,-300 0,-300 0,-294 6,-288 12,-288 12,-288 108.25,-288 108.25,-288 114.25,-288 120.25,-294 120.25,-300 120.25,-300 120.25,-312 120.25,-312 120.25,-318 114.25,-324 108.25,-324"/>
<text xml:space="preserve" text-anchor="middle" x="60.12" y="-300.95" font-family="Times,serif" font-size="14.00">3. Match &#39;a&#39; with A</text>
</g>
<!-- step2&#45;&gt;step3 -->
<g id="edge2" class="edge">
<title>step2&#45;&gt;step3</title>
<path fill="none" stroke="black" d="M60.12,-359.7C60.12,-352.41 60.12,-343.73 60.12,-335.54"/>
<polygon fill="black" stroke="black" points="63.63,-335.62 60.13,-325.62 56.63,-335.62 63.63,-335.62"/>
</g>
<!-- step4 -->
<g id="node4" class="node">
<title>step4</title>
<path fill="#e8f4f8" stroke="black" d="M108.25,-252C108.25,-252 12,-252 12,-252 6,-252 0,-246 0,-240 0,-240 0,-228 0,-228 0,-222 6,-216 12,-216 12,-216 108.25,-216 108.25,-216 114.25,-216 120.25,-222 120.25,-228 120.25,-228 120.25,-240 120.25,-240 120.25,-246 114.25,-252 108.25,-252"/>
<text xml:space="preserve" text-anchor="middle" x="60.12" y="-228.95" font-family="Times,serif" font-size="14.00">4. Continue with A</text>
</g>
<!-- step3&#45;&gt;step4 -->
<g id="edge3" class="edge">
<title>step3&#45;&gt;step4</title>
<path fill="none" stroke="black" d="M60.12,-287.7C60.12,-280.41 60.12,-271.73 60.12,-263.54"/>
<polygon fill="black" stroke="black" points="63.63,-263.62 60.13,-253.62 56.63,-263.62 63.63,-263.62"/>
</g>
<!-- step5 -->
<g id="node5" class="node">
<title>step5</title>
<path fill="#e8f4f8" stroke="black" d="M88,-180C88,-180 32.25,-180 32.25,-180 26.25,-180 20.25,-174 20.25,-168 20.25,-168 20.25,-156 20.25,-156 20.25,-150 26.25,-144 32.25,-144 32.25,-144 88,-144 88,-144 94,-144 100,-150 100,-156 100,-156 100,-168 100,-168 100,-174 94,-180 88,-180"/>
<text xml:space="preserve" text-anchor="middle" x="60.12" y="-156.95" font-family="Times,serif" font-size="14.00">5. Match &#39;a&#39;</text>
</g>
<!-- step4&#45;&gt;step5 -->
<g id="edge4" class="edge">
<title>step4&#45;&gt;step5</title>
<path fill="none" stroke="black" d="M60.12,-215.7C60.12,-208.41 60.12,-199.73 60.12,-191.54"/>
<polygon fill="black" stroke="black" points="63.63,-191.62 60.13,-181.62 56.63,-191.62 63.63,-191.62"/>
</g>
<!-- step6 -->
<g id="node6" class="node">
<title>step6</title>
<path fill="#e8f4f8" stroke="black" d="M84.25,-108C84.25,-108 36,-108 36,-108 30,-108 24,-102 24,-96 24,-96 24,-84 24,-84 24,-78 30,-72 36,-72 36,-72 84.25,-72 84.25,-72 90.25,-72 96.25,-78 96.25,-84 96.25,-84 96.25,-96 96.25,-96 96.25,-102 90.25,-108 84.25,-108"/>
<text xml:space="preserve" text-anchor="middle" x="60.12" y="-84.95" font-family="Times,serif" font-size="14.00">6. Parse B</text>
</g>
<!-- step5&#45;&gt;step6 -->
<g id="edge5" class="edge">
<title>step5&#45;&gt;step6</title>
<path fill="none" stroke="black" d="M60.12,-143.7C60.12,-136.41 60.12,-127.73 60.12,-119.54"/>
<polygon fill="black" stroke="black" points="63.63,-119.62 60.13,-109.62 56.63,-119.62 63.63,-119.62"/>
</g>
<!-- step7 -->
<g id="node7" class="node">
<title>step7</title>
<path fill="#e8f4f8" stroke="black" d="M86.88,-36C86.88,-36 33.37,-36 33.37,-36 27.37,-36 21.38,-30 21.38,-24 21.38,-24 21.38,-12 21.38,-12 21.38,-6 27.38,0 33.38,0 33.38,0 86.88,0 86.88,0 92.88,0 98.88,-6 98.88,-12 98.88,-12 98.88,-24 98.88,-24 98.88,-30 92.88,-36 86.88,-36"/>
<text xml:space="preserve" text-anchor="middle" x="60.12" y="-12.95" font-family="Times,serif" font-size="14.00">7. Success!</text>
</g>
<!-- step6&#45;&gt;step7 -->
<g id="edge6" class="edge">
<title>step6&#45;&gt;step7</title>
<path fill="none" stroke="black" d="M60.12,-71.7C60.12,-64.41 60.12,-55.73 60.12,-47.54"/>
<polygon fill="black" stroke="black" points="63.63,-47.62 60.13,-37.62 56.63,-47.62 63.63,-47.62"/>
</g>
</g>
</svg>
