<?xml version="1.0" encoding="UTF-8" standalone="no"?>
<!DOCTYPE svg PUBLIC "-//W3C//DTD SVG 1.1//EN"
 "http://www.w3.org/Graphics/SVG/1.1/DTD/svg11.dtd">
<!-- Generated by graphviz version 14.0.2 (20251019.1705)
 -->
<!-- Title: PDA_palindrome Pages: 1 -->
<svg width="496pt" height="145pt"
 viewBox="0.00 0.00 496.00 145.00" xmlns="http://www.w3.org/2000/svg" xmlns:xlink="http://www.w3.org/1999/xlink">
<g id="graph0" class="graph" transform="scale(1 1) rotate(0) translate(4 141.27)">
<title>PDA_palindrome</title>
<polygon fill="white" stroke="none" points="-4,4 -4,-141.27 491.87,-141.27 491.87,4 -4,4"/>
<!-- q0 -->
<g id="node1" class="node">
<title>q0</title>
<ellipse fill="#fff8f8" stroke="#7b1113" cx="18" cy="-43.13" rx="18" ry="18"/>
<text xml:space="preserve" text-anchor="middle" x="18" y="-39.81" font-family="Times,serif" font-size="11.00">q₀</text>
</g>
<!-- q1 -->
<g id="node2" class="node">
<title>q1</title>
<ellipse fill="#f8f8f8" stroke="#7b1113" cx="155.18" cy="-43.13" rx="35.18" ry="35.18"/>
<text xml:space="preserve" text-anchor="middle" x="155.18" y="-46.56" font-family="Times,serif" font-size="11.00">q₁</text>
<text xml:space="preserve" text-anchor="middle" x="155.18" y="-32.31" font-family="Times,serif" font-size="11.00">push W</text>
</g>
<!-- q0&#45;&gt;q1 -->
<g id="edge1" class="edge">
<title>q0&#45;&gt;q1</title>
<path fill="none" stroke="black" d="M36.4,-43.13C54.49,-43.13 83.59,-43.13 108.34,-43.13"/>
<polygon fill="black" stroke="black" points="108.19,-46.63 118.19,-43.13 108.19,-39.63 108.19,-46.63"/>
<text xml:space="preserve" text-anchor="middle" x="78" y="-46.33" font-family="Times,serif" font-size="14.00">ε, ε → $</text>
</g>
<!-- q1&#45;&gt;q1 -->
<g id="edge2" class="edge">
<title>q1&#45;&gt;q1</title>
<path fill="none" stroke="black" d="M140.79,-75.59C140.56,-87.03 145.35,-96.31 155.18,-96.31 161.47,-96.31 165.7,-92.5 167.87,-86.76"/>
<polygon fill="black" stroke="black" points="171.3,-87.5 169.34,-77.08 164.38,-86.44 171.3,-87.5"/>
<text xml:space="preserve" text-anchor="middle" x="155.18" y="-116.01" font-family="Times,serif" font-size="14.00">a, ε → a</text>
<text xml:space="preserve" text-anchor="middle" x="155.18" y="-99.51" font-family="Times,serif" font-size="14.00">b, ε → b</text>
</g>
<!-- q2 -->
<g id="node3" class="node">
<title>q2</title>
<ellipse fill="#f8f8f8" stroke="#7b1113" cx="316.74" cy="-43.13" rx="43.13" ry="43.13"/>
<text xml:space="preserve" text-anchor="middle" x="316.74" y="-46.56" font-family="Times,serif" font-size="11.00">q₂</text>
<text xml:space="preserve" text-anchor="middle" x="316.74" y="-32.31" font-family="Times,serif" font-size="11.00">match Wᴿ</text>
</g>
<!-- q1&#45;&gt;q2 -->
<g id="edge3" class="edge">
<title>q1&#45;&gt;q2</title>
<path fill="none" stroke="black" d="M190.8,-43.13C211.6,-43.13 238.49,-43.13 262,-43.13"/>
<polygon fill="black" stroke="black" points="261.72,-46.63 271.72,-43.13 261.72,-39.63 261.72,-46.63"/>
<text xml:space="preserve" text-anchor="middle" x="231.98" y="-46.33" font-family="Times,serif" font-size="14.00">c, ε → ε</text>
</g>
<!-- q2&#45;&gt;q2 -->
<g id="edge4" class="edge">
<title>q2&#45;&gt;q2</title>
<path fill="none" stroke="black" d="M300.91,-83.7C301.53,-95.31 306.81,-104.27 316.74,-104.27 323.1,-104.27 327.56,-100.59 330.1,-94.9"/>
<polygon fill="black" stroke="black" points="333.51,-95.7 332.24,-85.18 326.67,-94.19 333.51,-95.7"/>
<text xml:space="preserve" text-anchor="middle" x="316.74" y="-123.97" font-family="Times,serif" font-size="14.00">a, a → ε</text>
<text xml:space="preserve" text-anchor="middle" x="316.74" y="-107.47" font-family="Times,serif" font-size="14.00">b, b → ε</text>
</g>
<!-- q3 -->
<g id="node4" class="node">
<title>q3</title>
<ellipse fill="#f2fff2" stroke="#7b1113" cx="465.87" cy="-43.13" rx="18" ry="18"/>
<ellipse fill="none" stroke="#7b1113" cx="465.87" cy="-43.13" rx="22" ry="22"/>
<text xml:space="preserve" text-anchor="middle" x="465.87" y="-39.81" font-family="Times,serif" font-size="11.00">q₃</text>
</g>
<!-- q2&#45;&gt;q3 -->
<g id="edge5" class="edge">
<title>q2&#45;&gt;q3</title>
<path fill="none" stroke="black" d="M360.3,-43.13C383.25,-43.13 411.13,-43.13 432.33,-43.13"/>
<polygon fill="black" stroke="black" points="432.14,-46.63 442.14,-43.13 432.14,-39.63 432.14,-46.63"/>
<text xml:space="preserve" text-anchor="middle" x="401.87" y="-46.33" font-family="Times,serif" font-size="14.00">ε, $ → ε</text>
</g>
</g>
</svg>
