<?xml version="1.0" encoding="UTF-8" standalone="no"?>
<!DOCTYPE svg PUBLIC "-//W3C//DTD SVG 1.1//EN"
 "http://www.w3.org/Graphics/SVG/1.1/DTD/svg11.dtd">
<!-- Generated by graphviz version 14.0.2 (20251019.1705)
 -->
<!-- Title: StackTrace_anbn Pages: 1 -->
<svg width="1123pt" height="101pt"
 viewBox="0.00 0.00 1123.00 101.00" xmlns="http://www.w3.org/2000/svg" xmlns:xlink="http://www.w3.org/1999/xlink">
<g id="graph0" class="graph" transform="scale(1 1) rotate(0) translate(4 97.25)">
<title>StackTrace_anbn</title>
<polygon fill="white" stroke="none" points="-4,4 -4,-97.25 1119.25,-97.25 1119.25,4 -4,4"/>
<!-- s0 -->
<g id="node1" class="node">
<title>s0</title>
<polygon fill="#fff8f8" stroke="black" points="0,-15.5 0,-77.75 54,-77.75 54,-15.5 0,-15.5"/>
<text xml:space="preserve" text-anchor="middle" x="27" y="-64.25" font-family="Times,serif" font-size="10.00">q₀</text>
<polyline fill="none" stroke="black" points="0,-57.75 54,-57.75"/>
<text xml:space="preserve" text-anchor="middle" x="27" y="-44.25" font-family="Times,serif" font-size="10.00">aaabbb</text>
<polyline fill="none" stroke="black" points="0,-38.5 54,-38.5"/>
<text xml:space="preserve" text-anchor="middle" x="27" y="-25" font-family="Times,serif" font-size="10.00">⊥</text>
</g>
<!-- s1 -->
<g id="node2" class="node">
<title>s1</title>
<polygon fill="#e6f7ff" stroke="black" points="126.75,-17.38 126.75,-75.88 180.75,-75.88 180.75,-17.38 126.75,-17.38"/>
<text xml:space="preserve" text-anchor="middle" x="153.75" y="-62.38" font-family="Times,serif" font-size="10.00">q₁</text>
<polyline fill="none" stroke="black" points="126.75,-55.88 180.75,-55.88"/>
<text xml:space="preserve" text-anchor="middle" x="153.75" y="-42.38" font-family="Times,serif" font-size="10.00">aaabbb</text>
<polyline fill="none" stroke="black" points="126.75,-36.62 180.75,-36.62"/>
<text xml:space="preserve" text-anchor="middle" x="153.75" y="-23.12" font-family="Times,serif" font-size="10.00">$</text>
</g>
<!-- s0&#45;&gt;s1 -->
<g id="edge1" class="edge">
<title>s0&#45;&gt;s1</title>
<path fill="none" stroke="black" d="M54.46,-46.62C72.07,-46.62 95.48,-46.62 115.04,-46.62"/>
<polygon fill="black" stroke="black" points="114.82,-50.13 124.82,-46.63 114.82,-43.13 114.82,-50.13"/>
<text xml:space="preserve" text-anchor="middle" x="90.38" y="-49.83" font-family="Times,serif" font-size="14.00">ε,ε→$</text>
</g>
<!-- s2 -->
<g id="node3" class="node">
<title>s2</title>
<polygon fill="#e6f7ff" stroke="black" points="256.5,-11.75 256.5,-81.5 310.5,-81.5 310.5,-11.75 256.5,-11.75"/>
<text xml:space="preserve" text-anchor="middle" x="283.5" y="-68" font-family="Times,serif" font-size="10.00">q₁</text>
<polyline fill="none" stroke="black" points="256.5,-61.5 310.5,-61.5"/>
<text xml:space="preserve" text-anchor="middle" x="283.5" y="-48" font-family="Times,serif" font-size="10.00">aabbb</text>
<polyline fill="none" stroke="black" points="256.5,-42.25 310.5,-42.25"/>
<text xml:space="preserve" text-anchor="middle" x="283.5" y="-28.75" font-family="Times,serif" font-size="10.00">A</text>
<text xml:space="preserve" text-anchor="middle" x="283.5" y="-17.5" font-family="Times,serif" font-size="10.00">$</text>
</g>
<!-- s1&#45;&gt;s2 -->
<g id="edge2" class="edge">
<title>s1&#45;&gt;s2</title>
<path fill="none" stroke="black" d="M181.22,-46.62C199.55,-46.62 224.22,-46.62 244.62,-46.62"/>
<polygon fill="black" stroke="black" points="244.55,-50.13 254.55,-46.63 244.55,-43.13 244.55,-50.13"/>
<text xml:space="preserve" text-anchor="middle" x="218.62" y="-49.83" font-family="Times,serif" font-size="14.00">a,ε→A</text>
</g>
<!-- s3 -->
<g id="node4" class="node">
<title>s3</title>
<polygon fill="#e6f7ff" stroke="black" points="399.75,-6.12 399.75,-87.12 453.75,-87.12 453.75,-6.12 399.75,-6.12"/>
<text xml:space="preserve" text-anchor="middle" x="426.75" y="-73.62" font-family="Times,serif" font-size="10.00">q₁</text>
<polyline fill="none" stroke="black" points="399.75,-67.12 453.75,-67.12"/>
<text xml:space="preserve" text-anchor="middle" x="426.75" y="-53.62" font-family="Times,serif" font-size="10.00">abbb</text>
<polyline fill="none" stroke="black" points="399.75,-47.88 453.75,-47.88"/>
<text xml:space="preserve" text-anchor="middle" x="426.75" y="-34.38" font-family="Times,serif" font-size="10.00">A</text>
<text xml:space="preserve" text-anchor="middle" x="426.75" y="-23.12" font-family="Times,serif" font-size="10.00">A</text>
<text xml:space="preserve" text-anchor="middle" x="426.75" y="-11.88" font-family="Times,serif" font-size="10.00">$</text>
</g>
<!-- s2&#45;&gt;s3 -->
<g id="edge3" class="edge">
<title>s2&#45;&gt;s3</title>
<path fill="none" stroke="black" d="M310.74,-46.62C332.54,-46.62 363.83,-46.62 388.28,-46.62"/>
<polygon fill="black" stroke="black" points="388.14,-50.13 398.14,-46.63 388.14,-43.13 388.14,-50.13"/>
<text xml:space="preserve" text-anchor="middle" x="355.12" y="-49.83" font-family="Times,serif" font-size="14.00">a,A→AA</text>
</g>
<!-- s4 -->
<g id="node5" class="node">
<title>s4</title>
<polygon fill="#e6f7ff" stroke="black" points="543,-0.5 543,-92.75 597,-92.75 597,-0.5 543,-0.5"/>
<text xml:space="preserve" text-anchor="middle" x="570" y="-79.25" font-family="Times,serif" font-size="10.00">q₁</text>
<polyline fill="none" stroke="black" points="543,-72.75 597,-72.75"/>
<text xml:space="preserve" text-anchor="middle" x="570" y="-59.25" font-family="Times,serif" font-size="10.00">bbb</text>
<polyline fill="none" stroke="black" points="543,-53.5 597,-53.5"/>
<text xml:space="preserve" text-anchor="middle" x="570" y="-40" font-family="Times,serif" font-size="10.00">A</text>
<text xml:space="preserve" text-anchor="middle" x="570" y="-28.75" font-family="Times,serif" font-size="10.00">A</text>
<text xml:space="preserve" text-anchor="middle" x="570" y="-17.5" font-family="Times,serif" font-size="10.00">A</text>
<text xml:space="preserve" text-anchor="middle" x="570" y="-6.25" font-family="Times,serif" font-size="10.00">$</text>
</g>
<!-- s3&#45;&gt;s4 -->
<g id="edge4" class="edge">
<title>s3&#45;&gt;s4</title>
<path fill="none" stroke="black" d="M453.99,-46.62C475.79,-46.62 507.08,-46.62 531.53,-46.62"/>
<polygon fill="black" stroke="black" points="531.39,-50.13 541.39,-46.63 531.39,-43.13 531.39,-50.13"/>
<text xml:space="preserve" text-anchor="middle" x="498.38" y="-49.83" font-family="Times,serif" font-size="14.00">a,A→AA</text>
</g>
<!-- s5 -->
<g id="node6" class="node">
<title>s5</title>
<polygon fill="#fffbe6" stroke="black" points="673.5,-6.12 673.5,-87.12 727.5,-87.12 727.5,-6.12 673.5,-6.12"/>
<text xml:space="preserve" text-anchor="middle" x="700.5" y="-73.62" font-family="Times,serif" font-size="10.00">q₂</text>
<polyline fill="none" stroke="black" points="673.5,-67.12 727.5,-67.12"/>
<text xml:space="preserve" text-anchor="middle" x="700.5" y="-53.62" font-family="Times,serif" font-size="10.00">bb</text>
<polyline fill="none" stroke="black" points="673.5,-47.88 727.5,-47.88"/>
<text xml:space="preserve" text-anchor="middle" x="700.5" y="-34.38" font-family="Times,serif" font-size="10.00">A</text>
<text xml:space="preserve" text-anchor="middle" x="700.5" y="-23.12" font-family="Times,serif" font-size="10.00">A</text>
<text xml:space="preserve" text-anchor="middle" x="700.5" y="-11.88" font-family="Times,serif" font-size="10.00">$</text>
</g>
<!-- s4&#45;&gt;s5 -->
<g id="edge5" class="edge">
<title>s4&#45;&gt;s5</title>
<path fill="none" stroke="black" d="M597.31,-46.62C615.94,-46.62 641.19,-46.62 661.93,-46.62"/>
<polygon fill="black" stroke="black" points="661.71,-50.13 671.71,-46.63 661.71,-43.13 661.71,-50.13"/>
<text xml:space="preserve" text-anchor="middle" x="635.25" y="-49.83" font-family="Times,serif" font-size="14.00">b,A→ε</text>
</g>
<!-- s6 -->
<g id="node7" class="node">
<title>s6</title>
<polygon fill="#fffbe6" stroke="black" points="804,-11.75 804,-81.5 858,-81.5 858,-11.75 804,-11.75"/>
<text xml:space="preserve" text-anchor="middle" x="831" y="-68" font-family="Times,serif" font-size="10.00">q₂</text>
<polyline fill="none" stroke="black" points="804,-61.5 858,-61.5"/>
<text xml:space="preserve" text-anchor="middle" x="831" y="-48" font-family="Times,serif" font-size="10.00">b</text>
<polyline fill="none" stroke="black" points="804,-42.25 858,-42.25"/>
<text xml:space="preserve" text-anchor="middle" x="831" y="-28.75" font-family="Times,serif" font-size="10.00">A</text>
<text xml:space="preserve" text-anchor="middle" x="831" y="-17.5" font-family="Times,serif" font-size="10.00">$</text>
</g>
<!-- s5&#45;&gt;s6 -->
<g id="edge6" class="edge">
<title>s5&#45;&gt;s6</title>
<path fill="none" stroke="black" d="M727.81,-46.62C746.44,-46.62 771.69,-46.62 792.43,-46.62"/>
<polygon fill="black" stroke="black" points="792.21,-50.13 802.21,-46.63 792.21,-43.13 792.21,-50.13"/>
<text xml:space="preserve" text-anchor="middle" x="765.75" y="-49.83" font-family="Times,serif" font-size="14.00">b,A→ε</text>
</g>
<!-- s7 -->
<g id="node8" class="node">
<title>s7</title>
<polygon fill="#fffbe6" stroke="black" points="934.5,-17.38 934.5,-75.88 988.5,-75.88 988.5,-17.38 934.5,-17.38"/>
<text xml:space="preserve" text-anchor="middle" x="961.5" y="-62.38" font-family="Times,serif" font-size="10.00">q₂</text>
<polyline fill="none" stroke="black" points="934.5,-55.88 988.5,-55.88"/>
<text xml:space="preserve" text-anchor="middle" x="961.5" y="-42.38" font-family="Times,serif" font-size="10.00">ε</text>
<polyline fill="none" stroke="black" points="934.5,-36.62 988.5,-36.62"/>
<text xml:space="preserve" text-anchor="middle" x="961.5" y="-23.12" font-family="Times,serif" font-size="10.00">$</text>
</g>
<!-- s6&#45;&gt;s7 -->
<g id="edge7" class="edge">
<title>s6&#45;&gt;s7</title>
<path fill="none" stroke="black" d="M858.31,-46.62C876.94,-46.62 902.19,-46.62 922.93,-46.62"/>
<polygon fill="black" stroke="black" points="922.71,-50.13 932.71,-46.63 922.71,-43.13 922.71,-50.13"/>
<text xml:space="preserve" text-anchor="middle" x="896.25" y="-49.83" font-family="Times,serif" font-size="14.00">b,A→ε</text>
</g>
<!-- s8 -->
<g id="node9" class="node">
<title>s8</title>
<polygon fill="#f2fff2" stroke="black" points="1061.25,-15.5 1061.25,-77.75 1115.25,-77.75 1115.25,-15.5 1061.25,-15.5"/>
<text xml:space="preserve" text-anchor="middle" x="1088.25" y="-64.25" font-family="Times,serif" font-size="10.00">q₃</text>
<polyline fill="none" stroke="black" points="1061.25,-57.75 1115.25,-57.75"/>
<text xml:space="preserve" text-anchor="middle" x="1088.25" y="-44.25" font-family="Times,serif" font-size="10.00">ε</text>
<polyline fill="none" stroke="black" points="1061.25,-38.5 1115.25,-38.5"/>
<text xml:space="preserve" text-anchor="middle" x="1088.25" y="-25" font-family="Times,serif" font-size="10.00">⊥</text>
</g>
<!-- s7&#45;&gt;s8 -->
<g id="edge8" class="edge">
<title>s7&#45;&gt;s8</title>
<path fill="none" stroke="black" d="M988.96,-46.62C1006.57,-46.62 1029.98,-46.62 1049.54,-46.62"/>
<polygon fill="black" stroke="black" points="1049.32,-50.13 1059.32,-46.63 1049.32,-43.13 1049.32,-50.13"/>
<text xml:space="preserve" text-anchor="middle" x="1024.88" y="-49.83" font-family="Times,serif" font-size="14.00">ε,$→ε</text>
</g>
</g>
</svg>
