<?xml version="1.0" encoding="UTF-8" standalone="no"?>
<!DOCTYPE svg PUBLIC "-//W3C//DTD SVG 1.1//EN"
 "http://www.w3.org/Graphics/SVG/1.1/DTD/svg11.dtd">
<!-- Generated by graphviz version 14.0.2 (20251019.1705)
 -->
<!-- Title: AmbigTree1 Pages: 1 -->
<svg width="306pt" height="260pt"
 viewBox="0.00 0.00 306.00 260.00" xmlns="http://www.w3.org/2000/svg" xmlns:xlink="http://www.w3.org/1999/xlink">
<g id="graph0" class="graph" transform="scale(1 1) rotate(0) translate(4 256)">
<title>AmbigTree1</title>
<polygon fill="white" stroke="none" points="-4,4 -4,-256 302,-256 302,4 -4,4"/>
<!-- E0 -->
<g id="node1" class="node">
<title>E0</title>
<ellipse fill="#ffe6e6" stroke="black" cx="208" cy="-234" rx="18" ry="18"/>
<text xml:space="preserve" text-anchor="middle" x="208" y="-228.95" font-family="Times,serif" font-size="14.00">E</text>
</g>
<!-- E1 -->
<g id="node2" class="node">
<title>E1</title>
<ellipse fill="#ffe6e6" stroke="black" cx="114" cy="-162" rx="18" ry="18"/>
<text xml:space="preserve" text-anchor="middle" x="114" y="-156.95" font-family="Times,serif" font-size="14.00">E</text>
</g>
<!-- E0&#45;&gt;E1 -->
<g id="edge1" class="edge">
<title>E0&#45;&gt;E1</title>
<path fill="none" stroke="black" d="M193.72,-222.37C178.73,-211.2 154.91,-193.47 137.21,-180.29"/>
<polygon fill="black" stroke="black" points="139.43,-177.57 129.32,-174.41 135.25,-183.19 139.43,-177.57"/>
</g>
<!-- E4 -->
<g id="node5" class="node">
<title>E4</title>
<ellipse fill="#ffe6e6" stroke="black" cx="208" cy="-162" rx="18" ry="18"/>
<text xml:space="preserve" text-anchor="middle" x="208" y="-156.95" font-family="Times,serif" font-size="14.00">E</text>
</g>
<!-- E0&#45;&gt;E4 -->
<g id="edge3" class="edge">
<title>E0&#45;&gt;E4</title>
<path fill="none" stroke="black" d="M208,-215.7C208,-208.41 208,-199.73 208,-191.54"/>
<polygon fill="black" stroke="black" points="211.5,-191.62 208,-181.62 204.5,-191.62 211.5,-191.62"/>
</g>
<!-- times -->
<g id="node7" class="node">
<title>times</title>
<polygon fill="#e6f3ff" stroke="black" points="298,-180 244,-180 244,-144 298,-144 298,-180"/>
<text xml:space="preserve" text-anchor="middle" x="271" y="-156.95" font-family="Times,serif" font-size="14.00">*</text>
</g>
<!-- E0&#45;&gt;times -->
<g id="edge2" class="edge">
<title>E0&#45;&gt;times</title>
<path fill="none" stroke="black" d="M219.85,-219.83C227.7,-211.11 238.27,-199.37 247.76,-188.82"/>
<polygon fill="black" stroke="black" points="250.29,-191.24 254.38,-181.47 245.09,-186.56 250.29,-191.24"/>
</g>
<!-- E2 -->
<g id="node3" class="node">
<title>E2</title>
<ellipse fill="#ffe6e6" stroke="black" cx="36" cy="-90" rx="18" ry="18"/>
<text xml:space="preserve" text-anchor="middle" x="36" y="-84.95" font-family="Times,serif" font-size="14.00">E</text>
</g>
<!-- E1&#45;&gt;E2 -->
<g id="edge4" class="edge">
<title>E1&#45;&gt;E2</title>
<path fill="none" stroke="black" d="M100.77,-149.13C88.93,-138.5 71.36,-122.73 57.51,-110.3"/>
<polygon fill="black" stroke="black" points="59.94,-107.78 50.16,-103.71 55.27,-112.99 59.94,-107.78"/>
</g>
<!-- E3 -->
<g id="node4" class="node">
<title>E3</title>
<ellipse fill="#ffe6e6" stroke="black" cx="94" cy="-90" rx="18" ry="18"/>
<text xml:space="preserve" text-anchor="middle" x="94" y="-84.95" font-family="Times,serif" font-size="14.00">E</text>
</g>
<!-- E1&#45;&gt;E3 -->
<g id="edge6" class="edge">
<title>E1&#45;&gt;E3</title>
<path fill="none" stroke="black" d="M109.26,-144.41C107.04,-136.65 104.34,-127.21 101.84,-118.43"/>
<polygon fill="black" stroke="black" points="105.23,-117.58 99.12,-108.93 98.5,-119.5 105.23,-117.58"/>
</g>
<!-- plus -->
<g id="node6" class="node">
<title>plus</title>
<polygon fill="#e6f3ff" stroke="black" points="184,-108 130,-108 130,-72 184,-72 184,-108"/>
<text xml:space="preserve" text-anchor="middle" x="157" y="-84.95" font-family="Times,serif" font-size="14.00">+</text>
</g>
<!-- E1&#45;&gt;plus -->
<g id="edge5" class="edge">
<title>E1&#45;&gt;plus</title>
<path fill="none" stroke="black" d="M123.12,-146.15C128.17,-137.93 134.6,-127.46 140.5,-117.86"/>
<polygon fill="black" stroke="black" points="143.33,-119.93 145.59,-109.58 137.37,-116.27 143.33,-119.93"/>
</g>
<!-- num2 -->
<g id="node8" class="node">
<title>num2</title>
<polygon fill="#e6e6e6" stroke="black" points="54,-36 0,-36 0,0 54,0 54,-36"/>
<text xml:space="preserve" text-anchor="middle" x="27" y="-12.95" font-family="Times,serif" font-size="14.00">2</text>
</g>
<!-- E2&#45;&gt;num2 -->
<g id="edge7" class="edge">
<title>E2&#45;&gt;num2</title>
<path fill="none" stroke="black" d="M33.78,-71.7C32.83,-64.32 31.7,-55.52 30.63,-47.25"/>
<polygon fill="black" stroke="black" points="34.14,-47.08 29.39,-37.61 27.2,-47.97 34.14,-47.08"/>
</g>
<!-- num3 -->
<g id="node9" class="node">
<title>num3</title>
<polygon fill="#e6e6e6" stroke="black" points="126,-36 72,-36 72,0 126,0 126,-36"/>
<text xml:space="preserve" text-anchor="middle" x="99" y="-12.95" font-family="Times,serif" font-size="14.00">3</text>
</g>
<!-- E3&#45;&gt;num3 -->
<g id="edge8" class="edge">
<title>E3&#45;&gt;num3</title>
<path fill="none" stroke="black" d="M95.24,-71.7C95.76,-64.41 96.38,-55.73 96.96,-47.54"/>
<polygon fill="black" stroke="black" points="100.45,-47.84 97.67,-37.61 93.47,-47.34 100.45,-47.84"/>
</g>
<!-- num4 -->
<g id="node10" class="node">
<title>num4</title>
<polygon fill="#e6e6e6" stroke="black" points="256,-108 202,-108 202,-72 256,-72 256,-108"/>
<text xml:space="preserve" text-anchor="middle" x="229" y="-84.95" font-family="Times,serif" font-size="14.00">4</text>
</g>
<!-- E4&#45;&gt;num4 -->
<g id="edge9" class="edge">
<title>E4&#45;&gt;num4</title>
<path fill="none" stroke="black" d="M212.98,-144.41C215.24,-136.88 217.97,-127.75 220.54,-119.19"/>
<polygon fill="black" stroke="black" points="223.81,-120.48 223.33,-109.9 217.11,-118.47 223.81,-120.48"/>
</g>
</g>
</svg>
