<?xml version="1.0" encoding="UTF-8" standalone="no"?>
<!DOCTYPE svg PUBLIC "-//W3C//DTD SVG 1.1//EN"
 "http://www.w3.org/Graphics/SVG/1.1/DTD/svg11.dtd">
<!-- Generated by graphviz version 14.0.2 (20251019.1705)
 -->
<!-- Title: StackTrace Pages: 1 -->
<svg width="821pt" height="131pt"
 viewBox="0.00 0.00 821.00 131.00" xmlns="http://www.w3.org/2000/svg" xmlns:xlink="http://www.w3.org/1999/xlink">
<g id="graph0" class="graph" transform="scale(1 1) rotate(0) translate(4 126.5)">
<title>StackTrace</title>
<polygon fill="white" stroke="none" points="-4,4 -4,-126.5 817.25,-126.5 817.25,4 -4,4"/>
<!-- step0 -->
<g id="node1" class="node">
<title>step0</title>
<polygon fill="#fff8f8" stroke="black" points="0,-20.75 0,-101.75 59.5,-101.75 59.5,-20.75 0,-20.75"/>
<text xml:space="preserve" text-anchor="middle" x="29.75" y="-87.3" font-family="Times,serif" font-size="11.00">State: q₀</text>
<polyline fill="none" stroke="black" points="0,-79.5 59.5,-79.5"/>
<text xml:space="preserve" text-anchor="middle" x="29.75" y="-65.05" font-family="Times,serif" font-size="11.00">Input: (())</text>
<polyline fill="none" stroke="black" points="0,-58 59.5,-58"/>
<text xml:space="preserve" text-anchor="middle" x="29.75" y="-43.55" font-family="Times,serif" font-size="11.00">Stack:</text>
<text xml:space="preserve" text-anchor="middle" x="29.75" y="-30.05" font-family="Times,serif" font-size="11.00">⊥</text>
</g>
<!-- step1 -->
<g id="node2" class="node">
<title>step1</title>
<polygon fill="#e6f7ff" stroke="black" points="132.25,-14 132.25,-108.5 191.75,-108.5 191.75,-14 132.25,-14"/>
<text xml:space="preserve" text-anchor="middle" x="162" y="-94.05" font-family="Times,serif" font-size="11.00">State: q₁</text>
<polyline fill="none" stroke="black" points="132.25,-86.25 191.75,-86.25"/>
<text xml:space="preserve" text-anchor="middle" x="162" y="-71.8" font-family="Times,serif" font-size="11.00">Input: (())</text>
<polyline fill="none" stroke="black" points="132.25,-64.75 191.75,-64.75"/>
<text xml:space="preserve" text-anchor="middle" x="162" y="-50.3" font-family="Times,serif" font-size="11.00">Stack:</text>
<text xml:space="preserve" text-anchor="middle" x="162" y="-36.8" font-family="Times,serif" font-size="11.00">$</text>
<text xml:space="preserve" text-anchor="middle" x="162" y="-23.3" font-family="Times,serif" font-size="11.00">⊥</text>
</g>
<!-- step0&#45;&gt;step1 -->
<g id="edge1" class="edge">
<title>step0&#45;&gt;step1</title>
<path fill="none" stroke="black" d="M59.98,-61.25C77.83,-61.25 100.91,-61.25 120.5,-61.25"/>
<polygon fill="black" stroke="black" points="120.35,-64.75 130.35,-61.25 120.35,-57.75 120.35,-64.75"/>
<text xml:space="preserve" text-anchor="middle" x="95.88" y="-64.45" font-family="Times,serif" font-size="14.00">ε,ε→$</text>
</g>
<!-- step2 -->
<g id="node3" class="node">
<title>step2</title>
<polygon fill="#e6f7ff" stroke="black" points="260.75,-7.25 260.75,-115.25 316.5,-115.25 316.5,-7.25 260.75,-7.25"/>
<text xml:space="preserve" text-anchor="middle" x="288.62" y="-100.8" font-family="Times,serif" font-size="11.00">State: q₁</text>
<polyline fill="none" stroke="black" points="260.75,-93 316.5,-93"/>
<text xml:space="preserve" text-anchor="middle" x="288.62" y="-78.55" font-family="Times,serif" font-size="11.00">Input: ())</text>
<polyline fill="none" stroke="black" points="260.75,-71.5 316.5,-71.5"/>
<text xml:space="preserve" text-anchor="middle" x="288.62" y="-57.05" font-family="Times,serif" font-size="11.00">Stack:</text>
<text xml:space="preserve" text-anchor="middle" x="288.62" y="-43.55" font-family="Times,serif" font-size="11.00">(</text>
<text xml:space="preserve" text-anchor="middle" x="288.62" y="-30.05" font-family="Times,serif" font-size="11.00">$</text>
<text xml:space="preserve" text-anchor="middle" x="288.62" y="-16.55" font-family="Times,serif" font-size="11.00">⊥</text>
</g>
<!-- step1&#45;&gt;step2 -->
<g id="edge2" class="edge">
<title>step1&#45;&gt;step2</title>
<path fill="none" stroke="black" d="M192.22,-61.25C209.1,-61.25 230.54,-61.25 248.82,-61.25"/>
<polygon fill="black" stroke="black" points="248.78,-64.75 258.78,-61.25 248.78,-57.75 248.78,-64.75"/>
<text xml:space="preserve" text-anchor="middle" x="226.25" y="-64.45" font-family="Times,serif" font-size="14.00">(,ε→(</text>
</g>
<!-- step3 -->
<g id="node4" class="node">
<title>step3</title>
<polygon fill="#e6f7ff" stroke="black" points="385.5,-0.5 385.5,-122 439.75,-122 439.75,-0.5 385.5,-0.5"/>
<text xml:space="preserve" text-anchor="middle" x="412.62" y="-107.55" font-family="Times,serif" font-size="11.00">State: q₁</text>
<polyline fill="none" stroke="black" points="385.5,-99.75 439.75,-99.75"/>
<text xml:space="preserve" text-anchor="middle" x="412.62" y="-85.3" font-family="Times,serif" font-size="11.00">Input: ))</text>
<polyline fill="none" stroke="black" points="385.5,-78.25 439.75,-78.25"/>
<text xml:space="preserve" text-anchor="middle" x="412.62" y="-63.8" font-family="Times,serif" font-size="11.00">Stack:</text>
<text xml:space="preserve" text-anchor="middle" x="412.62" y="-50.3" font-family="Times,serif" font-size="11.00">(</text>
<text xml:space="preserve" text-anchor="middle" x="412.62" y="-36.8" font-family="Times,serif" font-size="11.00">(</text>
<text xml:space="preserve" text-anchor="middle" x="412.62" y="-23.3" font-family="Times,serif" font-size="11.00">$</text>
<text xml:space="preserve" text-anchor="middle" x="412.62" y="-9.8" font-family="Times,serif" font-size="11.00">⊥</text>
</g>
<!-- step2&#45;&gt;step3 -->
<g id="edge3" class="edge">
<title>step2&#45;&gt;step3</title>
<path fill="none" stroke="black" d="M316.7,-61.25C333.48,-61.25 355.28,-61.25 373.76,-61.25"/>
<polygon fill="black" stroke="black" points="373.53,-64.75 383.53,-61.25 373.53,-57.75 373.53,-64.75"/>
<text xml:space="preserve" text-anchor="middle" x="351" y="-64.45" font-family="Times,serif" font-size="14.00">(,ε→(</text>
</g>
<!-- step4 -->
<g id="node5" class="node">
<title>step4</title>
<polygon fill="#e6f7ff" stroke="black" points="508.75,-7.25 508.75,-115.25 563,-115.25 563,-7.25 508.75,-7.25"/>
<text xml:space="preserve" text-anchor="middle" x="535.88" y="-100.8" font-family="Times,serif" font-size="11.00">State: q₁</text>
<polyline fill="none" stroke="black" points="508.75,-93 563,-93"/>
<text xml:space="preserve" text-anchor="middle" x="535.88" y="-78.55" font-family="Times,serif" font-size="11.00">Input: )</text>
<polyline fill="none" stroke="black" points="508.75,-71.5 563,-71.5"/>
<text xml:space="preserve" text-anchor="middle" x="535.88" y="-57.05" font-family="Times,serif" font-size="11.00">Stack:</text>
<text xml:space="preserve" text-anchor="middle" x="535.88" y="-43.55" font-family="Times,serif" font-size="11.00">(</text>
<text xml:space="preserve" text-anchor="middle" x="535.88" y="-30.05" font-family="Times,serif" font-size="11.00">$</text>
<text xml:space="preserve" text-anchor="middle" x="535.88" y="-16.55" font-family="Times,serif" font-size="11.00">⊥</text>
</g>
<!-- step3&#45;&gt;step4 -->
<g id="edge4" class="edge">
<title>step3&#45;&gt;step4</title>
<path fill="none" stroke="black" d="M440.23,-61.25C456.9,-61.25 478.63,-61.25 497.06,-61.25"/>
<polygon fill="black" stroke="black" points="496.81,-64.75 506.81,-61.25 496.81,-57.75 496.81,-64.75"/>
<text xml:space="preserve" text-anchor="middle" x="474.25" y="-64.45" font-family="Times,serif" font-size="14.00">),(→ε</text>
</g>
<!-- step5 -->
<g id="node6" class="node">
<title>step5</title>
<polygon fill="#e6f7ff" stroke="black" points="632,-14 632,-108.5 686.25,-108.5 686.25,-14 632,-14"/>
<text xml:space="preserve" text-anchor="middle" x="659.12" y="-94.05" font-family="Times,serif" font-size="11.00">State: q₁</text>
<polyline fill="none" stroke="black" points="632,-86.25 686.25,-86.25"/>
<text xml:space="preserve" text-anchor="middle" x="659.12" y="-71.8" font-family="Times,serif" font-size="11.00">Input: ε</text>
<polyline fill="none" stroke="black" points="632,-64.75 686.25,-64.75"/>
<text xml:space="preserve" text-anchor="middle" x="659.12" y="-50.3" font-family="Times,serif" font-size="11.00">Stack:</text>
<text xml:space="preserve" text-anchor="middle" x="659.12" y="-36.8" font-family="Times,serif" font-size="11.00">$</text>
<text xml:space="preserve" text-anchor="middle" x="659.12" y="-23.3" font-family="Times,serif" font-size="11.00">⊥</text>
</g>
<!-- step4&#45;&gt;step5 -->
<g id="edge5" class="edge">
<title>step4&#45;&gt;step5</title>
<path fill="none" stroke="black" d="M563.48,-61.25C580.15,-61.25 601.88,-61.25 620.31,-61.25"/>
<polygon fill="black" stroke="black" points="620.06,-64.75 630.06,-61.25 620.06,-57.75 620.06,-64.75"/>
<text xml:space="preserve" text-anchor="middle" x="597.5" y="-64.45" font-family="Times,serif" font-size="14.00">),(→ε</text>
</g>
<!-- step6 -->
<g id="node7" class="node">
<title>step6</title>
<polygon fill="#f2fff2" stroke="black" points="759,-20.75 759,-101.75 813.25,-101.75 813.25,-20.75 759,-20.75"/>
<text xml:space="preserve" text-anchor="middle" x="786.12" y="-87.3" font-family="Times,serif" font-size="11.00">State: q₂</text>
<polyline fill="none" stroke="black" points="759,-79.5 813.25,-79.5"/>
<text xml:space="preserve" text-anchor="middle" x="786.12" y="-65.05" font-family="Times,serif" font-size="11.00">Input: ε</text>
<polyline fill="none" stroke="black" points="759,-58 813.25,-58"/>
<text xml:space="preserve" text-anchor="middle" x="786.12" y="-43.55" font-family="Times,serif" font-size="11.00">Stack:</text>
<text xml:space="preserve" text-anchor="middle" x="786.12" y="-30.05" font-family="Times,serif" font-size="11.00">⊥</text>
</g>
<!-- step5&#45;&gt;step6 -->
<g id="edge6" class="edge">
<title>step5&#45;&gt;step6</title>
<path fill="none" stroke="black" d="M686.63,-61.25C704.28,-61.25 727.74,-61.25 747.34,-61.25"/>
<polygon fill="black" stroke="black" points="747.14,-64.75 757.14,-61.25 747.14,-57.75 747.14,-64.75"/>
<text xml:space="preserve" text-anchor="middle" x="722.62" y="-64.45" font-family="Times,serif" font-size="14.00">ε,$→ε</text>
</g>
</g>
</svg>
