<?xml version="1.0" encoding="UTF-8" standalone="no"?>
<!DOCTYPE svg PUBLIC "-//W3C//DTD SVG 1.1//EN"
 "http://www.w3.org/Graphics/SVG/1.1/DTD/svg11.dtd">
<!-- Generated by graphviz version 14.0.2 (20251019.1705)
 -->
<!-- Title: FA16 Pages: 1 -->
<svg width="247pt" height="145pt"
 viewBox="0.00 0.00 247.00 145.00" xmlns="http://www.w3.org/2000/svg" xmlns:xlink="http://www.w3.org/1999/xlink">
<g id="graph0" class="graph" transform="scale(1 1) rotate(0) translate(4 141.01)">
<title>FA16</title>
<polygon fill="white" stroke="none" points="-4,4 -4,-141.01 242.75,-141.01 242.75,4 -4,4"/>
<!-- q0 -->
<g id="node1" class="node">
<title>q0</title>
<ellipse fill="#f9f9f9" stroke="black" cx="46.75" cy="-51.26" rx="46.75" ry="46.75"/>
<text xml:space="preserve" text-anchor="middle" x="46.75" y="-46.21" font-family="Arial" font-size="14.00">q₀ (Start)</text>
</g>
<!-- q0&#45;&gt;q0 -->
<g id="edge1" class="edge">
<title>q0&#45;&gt;q0</title>
<path fill="none" stroke="black" d="M34.17,-96.64C35.1,-107.74 39.29,-116 46.75,-116 51.4,-116 54.79,-112.77 56.9,-107.64"/>
<polygon fill="black" stroke="black" points="60.26,-108.64 58.99,-98.12 53.42,-107.13 60.26,-108.64"/>
<text xml:space="preserve" text-anchor="middle" x="46.75" y="-119.2" font-family="Times,serif" font-size="14.00">0</text>
</g>
<!-- q1 -->
<g id="node2" class="node">
<title>q1</title>
<ellipse fill="#f2f2f2" stroke="black" cx="187.5" cy="-51.26" rx="47.26" ry="47.26"/>
<ellipse fill="none" stroke="black" cx="187.5" cy="-51.26" rx="51.26" ry="51.26"/>
<text xml:space="preserve" text-anchor="middle" x="187.5" y="-46.21" font-family="Arial" font-size="14.00">q₁ (Final)</text>
</g>
<!-- q0&#45;&gt;q1 -->
<g id="edge2" class="edge">
<title>q0&#45;&gt;q1</title>
<path fill="none" stroke="black" d="M93.95,-51.26C103.91,-51.26 114.58,-51.26 125.02,-51.26"/>
<polygon fill="black" stroke="black" points="124.69,-54.76 134.69,-51.26 124.69,-47.76 124.69,-54.76"/>
<text xml:space="preserve" text-anchor="middle" x="114.87" y="-54.46" font-family="Times,serif" font-size="14.00">1</text>
</g>
<!-- q1&#45;&gt;q1 -->
<g id="edge3" class="edge">
<title>q1&#45;&gt;q1</title>
<path fill="none" stroke="black" d="M174.21,-101.06C175.41,-112.3 179.84,-120.51 187.5,-120.51 192.28,-120.51 195.81,-117.3 198.07,-112.15"/>
<polygon fill="black" stroke="black" points="201.45,-113.08 200.42,-102.53 194.65,-111.42 201.45,-113.08"/>
<text xml:space="preserve" text-anchor="middle" x="187.5" y="-123.71" font-family="Times,serif" font-size="14.00">1</text>
</g>
</g>
</svg>
