<?xml version="1.0" encoding="UTF-8" standalone="no"?>
<!DOCTYPE svg PUBLIC "-//W3C//DTD SVG 1.1//EN"
 "http://www.w3.org/Graphics/SVG/1.1/DTD/svg11.dtd">
<!-- Generated by graphviz version 14.0.2 (20251019.1705)
 -->
<!-- Title: EvenAsFA Pages: 1 -->
<svg width="316pt" height="165pt"
 viewBox="0.00 0.00 316.00 165.00" xmlns="http://www.w3.org/2000/svg" xmlns:xlink="http://www.w3.org/1999/xlink">
<g id="graph0" class="graph" transform="scale(1 1) rotate(0) translate(4 161.4)">
<title>EvenAsFA</title>
<polygon fill="white" stroke="none" points="-4,4 -4,-161.4 311.68,-161.4 311.68,4 -4,4"/>
<!-- q0 -->
<g id="node1" class="node">
<title>q0</title>
<ellipse fill="#ffffff" stroke="black" cx="102.05" cy="-61.45" rx="57.45" ry="57.45"/>
<ellipse fill="none" stroke="black" cx="102.05" cy="-61.45" rx="61.45" ry="61.45"/>
<text xml:space="preserve" text-anchor="middle" x="102.05" y="-70.65" font-family="Helvetica,sans-Serif" font-size="14.00">q₀</text>
<text xml:space="preserve" text-anchor="middle" x="102.05" y="-55.65" font-family="Helvetica,sans-Serif" font-size="14.00">(Even a’s)</text>
<text xml:space="preserve" text-anchor="middle" x="102.05" y="-40.65" font-family="Helvetica,sans-Serif" font-size="14.00">Start, Final</text>
</g>
<!-- q0&#45;&gt;q0 -->
<g id="edge4" class="edge">
<title>q0&#45;&gt;q0</title>
<path fill="none" stroke="black" d="M87.83,-121.74C89.58,-132.98 94.32,-140.9 102.05,-140.9 106.88,-140.9 110.55,-137.81 113.04,-132.74"/>
<polygon fill="black" stroke="black" points="116.39,-133.77 115.85,-123.19 109.67,-131.8 116.39,-133.77"/>
<text xml:space="preserve" text-anchor="middle" x="102.05" y="-144.1" font-family="Times,serif" font-size="14.00">b</text>
</g>
<!-- q1 -->
<g id="node2" class="node">
<title>q1</title>
<ellipse fill="#ffffff" stroke="black" cx="256.59" cy="-61.45" rx="51.09" ry="51.09"/>
<text xml:space="preserve" text-anchor="middle" x="256.59" y="-63.15" font-family="Helvetica,sans-Serif" font-size="14.00">q₁</text>
<text xml:space="preserve" text-anchor="middle" x="256.59" y="-48.15" font-family="Helvetica,sans-Serif" font-size="14.00">(Odd a’s)</text>
</g>
<!-- q0&#45;&gt;q1 -->
<g id="edge2" class="edge">
<title>q0&#45;&gt;q1</title>
<path fill="none" stroke="black" d="M163.78,-61.45C173.69,-61.45 183.97,-61.45 193.91,-61.45"/>
<polygon fill="black" stroke="black" points="193.86,-64.95 203.86,-61.45 193.86,-57.95 193.86,-64.95"/>
<text xml:space="preserve" text-anchor="middle" x="184.5" y="-64.65" font-family="Times,serif" font-size="14.00">a</text>
</g>
<!-- q1&#45;&gt;q0 -->
<g id="edge3" class="edge">
<title>q1&#45;&gt;q0</title>
<path fill="none" stroke="black" d="M208.01,-45.21C201.2,-43.45 194.22,-41.94 187.5,-40.95 182.28,-40.18 176.9,-40.01 171.51,-40.28"/>
<polygon fill="black" stroke="black" points="171.56,-36.75 161.98,-41.26 172.28,-43.72 171.56,-36.75"/>
<text xml:space="preserve" text-anchor="middle" x="184.5" y="-44.15" font-family="Times,serif" font-size="14.00">a</text>
</g>
<!-- q1&#45;&gt;q1 -->
<g id="edge5" class="edge">
<title>q1&#45;&gt;q1</title>
<path fill="none" stroke="black" d="M243.41,-111.14C244.59,-122.34 248.99,-130.54 256.59,-130.54 261.35,-130.54 264.84,-127.34 267.09,-122.2"/>
<polygon fill="black" stroke="black" points="270.46,-123.15 269.42,-112.61 263.66,-121.5 270.46,-123.15"/>
<text xml:space="preserve" text-anchor="middle" x="256.59" y="-133.74" font-family="Times,serif" font-size="14.00">b</text>
</g>
<!-- start -->
<g id="node3" class="node">
<title>start</title>
<ellipse fill="#ffffff" stroke="black" cx="1.8" cy="-61.45" rx="1.8" ry="1.8"/>
</g>
<!-- start&#45;&gt;q0 -->
<g id="edge1" class="edge">
<title>start&#45;&gt;q0</title>
<path fill="none" stroke="black" d="M3.9,-61.45C7.08,-61.45 16.82,-61.45 28.97,-61.45"/>
<polygon fill="black" stroke="black" points="28.66,-64.95 38.66,-61.45 28.66,-57.95 28.66,-64.95"/>
</g>
</g>
</svg>
