<?xml version="1.0" encoding="UTF-8" standalone="no"?>
<!DOCTYPE svg PUBLIC "-//W3C//DTD SVG 1.1//EN"
 "http://www.w3.org/Graphics/SVG/1.1/DTD/svg11.dtd">
<!-- Generated by graphviz version 14.0.2 (20251019.1705)
 -->
<!-- Title: G Pages: 1 -->
<svg width="114pt" height="214pt"
 viewBox="0.00 0.00 114.00 214.00" xmlns="http://www.w3.org/2000/svg" xmlns:xlink="http://www.w3.org/1999/xlink">
<g id="graph0" class="graph" transform="scale(1 1) rotate(0) translate(4 209.86)">
<title>G</title>
<polygon fill="white" stroke="none" points="-4,4 -4,-209.86 110.36,-209.86 110.36,4 -4,4"/>
<!-- S -->
<g id="node1" class="node">
<title>S</title>
<ellipse fill="#f9f9f9" stroke="black" cx="52.18" cy="-187.86" rx="18" ry="18"/>
<text xml:space="preserve" text-anchor="middle" x="52.18" y="-182.81" font-family="Times,serif" font-size="14.00">S</text>
</g>
<!-- X1 -->
<g id="node2" class="node">
<title>X1</title>
<ellipse fill="#f9f9f9" stroke="black" cx="22.18" cy="-95.18" rx="22.18" ry="22.18"/>
<text xml:space="preserve" text-anchor="middle" x="22.18" y="-90.13" font-family="Times,serif" font-size="14.00">X1</text>
</g>
<!-- S&#45;&gt;X1 -->
<g id="edge1" class="edge">
<title>S&#45;&gt;X1</title>
<path fill="none" stroke="black" d="M46.68,-170.22C42.69,-158.16 37.17,-141.5 32.39,-127.04"/>
<polygon fill="black" stroke="black" points="35.85,-126.35 29.38,-117.95 29.2,-128.54 35.85,-126.35"/>
<text xml:space="preserve" text-anchor="middle" x="41.74" y="-138.56" font-family="Times,serif" font-size="14.00"> </text>
</g>
<!-- X2 -->
<g id="node3" class="node">
<title>X2</title>
<ellipse fill="#f9f9f9" stroke="black" cx="84.18" cy="-95.18" rx="22.18" ry="22.18"/>
<text xml:space="preserve" text-anchor="middle" x="84.18" y="-90.13" font-family="Times,serif" font-size="14.00">X2</text>
</g>
<!-- S&#45;&gt;X2 -->
<g id="edge2" class="edge">
<title>S&#45;&gt;X2</title>
<path fill="none" stroke="black" d="M57.9,-170.65C62.17,-158.55 68.13,-141.65 73.3,-127.01"/>
<polygon fill="black" stroke="black" points="76.52,-128.4 76.55,-117.8 69.92,-126.07 76.52,-128.4"/>
<text xml:space="preserve" text-anchor="middle" x="71.97" y="-138.56" font-family="Times,serif" font-size="14.00"> </text>
</g>
<!-- a -->
<g id="node4" class="node">
<title>a</title>
<ellipse fill="#f9f9f9" stroke="black" cx="22.18" cy="-18" rx="18" ry="18"/>
<text xml:space="preserve" text-anchor="middle" x="22.18" y="-12.95" font-family="Times,serif" font-size="14.00">a</text>
</g>
<!-- X1&#45;&gt;a -->
<g id="edge3" class="edge">
<title>X1&#45;&gt;a</title>
<path fill="none" stroke="black" d="M22.18,-72.84C22.18,-64.93 22.18,-55.83 22.18,-47.4"/>
<polygon fill="black" stroke="black" points="25.68,-47.61 22.18,-37.61 18.68,-47.61 25.68,-47.61"/>
</g>
<!-- b -->
<g id="node5" class="node">
<title>b</title>
<ellipse fill="#f9f9f9" stroke="black" cx="84.18" cy="-18" rx="18" ry="18"/>
<text xml:space="preserve" text-anchor="middle" x="84.18" y="-12.95" font-family="Times,serif" font-size="14.00">b</text>
</g>
<!-- X2&#45;&gt;b -->
<g id="edge4" class="edge">
<title>X2&#45;&gt;b</title>
<path fill="none" stroke="black" d="M84.18,-72.84C84.18,-64.93 84.18,-55.83 84.18,-47.4"/>
<polygon fill="black" stroke="black" points="87.68,-47.61 84.18,-37.61 80.68,-47.61 87.68,-47.61"/>
</g>
</g>
</svg>
