<?xml version="1.0" encoding="UTF-8" standalone="no"?>
<!DOCTYPE svg PUBLIC "-//W3C//DTD SVG 1.1//EN"
 "http://www.w3.org/Graphics/SVG/1.1/DTD/svg11.dtd">
<!-- Generated by graphviz version 14.0.2 (20251019.1705)
 -->
<!-- Title: G Pages: 1 -->
<svg width="288pt" height="318pt"
 viewBox="0.00 0.00 288.00 318.00" xmlns="http://www.w3.org/2000/svg" xmlns:xlink="http://www.w3.org/1999/xlink">
<g id="graph0" class="graph" transform="scale(1 1) rotate(0) translate(4 314.05)">
<title>G</title>
<polygon fill="white" stroke="none" points="-4,4 -4,-314.05 284.24,-314.05 284.24,4 -4,4"/>
<!-- S -->
<g id="node1" class="node">
<title>S</title>
<ellipse fill="#f9f9f9" stroke="black" cx="104.62" cy="-292.05" rx="18" ry="18"/>
<text xml:space="preserve" text-anchor="middle" x="104.62" y="-287" font-family="Times,serif" font-size="14.00">S</text>
</g>
<!-- A -->
<g id="node2" class="node">
<title>A</title>
<ellipse fill="#f9f9f9" stroke="black" cx="76.62" cy="-200.9" rx="18" ry="18"/>
<text xml:space="preserve" text-anchor="middle" x="76.62" y="-195.85" font-family="Times,serif" font-size="14.00">A</text>
</g>
<!-- S&#45;&gt;A -->
<g id="edge1" class="edge">
<title>S&#45;&gt;A</title>
<path fill="none" stroke="black" d="M99.48,-274.7C95.48,-261.96 89.84,-244 85.16,-229.11"/>
<polygon fill="black" stroke="black" points="88.61,-228.39 82.27,-219.9 81.93,-230.49 88.61,-228.39"/>
</g>
<!-- Sp -->
<g id="node3" class="node">
<title>Sp</title>
<ellipse fill="#f9f9f9" stroke="black" cx="165.62" cy="-200.9" rx="20.64" ry="20.64"/>
<text xml:space="preserve" text-anchor="middle" x="165.62" y="-195.85" font-family="Times,serif" font-size="14.00">Sp</text>
</g>
<!-- S&#45;&gt;Sp -->
<g id="edge2" class="edge">
<title>S&#45;&gt;Sp</title>
<path fill="none" stroke="black" d="M114.42,-276.72C123.4,-263.6 136.91,-243.85 147.8,-227.94"/>
<polygon fill="black" stroke="black" points="150.57,-230.1 153.33,-219.87 144.79,-226.15 150.57,-230.1"/>
<text xml:space="preserve" text-anchor="middle" x="143.65" y="-242.75" font-family="Times,serif" font-size="14.00">S&#39;</text>
</g>
<!-- a1 -->
<g id="node4" class="node">
<title>a1</title>
<ellipse fill="#f9f9f9" stroke="black" cx="19.62" cy="-102.51" rx="19.62" ry="19.62"/>
<text xml:space="preserve" text-anchor="middle" x="19.62" y="-97.46" font-family="Times,serif" font-size="14.00">a1</text>
</g>
<!-- A&#45;&gt;a1 -->
<g id="edge3" class="edge">
<title>A&#45;&gt;a1</title>
<path fill="none" stroke="black" d="M67.71,-184.84C59.02,-170.15 45.62,-147.49 35.17,-129.81"/>
<polygon fill="black" stroke="black" points="38.29,-128.21 30.19,-121.38 32.27,-131.77 38.29,-128.21"/>
</g>
<!-- a2 -->
<g id="node5" class="node">
<title>a2</title>
<ellipse fill="#f9f9f9" stroke="black" cx="76.62" cy="-102.51" rx="19.62" ry="19.62"/>
<text xml:space="preserve" text-anchor="middle" x="76.62" y="-97.46" font-family="Times,serif" font-size="14.00">a2</text>
</g>
<!-- A&#45;&gt;a2 -->
<g id="edge4" class="edge">
<title>A&#45;&gt;a2</title>
<path fill="none" stroke="black" d="M76.62,-182.67C76.62,-169.08 76.62,-149.78 76.62,-133.64"/>
<polygon fill="black" stroke="black" points="80.12,-134.09 76.62,-124.09 73.12,-134.09 80.12,-134.09"/>
</g>
<!-- b1 -->
<g id="node6" class="node">
<title>b1</title>
<ellipse fill="#f9f9f9" stroke="black" cx="134.62" cy="-102.51" rx="20.13" ry="20.13"/>
<text xml:space="preserve" text-anchor="middle" x="134.62" y="-97.46" font-family="Times,serif" font-size="14.00">b1</text>
</g>
<!-- Sp&#45;&gt;b1 -->
<g id="edge5" class="edge">
<title>Sp&#45;&gt;b1</title>
<path fill="none" stroke="black" d="M159.49,-180.86C155.09,-167.17 149.08,-148.46 144.06,-132.87"/>
<polygon fill="black" stroke="black" points="147.48,-132.08 141.09,-123.63 140.82,-134.22 147.48,-132.08"/>
</g>
<!-- Sp2 -->
<g id="node7" class="node">
<title>Sp2</title>
<ellipse fill="#f9f9f9" stroke="black" cx="197.62" cy="-102.51" rx="25.25" ry="25.25"/>
<text xml:space="preserve" text-anchor="middle" x="197.62" y="-97.46" font-family="Times,serif" font-size="14.00">Sp2</text>
</g>
<!-- Sp&#45;&gt;Sp2 -->
<g id="edge6" class="edge">
<title>Sp&#45;&gt;Sp2</title>
<path fill="none" stroke="black" d="M171.94,-180.86C176.03,-168.53 181.48,-152.12 186.3,-137.59"/>
<polygon fill="black" stroke="black" points="189.53,-138.98 189.36,-128.38 182.89,-136.77 189.53,-138.98"/>
<text xml:space="preserve" text-anchor="middle" x="188.41" y="-148.96" font-family="Times,serif" font-size="14.00">S&#39;</text>
</g>
<!-- c1 -->
<g id="node8" class="node">
<title>c1</title>
<ellipse fill="#f9f9f9" stroke="black" cx="260.62" cy="-102.51" rx="19.62" ry="19.62"/>
<text xml:space="preserve" text-anchor="middle" x="260.62" y="-97.46" font-family="Times,serif" font-size="14.00">c1</text>
</g>
<!-- Sp&#45;&gt;c1 -->
<g id="edge7" class="edge">
<title>Sp&#45;&gt;c1</title>
<path fill="none" stroke="black" d="M179.64,-185.68C195.32,-169.77 220.91,-143.8 239.13,-125.32"/>
<polygon fill="black" stroke="black" points="241.57,-127.83 246.1,-118.25 236.58,-122.91 241.57,-127.83"/>
</g>
<!-- b2 -->
<g id="node9" class="node">
<title>b2</title>
<ellipse fill="#f9f9f9" stroke="black" cx="168.62" cy="-20.13" rx="20.13" ry="20.13"/>
<text xml:space="preserve" text-anchor="middle" x="168.62" y="-15.08" font-family="Times,serif" font-size="14.00">b2</text>
</g>
<!-- Sp2&#45;&gt;b2 -->
<g id="edge8" class="edge">
<title>Sp2&#45;&gt;b2</title>
<path fill="none" stroke="black" d="M189.23,-78.26C186.07,-69.49 182.43,-59.41 179.1,-50.18"/>
<polygon fill="black" stroke="black" points="182.44,-49.12 175.75,-40.91 175.86,-51.5 182.44,-49.12"/>
</g>
<!-- c2 -->
<g id="node10" class="node">
<title>c2</title>
<ellipse fill="#f9f9f9" stroke="black" cx="226.62" cy="-20.13" rx="19.62" ry="19.62"/>
<text xml:space="preserve" text-anchor="middle" x="226.62" y="-15.08" font-family="Times,serif" font-size="14.00">c2</text>
</g>
<!-- Sp2&#45;&gt;c2 -->
<g id="edge9" class="edge">
<title>Sp2&#45;&gt;c2</title>
<path fill="none" stroke="black" d="M206.01,-78.26C209.22,-69.36 212.92,-59.11 216.29,-49.76"/>
<polygon fill="black" stroke="black" points="219.57,-50.98 219.67,-40.39 212.99,-48.61 219.57,-50.98"/>
</g>
</g>
</svg>
