<?xml version="1.0" encoding="UTF-8" standalone="no"?>
<!DOCTYPE svg PUBLIC "-//W3C//DTD SVG 1.1//EN"
 "http://www.w3.org/Graphics/SVG/1.1/DTD/svg11.dtd">
<!-- Generated by graphviz version 14.0.2 (20251019.1705)
 -->
<!-- Title: StackReject_pal Pages: 1 -->
<svg width="787pt" height="90pt"
 viewBox="0.00 0.00 787.00 90.00" xmlns="http://www.w3.org/2000/svg" xmlns:xlink="http://www.w3.org/1999/xlink">
<g id="graph0" class="graph" transform="scale(1 1) rotate(0) translate(4 86)">
<title>StackReject_pal</title>
<polygon fill="white" stroke="none" points="-4,4 -4,-86 783.25,-86 783.25,4 -4,4"/>
<!-- p0 -->
<g id="node1" class="node">
<title>p0</title>
<polygon fill="#fff8f8" stroke="black" points="0,-9.88 0,-72.12 54,-72.12 54,-9.88 0,-9.88"/>
<text xml:space="preserve" text-anchor="middle" x="27" y="-58.62" font-family="Times,serif" font-size="10.00">q₀</text>
<polyline fill="none" stroke="black" points="0,-52.12 54,-52.12"/>
<text xml:space="preserve" text-anchor="middle" x="27" y="-38.62" font-family="Times,serif" font-size="10.00">abcda</text>
<polyline fill="none" stroke="black" points="0,-32.88 54,-32.88"/>
<text xml:space="preserve" text-anchor="middle" x="27" y="-19.38" font-family="Times,serif" font-size="10.00">⊥</text>
</g>
<!-- p1 -->
<g id="node2" class="node">
<title>p1</title>
<polygon fill="#e6f7ff" stroke="black" points="126.75,-11.75 126.75,-70.25 180.75,-70.25 180.75,-11.75 126.75,-11.75"/>
<text xml:space="preserve" text-anchor="middle" x="153.75" y="-56.75" font-family="Times,serif" font-size="10.00">q₁</text>
<polyline fill="none" stroke="black" points="126.75,-50.25 180.75,-50.25"/>
<text xml:space="preserve" text-anchor="middle" x="153.75" y="-36.75" font-family="Times,serif" font-size="10.00">abcda</text>
<polyline fill="none" stroke="black" points="126.75,-31 180.75,-31"/>
<text xml:space="preserve" text-anchor="middle" x="153.75" y="-17.5" font-family="Times,serif" font-size="10.00">$</text>
</g>
<!-- p0&#45;&gt;p1 -->
<g id="edge1" class="edge">
<title>p0&#45;&gt;p1</title>
<path fill="none" stroke="black" d="M54.46,-41C72.07,-41 95.48,-41 115.04,-41"/>
<polygon fill="black" stroke="black" points="114.82,-44.5 124.82,-41 114.82,-37.5 114.82,-44.5"/>
<text xml:space="preserve" text-anchor="middle" x="90.38" y="-44.2" font-family="Times,serif" font-size="14.00">ε,ε→$</text>
</g>
<!-- p2 -->
<g id="node3" class="node">
<title>p2</title>
<polygon fill="#e6f7ff" stroke="black" points="252.75,-6.12 252.75,-75.88 306.75,-75.88 306.75,-6.12 252.75,-6.12"/>
<text xml:space="preserve" text-anchor="middle" x="279.75" y="-62.38" font-family="Times,serif" font-size="10.00">q₁</text>
<polyline fill="none" stroke="black" points="252.75,-55.88 306.75,-55.88"/>
<text xml:space="preserve" text-anchor="middle" x="279.75" y="-42.38" font-family="Times,serif" font-size="10.00">bcda</text>
<polyline fill="none" stroke="black" points="252.75,-36.62 306.75,-36.62"/>
<text xml:space="preserve" text-anchor="middle" x="279.75" y="-23.12" font-family="Times,serif" font-size="10.00">a</text>
<text xml:space="preserve" text-anchor="middle" x="279.75" y="-11.88" font-family="Times,serif" font-size="10.00">$</text>
</g>
<!-- p1&#45;&gt;p2 -->
<g id="edge2" class="edge">
<title>p1&#45;&gt;p2</title>
<path fill="none" stroke="black" d="M181.05,-41C198.47,-41 221.61,-41 240.99,-41"/>
<polygon fill="black" stroke="black" points="240.98,-44.5 250.98,-41 240.98,-37.5 240.98,-44.5"/>
<text xml:space="preserve" text-anchor="middle" x="216.75" y="-44.2" font-family="Times,serif" font-size="14.00">a,ε→a</text>
</g>
<!-- p3 -->
<g id="node4" class="node">
<title>p3</title>
<polygon fill="#e6f7ff" stroke="black" points="386.25,-0.5 386.25,-81.5 440.25,-81.5 440.25,-0.5 386.25,-0.5"/>
<text xml:space="preserve" text-anchor="middle" x="413.25" y="-68" font-family="Times,serif" font-size="10.00">q₁</text>
<polyline fill="none" stroke="black" points="386.25,-61.5 440.25,-61.5"/>
<text xml:space="preserve" text-anchor="middle" x="413.25" y="-48" font-family="Times,serif" font-size="10.00">cda</text>
<polyline fill="none" stroke="black" points="386.25,-42.25 440.25,-42.25"/>
<text xml:space="preserve" text-anchor="middle" x="413.25" y="-28.75" font-family="Times,serif" font-size="10.00">b</text>
<text xml:space="preserve" text-anchor="middle" x="413.25" y="-17.5" font-family="Times,serif" font-size="10.00">a</text>
<text xml:space="preserve" text-anchor="middle" x="413.25" y="-6.25" font-family="Times,serif" font-size="10.00">$</text>
</g>
<!-- p2&#45;&gt;p3 -->
<g id="edge3" class="edge">
<title>p2&#45;&gt;p3</title>
<path fill="none" stroke="black" d="M307.04,-41C326.4,-41 352.98,-41 374.59,-41"/>
<polygon fill="black" stroke="black" points="374.49,-44.5 384.49,-41 374.49,-37.5 374.49,-44.5"/>
<text xml:space="preserve" text-anchor="middle" x="346.5" y="-44.2" font-family="Times,serif" font-size="14.00">b,a→ba</text>
</g>
<!-- p4 -->
<g id="node5" class="node">
<title>p4</title>
<polygon fill="#fffbe6" stroke="black" points="513.75,-0.5 513.75,-81.5 567.75,-81.5 567.75,-0.5 513.75,-0.5"/>
<text xml:space="preserve" text-anchor="middle" x="540.75" y="-68" font-family="Times,serif" font-size="10.00">q₂</text>
<polyline fill="none" stroke="black" points="513.75,-61.5 567.75,-61.5"/>
<text xml:space="preserve" text-anchor="middle" x="540.75" y="-48" font-family="Times,serif" font-size="10.00">da</text>
<polyline fill="none" stroke="black" points="513.75,-42.25 567.75,-42.25"/>
<text xml:space="preserve" text-anchor="middle" x="540.75" y="-28.75" font-family="Times,serif" font-size="10.00">b</text>
<text xml:space="preserve" text-anchor="middle" x="540.75" y="-17.5" font-family="Times,serif" font-size="10.00">a</text>
<text xml:space="preserve" text-anchor="middle" x="540.75" y="-6.25" font-family="Times,serif" font-size="10.00">$</text>
</g>
<!-- p3&#45;&gt;p4 -->
<g id="edge4" class="edge">
<title>p3&#45;&gt;p4</title>
<path fill="none" stroke="black" d="M440.56,-41C458.38,-41 482.2,-41 502.03,-41"/>
<polygon fill="black" stroke="black" points="501.96,-44.5 511.96,-41 501.96,-37.5 501.96,-44.5"/>
<text xml:space="preserve" text-anchor="middle" x="477" y="-44.2" font-family="Times,serif" font-size="14.00">c,b→b</text>
</g>
<!-- p5 -->
<g id="node6" class="node">
<title>p5</title>
<polygon fill="#ffcccc" stroke="black" points="725.25,-0.88 725.25,-81.12 779.25,-81.12 779.25,-0.88 725.25,-0.88"/>
<text xml:space="preserve" text-anchor="middle" x="752.25" y="-67.62" font-family="Times,serif" font-size="10.00">STUCK</text>
<polyline fill="none" stroke="black" points="725.25,-61.88 779.25,-61.88"/>
<text xml:space="preserve" text-anchor="middle" x="752.25" y="-48.38" font-family="Times,serif" font-size="10.00">—</text>
<polyline fill="none" stroke="black" points="725.25,-42.62 779.25,-42.62"/>
<text xml:space="preserve" text-anchor="middle" x="752.25" y="-29.12" font-family="Times,serif" font-size="10.00">b</text>
<text xml:space="preserve" text-anchor="middle" x="752.25" y="-17.88" font-family="Times,serif" font-size="10.00">a</text>
<text xml:space="preserve" text-anchor="middle" x="752.25" y="-6.62" font-family="Times,serif" font-size="10.00">$</text>
</g>
<!-- p4&#45;&gt;p5 -->
<g id="edge5" class="edge">
<title>p4&#45;&gt;p5</title>
<path fill="none" stroke="black" d="M567.86,-41C604.48,-41 671.31,-41 713.39,-41"/>
<polygon fill="black" stroke="black" points="713.3,-44.5 723.3,-41 713.3,-37.5 713.3,-44.5"/>
<text xml:space="preserve" text-anchor="middle" x="646.5" y="-46.45" font-family="Times,serif" font-size="14.00">❌ NO TRANSITION</text>
</g>
</g>
</svg>
