<?xml version="1.0" encoding="UTF-8" standalone="no"?>
<!DOCTYPE svg PUBLIC "-//W3C//DTD SVG 1.1//EN"
 "http://www.w3.org/Graphics/SVG/1.1/DTD/svg11.dtd">
<!-- Generated by graphviz version 14.0.2 (20251019.1705)
 -->
<!-- Title: PDA_equal Pages: 1 -->
<svg width="391pt" height="220pt"
 viewBox="0.00 0.00 391.00 220.00" xmlns="http://www.w3.org/2000/svg" xmlns:xlink="http://www.w3.org/1999/xlink">
<g id="graph0" class="graph" transform="scale(1 1) rotate(0) translate(4 216.01)">
<title>PDA_equal</title>
<polygon fill="white" stroke="none" points="-4,4 -4,-216.01 386.83,-216.01 386.83,4 -4,4"/>
<!-- q0 -->
<g id="node1" class="node">
<title>q0</title>
<ellipse fill="#fff8f8" stroke="#7b1113" cx="30.41" cy="-41.3" rx="30.41" ry="30.41"/>
<text xml:space="preserve" text-anchor="middle" x="30.41" y="-44.72" font-family="Times,serif" font-size="11.00">q₀</text>
<text xml:space="preserve" text-anchor="middle" x="30.41" y="-30.47" font-family="Times,serif" font-size="11.00">(start)</text>
</g>
<!-- q1 -->
<g id="node2" class="node">
<title>q1</title>
<ellipse fill="#f8f8f8" stroke="#7b1113" cx="180.52" cy="-41.3" rx="35.71" ry="35.71"/>
<text xml:space="preserve" text-anchor="middle" x="180.52" y="-44.72" font-family="Times,serif" font-size="11.00">q₁</text>
<text xml:space="preserve" text-anchor="middle" x="180.52" y="-30.47" font-family="Times,serif" font-size="11.00">balance</text>
</g>
<!-- q0&#45;&gt;q1 -->
<g id="edge1" class="edge">
<title>q0&#45;&gt;q1</title>
<path fill="none" stroke="black" d="M61.02,-41.3C81.61,-41.3 109.46,-41.3 132.98,-41.3"/>
<polygon fill="black" stroke="black" points="132.97,-44.8 142.97,-41.3 132.97,-37.8 132.97,-44.8"/>
<text xml:space="preserve" text-anchor="middle" x="102.81" y="-44.5" font-family="Times,serif" font-size="14.00">ε, ε → $</text>
</g>
<!-- q1&#45;&gt;q1 -->
<g id="edge2" class="edge">
<title>q1&#45;&gt;q1</title>
<path fill="none" stroke="black" d="M173.26,-76.68C173.51,-87.01 175.93,-95.01 180.52,-95.01 183.17,-95.01 185.1,-92.34 186.31,-88.08"/>
<polygon fill="black" stroke="black" points="189.78,-88.55 187.59,-78.18 182.83,-87.65 189.78,-88.55"/>
<text xml:space="preserve" text-anchor="middle" x="180.52" y="-131.21" font-family="Times,serif" font-size="14.00">a, $ → A$</text>
<text xml:space="preserve" text-anchor="middle" x="180.52" y="-114.71" font-family="Times,serif" font-size="14.00">a, A → AA</text>
<text xml:space="preserve" text-anchor="middle" x="180.52" y="-98.21" font-family="Times,serif" font-size="14.00">a, B → ε</text>
</g>
<!-- q1&#45;&gt;q1 -->
<g id="edge3" class="edge">
<title>q1&#45;&gt;q1</title>
<path fill="none" stroke="black" d="M168.08,-75.3C162.94,-106.6 167.09,-144.51 180.52,-144.51 192.38,-144.51 197,-114.96 194.38,-86.5"/>
<polygon fill="black" stroke="black" points="197.88,-86.28 193.15,-76.8 190.94,-87.16 197.88,-86.28"/>
<text xml:space="preserve" text-anchor="middle" x="180.52" y="-180.71" font-family="Times,serif" font-size="14.00">b, $ → B$</text>
<text xml:space="preserve" text-anchor="middle" x="180.52" y="-164.21" font-family="Times,serif" font-size="14.00">b, B → BB</text>
<text xml:space="preserve" text-anchor="middle" x="180.52" y="-147.71" font-family="Times,serif" font-size="14.00">b, A → ε</text>
</g>
<!-- q2 -->
<g id="node3" class="node">
<title>q2</title>
<ellipse fill="#f2fff2" stroke="#7b1113" cx="341.53" cy="-41.3" rx="37.3" ry="37.3"/>
<ellipse fill="none" stroke="#7b1113" cx="341.53" cy="-41.3" rx="41.3" ry="41.3"/>
<text xml:space="preserve" text-anchor="middle" x="341.53" y="-44.72" font-family="Times,serif" font-size="11.00">q₂</text>
<text xml:space="preserve" text-anchor="middle" x="341.53" y="-30.47" font-family="Times,serif" font-size="11.00">(accept)</text>
</g>
<!-- q1&#45;&gt;q2 -->
<g id="edge4" class="edge">
<title>q1&#45;&gt;q2</title>
<path fill="none" stroke="black" d="M216.42,-41.3C237.55,-41.3 264.9,-41.3 288.55,-41.3"/>
<polygon fill="black" stroke="black" points="288.3,-44.8 298.3,-41.3 288.3,-37.8 288.3,-44.8"/>
<text xml:space="preserve" text-anchor="middle" x="258.23" y="-44.5" font-family="Times,serif" font-size="14.00">ε, $ → ε</text>
</g>
</g>
</svg>
