<?xml version="1.0" encoding="UTF-8" standalone="no"?>
<!DOCTYPE svg PUBLIC "-//W3C//DTD SVG 1.1//EN"
 "http://www.w3.org/Graphics/SVG/1.1/DTD/svg11.dtd">
<!-- Generated by graphviz version 14.0.2 (20251019.1705)
 -->
<!-- Title: G Pages: 1 -->
<svg width="178pt" height="231pt"
 viewBox="0.00 0.00 178.00 231.00" xmlns="http://www.w3.org/2000/svg" xmlns:xlink="http://www.w3.org/1999/xlink">
<g id="graph0" class="graph" transform="scale(1 1) rotate(0) translate(4 226.55)">
<title>G</title>
<polygon fill="white" stroke="none" points="-4,4 -4,-226.55 174.26,-226.55 174.26,4 -4,4"/>
<!-- S1 -->
<g id="node1" class="node">
<title>S1</title>
<ellipse fill="#f9f9f9" stroke="black" cx="85.13" cy="-204.55" rx="18" ry="18"/>
<text xml:space="preserve" text-anchor="middle" x="85.13" y="-199.5" font-family="Times,serif" font-size="14.00">S</text>
</g>
<!-- a1 -->
<g id="node2" class="node">
<title>a1</title>
<ellipse fill="#f9f9f9" stroke="black" cx="27.13" cy="-113.41" rx="19.62" ry="19.62"/>
<text xml:space="preserve" text-anchor="middle" x="27.13" y="-108.36" font-family="Times,serif" font-size="14.00">a1</text>
</g>
<!-- S1&#45;&gt;a1 -->
<g id="edge1" class="edge">
<title>S1&#45;&gt;a1</title>
<path fill="none" stroke="black" d="M75.55,-188.83C66.87,-175.48 53.88,-155.51 43.54,-139.62"/>
<polygon fill="black" stroke="black" points="46.72,-138.09 38.33,-131.62 40.85,-141.91 46.72,-138.09"/>
<text xml:space="preserve" text-anchor="middle" x="64.33" y="-155.25" font-family="Times,serif" font-size="14.00">a</text>
</g>
<!-- S2 -->
<g id="node3" class="node">
<title>S2</title>
<ellipse fill="#f9f9f9" stroke="black" cx="85.13" cy="-113.41" rx="20.64" ry="20.64"/>
<text xml:space="preserve" text-anchor="middle" x="85.13" y="-108.36" font-family="Times,serif" font-size="14.00">S2</text>
</g>
<!-- S1&#45;&gt;S2 -->
<g id="edge2" class="edge">
<title>S1&#45;&gt;S2</title>
<path fill="none" stroke="black" d="M85.13,-186.36C85.13,-174.86 85.13,-159.38 85.13,-145.72"/>
<polygon fill="black" stroke="black" points="88.63,-145.85 85.13,-135.85 81.63,-145.85 88.63,-145.85"/>
<text xml:space="preserve" text-anchor="middle" x="88.88" y="-155.25" font-family="Times,serif" font-size="14.00">S</text>
</g>
<!-- a2 -->
<g id="node4" class="node">
<title>a2</title>
<ellipse fill="#f9f9f9" stroke="black" cx="143.13" cy="-113.41" rx="19.62" ry="19.62"/>
<text xml:space="preserve" text-anchor="middle" x="143.13" y="-108.36" font-family="Times,serif" font-size="14.00">a2</text>
</g>
<!-- S1&#45;&gt;a2 -->
<g id="edge3" class="edge">
<title>S1&#45;&gt;a2</title>
<path fill="none" stroke="black" d="M94.71,-188.83C103.39,-175.48 116.38,-155.51 126.72,-139.62"/>
<polygon fill="black" stroke="black" points="129.41,-141.91 131.93,-131.62 123.54,-138.09 129.41,-141.91"/>
<text xml:space="preserve" text-anchor="middle" x="120.6" y="-155.25" font-family="Times,serif" font-size="14.00">a</text>
</g>
<!-- b1 -->
<g id="node5" class="node">
<title>b1</title>
<ellipse fill="#f9f9f9" stroke="black" cx="20.13" cy="-20.13" rx="20.13" ry="20.13"/>
<text xml:space="preserve" text-anchor="middle" x="20.13" y="-15.08" font-family="Times,serif" font-size="14.00">b1</text>
</g>
<!-- S2&#45;&gt;b1 -->
<g id="edge4" class="edge">
<title>S2&#45;&gt;b1</title>
<path fill="none" stroke="black" d="M73.51,-96.09C63.65,-82.24 49.35,-62.16 38.03,-46.26"/>
<polygon fill="black" stroke="black" points="40.96,-44.35 32.31,-38.24 35.26,-48.41 40.96,-44.35"/>
<text xml:space="preserve" text-anchor="middle" x="59.9" y="-61.46" font-family="Times,serif" font-size="14.00">b</text>
</g>
<!-- eps -->
<g id="node6" class="node">
<title>eps</title>
<polygon fill="#f9f9f9" stroke="none" points="112.13,-38.13 58.13,-38.13 58.13,-2.13 112.13,-2.13 112.13,-38.13"/>
<text xml:space="preserve" text-anchor="middle" x="85.13" y="-15.08" font-family="Times,serif" font-size="14.00">ε</text>
</g>
<!-- S2&#45;&gt;eps -->
<g id="edge5" class="edge">
<title>S2&#45;&gt;eps</title>
<path fill="none" stroke="black" d="M85.13,-92.6C85.13,-79.95 85.13,-63.35 85.13,-49.33"/>
<polygon fill="black" stroke="black" points="88.63,-49.35 85.13,-39.35 81.63,-49.35 88.63,-49.35"/>
<text xml:space="preserve" text-anchor="middle" x="88.13" y="-61.46" font-family="Times,serif" font-size="14.00">ε</text>
</g>
<!-- b2 -->
<g id="node7" class="node">
<title>b2</title>
<ellipse fill="#f9f9f9" stroke="black" cx="150.13" cy="-20.13" rx="20.13" ry="20.13"/>
<text xml:space="preserve" text-anchor="middle" x="150.13" y="-15.08" font-family="Times,serif" font-size="14.00">b2</text>
</g>
<!-- S2&#45;&gt;b2 -->
<g id="edge6" class="edge">
<title>S2&#45;&gt;b2</title>
<path fill="none" stroke="black" d="M96.75,-96.09C106.61,-82.24 120.91,-62.16 132.23,-46.26"/>
<polygon fill="black" stroke="black" points="135,-48.41 137.95,-38.24 129.3,-44.35 135,-48.41"/>
<text xml:space="preserve" text-anchor="middle" x="126.83" y="-61.46" font-family="Times,serif" font-size="14.00">b</text>
</g>
</g>
</svg>
