<?xml version="1.0" encoding="UTF-8" standalone="no"?>
<!DOCTYPE svg PUBLIC "-//W3C//DTD SVG 1.1//EN"
 "http://www.w3.org/Graphics/SVG/1.1/DTD/svg11.dtd">
<!-- Generated by graphviz version 14.0.2 (20251019.1705)
 -->
<!-- Title: StackTrace_palindrome Pages: 1 -->
<svg width="956pt" height="90pt"
 viewBox="0.00 0.00 956.00 90.00" xmlns="http://www.w3.org/2000/svg" xmlns:xlink="http://www.w3.org/1999/xlink">
<g id="graph0" class="graph" transform="scale(1 1) rotate(0) translate(4 86)">
<title>StackTrace_palindrome</title>
<polygon fill="white" stroke="none" points="-4,4 -4,-86 952,-86 952,4 -4,4"/>
<!-- p0 -->
<g id="node1" class="node">
<title>p0</title>
<polygon fill="#fff8f8" stroke="black" points="0,-9.88 0,-72.12 54,-72.12 54,-9.88 0,-9.88"/>
<text xml:space="preserve" text-anchor="middle" x="27" y="-58.62" font-family="Times,serif" font-size="10.00">q₀</text>
<polyline fill="none" stroke="black" points="0,-52.12 54,-52.12"/>
<text xml:space="preserve" text-anchor="middle" x="27" y="-38.62" font-family="Times,serif" font-size="10.00">abcba</text>
<polyline fill="none" stroke="black" points="0,-32.88 54,-32.88"/>
<text xml:space="preserve" text-anchor="middle" x="27" y="-19.38" font-family="Times,serif" font-size="10.00">⊥</text>
</g>
<!-- p1 -->
<g id="node2" class="node">
<title>p1</title>
<polygon fill="#e6f7ff" stroke="black" points="126.75,-11.75 126.75,-70.25 180.75,-70.25 180.75,-11.75 126.75,-11.75"/>
<text xml:space="preserve" text-anchor="middle" x="153.75" y="-56.75" font-family="Times,serif" font-size="10.00">q₁</text>
<polyline fill="none" stroke="black" points="126.75,-50.25 180.75,-50.25"/>
<text xml:space="preserve" text-anchor="middle" x="153.75" y="-36.75" font-family="Times,serif" font-size="10.00">abcba</text>
<polyline fill="none" stroke="black" points="126.75,-31 180.75,-31"/>
<text xml:space="preserve" text-anchor="middle" x="153.75" y="-17.5" font-family="Times,serif" font-size="10.00">$</text>
</g>
<!-- p0&#45;&gt;p1 -->
<g id="edge1" class="edge">
<title>p0&#45;&gt;p1</title>
<path fill="none" stroke="black" d="M54.46,-41C72.07,-41 95.48,-41 115.04,-41"/>
<polygon fill="black" stroke="black" points="114.82,-44.5 124.82,-41 114.82,-37.5 114.82,-44.5"/>
<text xml:space="preserve" text-anchor="middle" x="90.38" y="-44.2" font-family="Times,serif" font-size="14.00">ε,ε→$</text>
</g>
<!-- p2 -->
<g id="node3" class="node">
<title>p2</title>
<polygon fill="#e6f7ff" stroke="black" points="252.75,-6.12 252.75,-75.88 306.75,-75.88 306.75,-6.12 252.75,-6.12"/>
<text xml:space="preserve" text-anchor="middle" x="279.75" y="-62.38" font-family="Times,serif" font-size="10.00">q₁</text>
<polyline fill="none" stroke="black" points="252.75,-55.88 306.75,-55.88"/>
<text xml:space="preserve" text-anchor="middle" x="279.75" y="-42.38" font-family="Times,serif" font-size="10.00">bcba</text>
<polyline fill="none" stroke="black" points="252.75,-36.62 306.75,-36.62"/>
<text xml:space="preserve" text-anchor="middle" x="279.75" y="-23.12" font-family="Times,serif" font-size="10.00">a</text>
<text xml:space="preserve" text-anchor="middle" x="279.75" y="-11.88" font-family="Times,serif" font-size="10.00">$</text>
</g>
<!-- p1&#45;&gt;p2 -->
<g id="edge2" class="edge">
<title>p1&#45;&gt;p2</title>
<path fill="none" stroke="black" d="M181.05,-41C198.47,-41 221.61,-41 240.99,-41"/>
<polygon fill="black" stroke="black" points="240.98,-44.5 250.98,-41 240.98,-37.5 240.98,-44.5"/>
<text xml:space="preserve" text-anchor="middle" x="216.75" y="-44.2" font-family="Times,serif" font-size="14.00">a,ε→a</text>
</g>
<!-- p3 -->
<g id="node4" class="node">
<title>p3</title>
<polygon fill="#e6f7ff" stroke="black" points="386.25,-0.5 386.25,-81.5 440.25,-81.5 440.25,-0.5 386.25,-0.5"/>
<text xml:space="preserve" text-anchor="middle" x="413.25" y="-68" font-family="Times,serif" font-size="10.00">q₁</text>
<polyline fill="none" stroke="black" points="386.25,-61.5 440.25,-61.5"/>
<text xml:space="preserve" text-anchor="middle" x="413.25" y="-48" font-family="Times,serif" font-size="10.00">cba</text>
<polyline fill="none" stroke="black" points="386.25,-42.25 440.25,-42.25"/>
<text xml:space="preserve" text-anchor="middle" x="413.25" y="-28.75" font-family="Times,serif" font-size="10.00">b</text>
<text xml:space="preserve" text-anchor="middle" x="413.25" y="-17.5" font-family="Times,serif" font-size="10.00">a</text>
<text xml:space="preserve" text-anchor="middle" x="413.25" y="-6.25" font-family="Times,serif" font-size="10.00">$</text>
</g>
<!-- p2&#45;&gt;p3 -->
<g id="edge3" class="edge">
<title>p2&#45;&gt;p3</title>
<path fill="none" stroke="black" d="M307.04,-41C326.4,-41 352.98,-41 374.59,-41"/>
<polygon fill="black" stroke="black" points="374.49,-44.5 384.49,-41 374.49,-37.5 374.49,-44.5"/>
<text xml:space="preserve" text-anchor="middle" x="346.5" y="-44.2" font-family="Times,serif" font-size="14.00">b,a→ba</text>
</g>
<!-- p4 -->
<g id="node5" class="node">
<title>p4</title>
<polygon fill="#fffbe6" stroke="black" points="513.75,-0.5 513.75,-81.5 567.75,-81.5 567.75,-0.5 513.75,-0.5"/>
<text xml:space="preserve" text-anchor="middle" x="540.75" y="-68" font-family="Times,serif" font-size="10.00">q₂</text>
<polyline fill="none" stroke="black" points="513.75,-61.5 567.75,-61.5"/>
<text xml:space="preserve" text-anchor="middle" x="540.75" y="-48" font-family="Times,serif" font-size="10.00">ba</text>
<polyline fill="none" stroke="black" points="513.75,-42.25 567.75,-42.25"/>
<text xml:space="preserve" text-anchor="middle" x="540.75" y="-28.75" font-family="Times,serif" font-size="10.00">b</text>
<text xml:space="preserve" text-anchor="middle" x="540.75" y="-17.5" font-family="Times,serif" font-size="10.00">a</text>
<text xml:space="preserve" text-anchor="middle" x="540.75" y="-6.25" font-family="Times,serif" font-size="10.00">$</text>
</g>
<!-- p3&#45;&gt;p4 -->
<g id="edge4" class="edge">
<title>p3&#45;&gt;p4</title>
<path fill="none" stroke="black" d="M440.56,-41C458.38,-41 482.2,-41 502.03,-41"/>
<polygon fill="black" stroke="black" points="501.96,-44.5 511.96,-41 501.96,-37.5 501.96,-44.5"/>
<text xml:space="preserve" text-anchor="middle" x="477" y="-44.2" font-family="Times,serif" font-size="14.00">c,b→b</text>
</g>
<!-- p5 -->
<g id="node6" class="node">
<title>p5</title>
<polygon fill="#fffbe6" stroke="black" points="641.25,-6.12 641.25,-75.88 695.25,-75.88 695.25,-6.12 641.25,-6.12"/>
<text xml:space="preserve" text-anchor="middle" x="668.25" y="-62.38" font-family="Times,serif" font-size="10.00">q₂</text>
<polyline fill="none" stroke="black" points="641.25,-55.88 695.25,-55.88"/>
<text xml:space="preserve" text-anchor="middle" x="668.25" y="-42.38" font-family="Times,serif" font-size="10.00">a</text>
<polyline fill="none" stroke="black" points="641.25,-36.62 695.25,-36.62"/>
<text xml:space="preserve" text-anchor="middle" x="668.25" y="-23.12" font-family="Times,serif" font-size="10.00">a</text>
<text xml:space="preserve" text-anchor="middle" x="668.25" y="-11.88" font-family="Times,serif" font-size="10.00">$</text>
</g>
<!-- p4&#45;&gt;p5 -->
<g id="edge5" class="edge">
<title>p4&#45;&gt;p5</title>
<path fill="none" stroke="black" d="M568.06,-41C585.88,-41 609.7,-41 629.53,-41"/>
<polygon fill="black" stroke="black" points="629.46,-44.5 639.46,-41 629.46,-37.5 629.46,-44.5"/>
<text xml:space="preserve" text-anchor="middle" x="604.5" y="-44.2" font-family="Times,serif" font-size="14.00">b,b→ε</text>
</g>
<!-- p6 -->
<g id="node7" class="node">
<title>p6</title>
<polygon fill="#fffbe6" stroke="black" points="767.25,-11.75 767.25,-70.25 821.25,-70.25 821.25,-11.75 767.25,-11.75"/>
<text xml:space="preserve" text-anchor="middle" x="794.25" y="-56.75" font-family="Times,serif" font-size="10.00">q₂</text>
<polyline fill="none" stroke="black" points="767.25,-50.25 821.25,-50.25"/>
<text xml:space="preserve" text-anchor="middle" x="794.25" y="-36.75" font-family="Times,serif" font-size="10.00">ε</text>
<polyline fill="none" stroke="black" points="767.25,-31 821.25,-31"/>
<text xml:space="preserve" text-anchor="middle" x="794.25" y="-17.5" font-family="Times,serif" font-size="10.00">$</text>
</g>
<!-- p5&#45;&gt;p6 -->
<g id="edge6" class="edge">
<title>p5&#45;&gt;p6</title>
<path fill="none" stroke="black" d="M695.55,-41C712.97,-41 736.11,-41 755.49,-41"/>
<polygon fill="black" stroke="black" points="755.48,-44.5 765.48,-41 755.48,-37.5 755.48,-44.5"/>
<text xml:space="preserve" text-anchor="middle" x="731.25" y="-44.2" font-family="Times,serif" font-size="14.00">a,a→ε</text>
</g>
<!-- p7 -->
<g id="node8" class="node">
<title>p7</title>
<polygon fill="#f2fff2" stroke="black" points="894,-9.88 894,-72.12 948,-72.12 948,-9.88 894,-9.88"/>
<text xml:space="preserve" text-anchor="middle" x="921" y="-58.62" font-family="Times,serif" font-size="10.00">q₃</text>
<polyline fill="none" stroke="black" points="894,-52.12 948,-52.12"/>
<text xml:space="preserve" text-anchor="middle" x="921" y="-38.62" font-family="Times,serif" font-size="10.00">ε</text>
<polyline fill="none" stroke="black" points="894,-32.88 948,-32.88"/>
<text xml:space="preserve" text-anchor="middle" x="921" y="-19.38" font-family="Times,serif" font-size="10.00">⊥</text>
</g>
<!-- p6&#45;&gt;p7 -->
<g id="edge7" class="edge">
<title>p6&#45;&gt;p7</title>
<path fill="none" stroke="black" d="M821.71,-41C839.32,-41 862.73,-41 882.29,-41"/>
<polygon fill="black" stroke="black" points="882.07,-44.5 892.07,-41 882.07,-37.5 882.07,-44.5"/>
<text xml:space="preserve" text-anchor="middle" x="857.62" y="-44.2" font-family="Times,serif" font-size="14.00">ε,$→ε</text>
</g>
</g>
</svg>
