<?xml version="1.0" encoding="UTF-8" standalone="no"?>
<!DOCTYPE svg PUBLIC "-//W3C//DTD SVG 1.1//EN"
 "http://www.w3.org/Graphics/SVG/1.1/DTD/svg11.dtd">
<!-- Generated by graphviz version 14.0.2 (20251019.1705)
 -->
<!-- Title: Q3 Pages: 1 -->
<svg width="229pt" height="387pt"
 viewBox="0.00 0.00 229.00 387.00" xmlns="http://www.w3.org/2000/svg" xmlns:xlink="http://www.w3.org/1999/xlink">
<g id="graph0" class="graph" transform="scale(1 1) rotate(0) translate(4 382.95)">
<title>Q3</title>
<polygon fill="white" stroke="none" points="-4,4 -4,-382.95 225.29,-382.95 225.29,4 -4,4"/>
<!-- S -->
<g id="node1" class="node">
<title>S</title>
<ellipse fill="#f9f9f9" stroke="black" cx="108.62" cy="-360.95" rx="18" ry="18"/>
<text xml:space="preserve" text-anchor="middle" x="108.62" y="-355.9" font-family="Times,serif" font-size="14.00">S</text>
</g>
<!-- A -->
<g id="node2" class="node">
<title>A</title>
<ellipse fill="#f9f9f9" stroke="black" cx="79.62" cy="-287.95" rx="18" ry="18"/>
<text xml:space="preserve" text-anchor="middle" x="79.62" y="-282.9" font-family="Times,serif" font-size="14.00">A</text>
</g>
<!-- S&#45;&gt;A -->
<g id="edge1" class="edge">
<title>S&#45;&gt;A</title>
<path fill="none" stroke="black" d="M102.04,-343.84C98.63,-335.49 94.37,-325.07 90.49,-315.56"/>
<polygon fill="black" stroke="black" points="93.77,-314.33 86.75,-306.4 87.29,-316.98 93.77,-314.33"/>
</g>
<!-- B -->
<g id="node3" class="node">
<title>B</title>
<ellipse fill="#f9f9f9" stroke="black" cx="139.62" cy="-287.95" rx="18" ry="18"/>
<text xml:space="preserve" text-anchor="middle" x="139.62" y="-282.9" font-family="Times,serif" font-size="14.00">B</text>
</g>
<!-- S&#45;&gt;B -->
<g id="edge2" class="edge">
<title>S&#45;&gt;B</title>
<path fill="none" stroke="black" d="M115.5,-344.19C119.23,-335.65 123.94,-324.86 128.21,-315.09"/>
<polygon fill="black" stroke="black" points="131.36,-316.62 132.15,-306.05 124.94,-313.82 131.36,-316.62"/>
</g>
<!-- a1 -->
<g id="node4" class="node">
<title>a1</title>
<ellipse fill="#f9f9f9" stroke="black" cx="19.62" cy="-195.27" rx="19.62" ry="19.62"/>
<text xml:space="preserve" text-anchor="middle" x="19.62" y="-190.22" font-family="Times,serif" font-size="14.00">a1</text>
</g>
<!-- A&#45;&gt;a1 -->
<g id="edge3" class="edge">
<title>A&#45;&gt;a1</title>
<path fill="none" stroke="black" d="M69.98,-272.38C60.98,-258.78 47.36,-238.19 36.55,-221.86"/>
<polygon fill="black" stroke="black" points="39.52,-220.01 31.08,-213.6 33.68,-223.87 39.52,-220.01"/>
</g>
<!-- A2 -->
<g id="node5" class="node">
<title>A2</title>
<ellipse fill="#f9f9f9" stroke="black" cx="79.62" cy="-195.27" rx="22.18" ry="22.18"/>
<text xml:space="preserve" text-anchor="middle" x="79.62" y="-190.22" font-family="Times,serif" font-size="14.00">A2</text>
</g>
<!-- A&#45;&gt;A2 -->
<g id="edge4" class="edge">
<title>A&#45;&gt;A2</title>
<path fill="none" stroke="black" d="M79.62,-269.47C79.62,-258.08 79.62,-242.87 79.62,-229.27"/>
<polygon fill="black" stroke="black" points="83.12,-229.38 79.62,-219.38 76.12,-229.38 83.12,-229.38"/>
<text xml:space="preserve" text-anchor="middle" x="84.49" y="-238.65" font-family="Times,serif" font-size="14.00">A</text>
</g>
<!-- b1 -->
<g id="node9" class="node">
<title>b1</title>
<ellipse fill="#f9f9f9" stroke="black" cx="139.62" cy="-195.27" rx="20.13" ry="20.13"/>
<text xml:space="preserve" text-anchor="middle" x="139.62" y="-190.22" font-family="Times,serif" font-size="14.00">b1</text>
</g>
<!-- B&#45;&gt;b1 -->
<g id="edge8" class="edge">
<title>B&#45;&gt;b1</title>
<path fill="none" stroke="black" d="M139.62,-269.47C139.62,-257.41 139.62,-241.05 139.62,-226.86"/>
<polygon fill="black" stroke="black" points="143.12,-227.1 139.62,-217.1 136.12,-227.1 143.12,-227.1"/>
</g>
<!-- B2 -->
<g id="node10" class="node">
<title>B2</title>
<ellipse fill="#f9f9f9" stroke="black" cx="199.62" cy="-195.27" rx="21.67" ry="21.67"/>
<text xml:space="preserve" text-anchor="middle" x="199.62" y="-190.22" font-family="Times,serif" font-size="14.00">B2</text>
</g>
<!-- B&#45;&gt;B2 -->
<g id="edge9" class="edge">
<title>B&#45;&gt;B2</title>
<path fill="none" stroke="black" d="M149.26,-272.38C157.98,-259.2 171.06,-239.44 181.7,-223.36"/>
<polygon fill="black" stroke="black" points="184.51,-225.45 187.11,-215.18 178.67,-221.59 184.51,-225.45"/>
<text xml:space="preserve" text-anchor="middle" x="177.71" y="-238.65" font-family="Times,serif" font-size="14.00">B</text>
</g>
<!-- a2 -->
<g id="node6" class="node">
<title>a2</title>
<ellipse fill="#f9f9f9" stroke="black" cx="56.62" cy="-98.42" rx="19.62" ry="19.62"/>
<text xml:space="preserve" text-anchor="middle" x="56.62" y="-93.37" font-family="Times,serif" font-size="14.00">a2</text>
</g>
<!-- A2&#45;&gt;a2 -->
<g id="edge5" class="edge">
<title>A2&#45;&gt;a2</title>
<path fill="none" stroke="black" d="M74.51,-173.22C71.34,-160.13 67.21,-143.1 63.72,-128.71"/>
<polygon fill="black" stroke="black" points="67.2,-128.21 61.44,-119.32 60.4,-129.86 67.2,-128.21"/>
</g>
<!-- A3 -->
<g id="node7" class="node">
<title>A3</title>
<ellipse fill="#f9f9f9" stroke="black" cx="116.62" cy="-98.42" rx="22.18" ry="22.18"/>
<text xml:space="preserve" text-anchor="middle" x="116.62" y="-93.37" font-family="Times,serif" font-size="14.00">A3</text>
</g>
<!-- A2&#45;&gt;A3 -->
<g id="edge6" class="edge">
<title>A2&#45;&gt;A3</title>
<path fill="none" stroke="black" d="M87.47,-174.16C92.47,-161.33 99.05,-144.46 104.69,-129.99"/>
<polygon fill="black" stroke="black" points="107.86,-131.5 108.23,-120.91 101.34,-128.96 107.86,-131.5"/>
<text xml:space="preserve" text-anchor="middle" x="105.21" y="-141.8" font-family="Times,serif" font-size="14.00">A</text>
</g>
<!-- a3 -->
<g id="node8" class="node">
<title>a3</title>
<ellipse fill="#f9f9f9" stroke="black" cx="116.62" cy="-19.62" rx="19.62" ry="19.62"/>
<text xml:space="preserve" text-anchor="middle" x="116.62" y="-14.57" font-family="Times,serif" font-size="14.00">a3</text>
</g>
<!-- A3&#45;&gt;a3 -->
<g id="edge7" class="edge">
<title>A3&#45;&gt;a3</title>
<path fill="none" stroke="black" d="M116.62,-76.02C116.62,-68.24 116.62,-59.29 116.62,-50.88"/>
<polygon fill="black" stroke="black" points="120.12,-51.06 116.62,-41.06 113.12,-51.06 120.12,-51.06"/>
</g>
<!-- b2 -->
<g id="node11" class="node">
<title>b2</title>
<ellipse fill="#f9f9f9" stroke="black" cx="199.62" cy="-98.42" rx="20.13" ry="20.13"/>
<text xml:space="preserve" text-anchor="middle" x="199.62" y="-93.37" font-family="Times,serif" font-size="14.00">b2</text>
</g>
<!-- B2&#45;&gt;b2 -->
<g id="edge10" class="edge">
<title>B2&#45;&gt;b2</title>
<path fill="none" stroke="black" d="M199.62,-173.22C199.62,-160.51 199.62,-144.1 199.62,-129.98"/>
<polygon fill="black" stroke="black" points="203.12,-130.31 199.62,-120.31 196.12,-130.31 203.12,-130.31"/>
</g>
</g>
</svg>
