<?xml version="1.0" encoding="UTF-8" standalone="no"?>
<!DOCTYPE svg PUBLIC "-//W3C//DTD SVG 1.1//EN"
 "http://www.w3.org/Graphics/SVG/1.1/DTD/svg11.dtd">
<!-- Generated by graphviz version 14.0.2 (20251019.1705)
 -->
<!-- Title: Q12 Pages: 1 -->
<svg width="400pt" height="393pt"
 viewBox="0.00 0.00 400.00 393.00" xmlns="http://www.w3.org/2000/svg" xmlns:xlink="http://www.w3.org/1999/xlink">
<g id="graph0" class="graph" transform="scale(1 1) rotate(0) translate(4 389.07)">
<title>Q12</title>
<polygon fill="white" stroke="none" points="-4,4 -4,-389.07 396.15,-389.07 396.15,4 -4,4"/>
<!-- S -->
<g id="node1" class="node">
<title>S</title>
<ellipse fill="#f9f9f9" stroke="black" cx="170.15" cy="-367.07" rx="18" ry="18"/>
<text xml:space="preserve" text-anchor="middle" x="170.15" y="-362.02" font-family="Times,serif" font-size="14.00">S</text>
</g>
<!-- A -->
<g id="node2" class="node">
<title>A</title>
<ellipse fill="#f9f9f9" stroke="black" cx="138.15" cy="-278.57" rx="18" ry="18"/>
<text xml:space="preserve" text-anchor="middle" x="138.15" y="-273.52" font-family="Times,serif" font-size="14.00">A</text>
</g>
<!-- S&#45;&gt;A -->
<g id="edge1" class="edge">
<title>S&#45;&gt;A</title>
<path fill="none" stroke="black" d="M158.24,-353.07C153.22,-346.85 147.81,-339.04 144.65,-331.07 141.82,-323.93 140.15,-315.82 139.19,-308.19"/>
<polygon fill="black" stroke="black" points="142.68,-307.97 138.32,-298.31 135.71,-308.58 142.68,-307.97"/>
<text xml:space="preserve" text-anchor="middle" x="161.9" y="-317.77" font-family="Times,serif" font-size="14.00">Path 1</text>
</g>
<!-- B -->
<g id="node3" class="node">
<title>B</title>
<ellipse fill="#f9f9f9" stroke="black" cx="201.15" cy="-278.57" rx="18" ry="18"/>
<text xml:space="preserve" text-anchor="middle" x="201.15" y="-273.52" font-family="Times,serif" font-size="14.00">B</text>
</g>
<!-- S&#45;&gt;B -->
<g id="edge2" class="edge">
<title>S&#45;&gt;B</title>
<path fill="none" stroke="black" d="M175.99,-349.8C180.33,-337.68 186.36,-320.84 191.44,-306.69"/>
<polygon fill="black" stroke="black" points="194.66,-308.08 194.73,-297.49 188.07,-305.72 194.66,-308.08"/>
<text xml:space="preserve" text-anchor="middle" x="205.68" y="-317.77" font-family="Times,serif" font-size="14.00">Path 2</text>
</g>
<!-- C -->
<g id="node4" class="node">
<title>C</title>
<ellipse fill="#f9f9f9" stroke="black" cx="83.15" cy="-205.57" rx="18" ry="18"/>
<text xml:space="preserve" text-anchor="middle" x="83.15" y="-200.52" font-family="Times,serif" font-size="14.00">C</text>
</g>
<!-- A&#45;&gt;C -->
<g id="edge3" class="edge">
<title>A&#45;&gt;C</title>
<path fill="none" stroke="black" d="M127.55,-263.88C119.94,-254.06 109.52,-240.6 100.68,-229.19"/>
<polygon fill="black" stroke="black" points="103.54,-227.18 94.65,-221.42 98.01,-231.46 103.54,-227.18"/>
</g>
<!-- D -->
<g id="node5" class="node">
<title>D</title>
<ellipse fill="#f9f9f9" stroke="black" cx="138.15" cy="-205.57" rx="18" ry="18"/>
<text xml:space="preserve" text-anchor="middle" x="138.15" y="-200.52" font-family="Times,serif" font-size="14.00">D</text>
</g>
<!-- A&#45;&gt;D -->
<g id="edge4" class="edge">
<title>A&#45;&gt;D</title>
<path fill="none" stroke="black" d="M138.15,-260.38C138.15,-252.8 138.15,-243.67 138.15,-235.11"/>
<polygon fill="black" stroke="black" points="141.65,-235.11 138.15,-225.11 134.65,-235.11 141.65,-235.11"/>
</g>
<!-- E -->
<g id="node10" class="node">
<title>E</title>
<ellipse fill="#f9f9f9" stroke="black" cx="201.15" cy="-205.57" rx="18" ry="18"/>
<text xml:space="preserve" text-anchor="middle" x="201.15" y="-200.52" font-family="Times,serif" font-size="14.00">E</text>
</g>
<!-- B&#45;&gt;E -->
<g id="edge9" class="edge">
<title>B&#45;&gt;E</title>
<path fill="none" stroke="black" d="M201.15,-260.38C201.15,-252.8 201.15,-243.67 201.15,-235.11"/>
<polygon fill="black" stroke="black" points="204.65,-235.11 201.15,-225.11 197.65,-235.11 204.65,-235.11"/>
</g>
<!-- F -->
<g id="node11" class="node">
<title>F</title>
<ellipse fill="#f9f9f9" stroke="black" cx="294.15" cy="-205.57" rx="18" ry="18"/>
<text xml:space="preserve" text-anchor="middle" x="294.15" y="-200.52" font-family="Times,serif" font-size="14.00">F</text>
</g>
<!-- B&#45;&gt;F -->
<g id="edge10" class="edge">
<title>B&#45;&gt;F</title>
<path fill="none" stroke="black" d="M215.28,-266.79C230.11,-255.46 253.68,-237.48 271.19,-224.11"/>
<polygon fill="black" stroke="black" points="273.17,-226.99 279,-218.14 268.93,-221.43 273.17,-226.99"/>
</g>
<!-- aC -->
<g id="node6" class="node">
<title>aC</title>
<ellipse fill="#f9f9f9" stroke="black" cx="21.15" cy="-113.41" rx="21.15" ry="21.15"/>
<text xml:space="preserve" text-anchor="middle" x="21.15" y="-108.36" font-family="Times,serif" font-size="14.00">aC</text>
</g>
<!-- C&#45;&gt;aC -->
<g id="edge5" class="edge">
<title>C&#45;&gt;aC</title>
<path fill="none" stroke="black" d="M73.19,-190.08C64.07,-176.81 50.33,-156.84 39.26,-140.74"/>
<polygon fill="black" stroke="black" points="42.19,-138.82 33.64,-132.56 36.42,-142.78 42.19,-138.82"/>
<text xml:space="preserve" text-anchor="middle" x="60.71" y="-156.27" font-family="Times,serif" font-size="14.00">a</text>
</g>
<!-- Cp -->
<g id="node7" class="node">
<title>Cp</title>
<ellipse fill="#f9f9f9" stroke="black" cx="82.15" cy="-113.41" rx="21.67" ry="21.67"/>
<text xml:space="preserve" text-anchor="middle" x="82.15" y="-108.36" font-family="Times,serif" font-size="14.00">Cp</text>
</g>
<!-- C&#45;&gt;Cp -->
<g id="edge6" class="edge">
<title>C&#45;&gt;Cp</title>
<path fill="none" stroke="black" d="M82.96,-187.19C82.84,-175.79 82.67,-160.53 82.52,-146.93"/>
<polygon fill="black" stroke="black" points="86.02,-147.02 82.41,-137.06 79.02,-147.1 86.02,-147.02"/>
<text xml:space="preserve" text-anchor="middle" x="87.24" y="-156.27" font-family="Times,serif" font-size="14.00">C</text>
</g>
<!-- bC -->
<g id="node8" class="node">
<title>bC</title>
<ellipse fill="#f9f9f9" stroke="black" cx="143.15" cy="-113.41" rx="21.67" ry="21.67"/>
<text xml:space="preserve" text-anchor="middle" x="143.15" y="-108.36" font-family="Times,serif" font-size="14.00">bC</text>
</g>
<!-- C&#45;&gt;bC -->
<g id="edge7" class="edge">
<title>C&#45;&gt;bC</title>
<path fill="none" stroke="black" d="M92.79,-190.08C101.52,-176.98 114.59,-157.33 125.23,-141.34"/>
<polygon fill="black" stroke="black" points="128.02,-143.47 130.64,-133.21 122.19,-139.6 128.02,-143.47"/>
<text xml:space="preserve" text-anchor="middle" x="120.12" y="-156.27" font-family="Times,serif" font-size="14.00">b</text>
</g>
<!-- ab -->
<g id="node9" class="node">
<title>ab</title>
<ellipse fill="#f9f9f9" stroke="black" cx="82.15" cy="-19.62" rx="19.62" ry="19.62"/>
<text xml:space="preserve" text-anchor="middle" x="82.15" y="-14.57" font-family="Times,serif" font-size="14.00">ab</text>
</g>
<!-- Cp&#45;&gt;ab -->
<g id="edge8" class="edge">
<title>Cp&#45;&gt;ab</title>
<path fill="none" stroke="black" d="M82.15,-91.58C82.15,-79.47 82.15,-64 82.15,-50.6"/>
<polygon fill="black" stroke="black" points="85.65,-51 82.15,-41 78.65,-51 85.65,-51"/>
<text xml:space="preserve" text-anchor="middle" x="88.53" y="-60.44" font-family="Times,serif" font-size="14.00">ab</text>
</g>
<!-- a -->
<g id="node12" class="node">
<title>a</title>
<ellipse fill="#f9f9f9" stroke="black" cx="201.15" cy="-113.41" rx="18" ry="18"/>
<text xml:space="preserve" text-anchor="middle" x="201.15" y="-108.36" font-family="Times,serif" font-size="14.00">a</text>
</g>
<!-- E&#45;&gt;a -->
<g id="edge11" class="edge">
<title>E&#45;&gt;a</title>
<path fill="none" stroke="black" d="M201.15,-187.19C201.15,-174.71 201.15,-157.62 201.15,-143.13"/>
<polygon fill="black" stroke="black" points="204.65,-143.25 201.15,-133.25 197.65,-143.25 204.65,-143.25"/>
<text xml:space="preserve" text-anchor="middle" x="204.15" y="-156.27" font-family="Times,serif" font-size="14.00">a</text>
</g>
<!-- bF -->
<g id="node13" class="node">
<title>bF</title>
<ellipse fill="#f9f9f9" stroke="black" cx="258.15" cy="-113.41" rx="20.64" ry="20.64"/>
<text xml:space="preserve" text-anchor="middle" x="258.15" y="-108.36" font-family="Times,serif" font-size="14.00">bF</text>
</g>
<!-- F&#45;&gt;bF -->
<g id="edge12" class="edge">
<title>F&#45;&gt;bF</title>
<path fill="none" stroke="black" d="M287.72,-188.45C282.71,-175.9 275.62,-158.15 269.64,-143.17"/>
<polygon fill="black" stroke="black" points="273.05,-142.27 266.09,-134.28 266.55,-144.86 273.05,-142.27"/>
<text xml:space="preserve" text-anchor="middle" x="282.75" y="-156.27" font-family="Times,serif" font-size="14.00">b</text>
</g>
<!-- Fp -->
<g id="node14" class="node">
<title>Fp</title>
<ellipse fill="#f9f9f9" stroke="black" cx="317.15" cy="-113.41" rx="20.64" ry="20.64"/>
<text xml:space="preserve" text-anchor="middle" x="317.15" y="-108.36" font-family="Times,serif" font-size="14.00">Fp</text>
</g>
<!-- F&#45;&gt;Fp -->
<g id="edge13" class="edge">
<title>F&#45;&gt;Fp</title>
<path fill="none" stroke="black" d="M298.48,-187.61C301.56,-175.54 305.78,-158.98 309.44,-144.66"/>
<polygon fill="black" stroke="black" points="312.75,-145.81 311.84,-135.26 305.97,-144.08 312.75,-145.81"/>
<text xml:space="preserve" text-anchor="middle" x="310.78" y="-156.27" font-family="Times,serif" font-size="14.00">F</text>
</g>
<!-- c -->
<g id="node15" class="node">
<title>c</title>
<ellipse fill="#f9f9f9" stroke="black" cx="374.15" cy="-113.41" rx="18" ry="18"/>
<text xml:space="preserve" text-anchor="middle" x="374.15" y="-108.36" font-family="Times,serif" font-size="14.00">c</text>
</g>
<!-- F&#45;&gt;c -->
<g id="edge14" class="edge">
<title>F&#45;&gt;c</title>
<path fill="none" stroke="black" d="M305.62,-191.65C318.49,-177.14 339.6,-153.35 355,-136"/>
<polygon fill="black" stroke="black" points="357.43,-138.53 361.45,-128.73 352.19,-133.88 357.43,-138.53"/>
<text xml:space="preserve" text-anchor="middle" x="341.94" y="-156.27" font-family="Times,serif" font-size="14.00">c</text>
</g>
</g>
</svg>
