<?xml version="1.0" encoding="UTF-8" standalone="no"?>
<!DOCTYPE svg PUBLIC "-//W3C//DTD SVG 1.1//EN"
 "http://www.w3.org/Graphics/SVG/1.1/DTD/svg11.dtd">
<!-- Generated by graphviz version 14.0.2 (20251019.1705)
 -->
<!-- Title: FA17 Pages: 1 -->
<svg width="334pt" height="143pt"
 viewBox="0.00 0.00 334.00 143.00" xmlns="http://www.w3.org/2000/svg" xmlns:xlink="http://www.w3.org/1999/xlink">
<g id="graph0" class="graph" transform="scale(1 1) rotate(0) translate(4 138.84)">
<title>FA17</title>
<polygon fill="white" stroke="none" points="-4,4 -4,-138.84 330.1,-138.84 330.1,4 -4,4"/>
<!-- q0 -->
<g id="node1" class="node">
<title>q0</title>
<ellipse fill="#f9f9f9" stroke="black" cx="47.38" cy="-52.97" rx="47.38" ry="47.38"/>
<text xml:space="preserve" text-anchor="middle" x="47.38" y="-48.67" font-family="Times,serif" font-size="14.00">q₀ (Start)</text>
</g>
<!-- q0&#45;&gt;q0 -->
<g id="edge1" class="edge">
<title>q0&#45;&gt;q0</title>
<path fill="none" stroke="black" d="M34.78,-99.09C35.77,-110.15 39.96,-118.34 47.38,-118.34 52.01,-118.34 55.39,-115.14 57.51,-110.04"/>
<polygon fill="black" stroke="black" points="60.86,-111.09 59.64,-100.57 54.03,-109.56 60.86,-111.09"/>
<text xml:space="preserve" text-anchor="middle" x="47.38" y="-121.54" font-family="Times,serif" font-size="14.00">a,b</text>
</g>
<!-- q1 -->
<g id="node2" class="node">
<title>q1</title>
<ellipse fill="#f9f9f9" stroke="black" cx="157.08" cy="-52.97" rx="20.33" ry="20.33"/>
<text xml:space="preserve" text-anchor="middle" x="157.08" y="-48.67" font-family="Times,serif" font-size="14.00">q₁</text>
</g>
<!-- q0&#45;&gt;q1 -->
<g id="edge2" class="edge">
<title>q0&#45;&gt;q1</title>
<path fill="none" stroke="black" d="M94.99,-52.97C105.22,-52.97 115.81,-52.97 125.24,-52.97"/>
<polygon fill="black" stroke="black" points="124.94,-56.47 134.94,-52.97 124.94,-49.47 124.94,-56.47"/>
<text xml:space="preserve" text-anchor="middle" x="115.75" y="-56.17" font-family="Times,serif" font-size="14.00">a</text>
</g>
<!-- q2 -->
<g id="node3" class="node">
<title>q2</title>
<ellipse fill="#f9f9f9" stroke="black" cx="273.13" cy="-52.97" rx="48.97" ry="48.97"/>
<ellipse fill="none" stroke="black" cx="273.13" cy="-52.97" rx="52.97" ry="52.97"/>
<text xml:space="preserve" text-anchor="middle" x="273.13" y="-48.67" font-family="Times,serif" font-size="14.00">q₂ (Final)</text>
</g>
<!-- q1&#45;&gt;q2 -->
<g id="edge3" class="edge">
<title>q1&#45;&gt;q2</title>
<path fill="none" stroke="black" d="M177.69,-52.97C186.48,-52.97 197.39,-52.97 208.64,-52.97"/>
<polygon fill="black" stroke="black" points="208.43,-56.47 218.43,-52.97 208.43,-49.47 208.43,-56.47"/>
<text xml:space="preserve" text-anchor="middle" x="198.79" y="-56.17" font-family="Times,serif" font-size="14.00">b</text>
</g>
</g>
</svg>
