<?xml version="1.0" encoding="UTF-8" standalone="no"?>
<!DOCTYPE svg PUBLIC "-//W3C//DTD SVG 1.1//EN"
 "http://www.w3.org/Graphics/SVG/1.1/DTD/svg11.dtd">
<!-- Generated by graphviz version 14.0.2 (20251019.1705)
 -->
<!-- Title: StackTrace_palindrome Pages: 1 -->
<svg width="949pt" height="90pt"
 viewBox="0.00 0.00 949.00 90.00" xmlns="http://www.w3.org/2000/svg" xmlns:xlink="http://www.w3.org/1999/xlink">
<g id="graph0" class="graph" transform="scale(1 1) rotate(0) translate(4 86)">
<title>StackTrace_palindrome</title>
<polygon fill="white" stroke="none" points="-4,4 -4,-86 944.5,-86 944.5,4 -4,4"/>
<!-- p0 -->
<g id="node1" class="node">
<title>p0</title>
<polygon fill="#fff8f8" stroke="black" points="0,-9.88 0,-72.12 54,-72.12 54,-9.88 0,-9.88"/>
<text xml:space="preserve" text-anchor="middle" x="27" y="-58.62" font-family="Times,serif" font-size="10.00">q₀</text>
<polyline fill="none" stroke="black" points="0,-52.12 54,-52.12"/>
<text xml:space="preserve" text-anchor="middle" x="27" y="-38.62" font-family="Times,serif" font-size="10.00">abcba</text>
<polyline fill="none" stroke="black" points="0,-32.88 54,-32.88"/>
<text xml:space="preserve" text-anchor="middle" x="27" y="-19.38" font-family="Times,serif" font-size="10.00">⊥</text>
</g>
<!-- p1 -->
<g id="node2" class="node">
<title>p1</title>
<polygon fill="#e6f7ff" stroke="black" points="126.75,-11.75 126.75,-70.25 180.75,-70.25 180.75,-11.75 126.75,-11.75"/>
<text xml:space="preserve" text-anchor="middle" x="153.75" y="-56.75" font-family="Times,serif" font-size="10.00">q₁</text>
<polyline fill="none" stroke="black" points="126.75,-50.25 180.75,-50.25"/>
<text xml:space="preserve" text-anchor="middle" x="153.75" y="-36.75" font-family="Times,serif" font-size="10.00">abcba</text>
<polyline fill="none" stroke="black" points="126.75,-31 180.75,-31"/>
<text xml:space="preserve" text-anchor="middle" x="153.75" y="-17.5" font-family="Times,serif" font-size="10.00">$</text>
</g>
<!-- p0&#45;&gt;p1 -->
<g id="edge1" class="edge">
<title>p0&#45;&gt;p1</title>
<path fill="none" stroke="black" d="M54.46,-41C72.07,-41 95.48,-41 115.04,-41"/>
<polygon fill="black" stroke="black" points="114.82,-44.5 124.82,-41 114.82,-37.5 114.82,-44.5"/>
<text xml:space="preserve" text-anchor="middle" x="90.38" y="-44.2" font-family="Times,serif" font-size="14.00">ε,ε→$</text>
</g>
<!-- p2 -->
<g id="node3" class="node">
<title>p2</title>
<polygon fill="#e6f7ff" stroke="black" points="252.75,-6.12 252.75,-75.88 306.75,-75.88 306.75,-6.12 252.75,-6.12"/>
<text xml:space="preserve" text-anchor="middle" x="279.75" y="-62.38" font-family="Times,serif" font-size="10.00">q₁</text>
<polyline fill="none" stroke="black" points="252.75,-55.88 306.75,-55.88"/>
<text xml:space="preserve" text-anchor="middle" x="279.75" y="-42.38" font-family="Times,serif" font-size="10.00">bcba</text>
<polyline fill="none" stroke="black" points="252.75,-36.62 306.75,-36.62"/>
<text xml:space="preserve" text-anchor="middle" x="279.75" y="-23.12" font-family="Times,serif" font-size="10.00">a</text>
<text xml:space="preserve" text-anchor="middle" x="279.75" y="-11.88" font-family="Times,serif" font-size="10.00">$</text>
</g>
<!-- p1&#45;&gt;p2 -->
<g id="edge2" class="edge">
<title>p1&#45;&gt;p2</title>
<path fill="none" stroke="black" d="M181.05,-41C198.47,-41 221.61,-41 240.99,-41"/>
<polygon fill="black" stroke="black" points="240.98,-44.5 250.98,-41 240.98,-37.5 240.98,-44.5"/>
<text xml:space="preserve" text-anchor="middle" x="216.75" y="-44.2" font-family="Times,serif" font-size="14.00">a,ε→a</text>
</g>
<!-- p3 -->
<g id="node4" class="node">
<title>p3</title>
<polygon fill="#e6f7ff" stroke="black" points="380.25,-0.5 380.25,-81.5 434.25,-81.5 434.25,-0.5 380.25,-0.5"/>
<text xml:space="preserve" text-anchor="middle" x="407.25" y="-68" font-family="Times,serif" font-size="10.00">q₁</text>
<polyline fill="none" stroke="black" points="380.25,-61.5 434.25,-61.5"/>
<text xml:space="preserve" text-anchor="middle" x="407.25" y="-48" font-family="Times,serif" font-size="10.00">cba</text>
<polyline fill="none" stroke="black" points="380.25,-42.25 434.25,-42.25"/>
<text xml:space="preserve" text-anchor="middle" x="407.25" y="-28.75" font-family="Times,serif" font-size="10.00">b</text>
<text xml:space="preserve" text-anchor="middle" x="407.25" y="-17.5" font-family="Times,serif" font-size="10.00">a</text>
<text xml:space="preserve" text-anchor="middle" x="407.25" y="-6.25" font-family="Times,serif" font-size="10.00">$</text>
</g>
<!-- p2&#45;&gt;p3 -->
<g id="edge3" class="edge">
<title>p2&#45;&gt;p3</title>
<path fill="none" stroke="black" d="M307.06,-41C324.88,-41 348.7,-41 368.53,-41"/>
<polygon fill="black" stroke="black" points="368.46,-44.5 378.46,-41 368.46,-37.5 368.46,-44.5"/>
<text xml:space="preserve" text-anchor="middle" x="343.5" y="-44.2" font-family="Times,serif" font-size="14.00">b,ε→b</text>
</g>
<!-- p4 -->
<g id="node5" class="node">
<title>p4</title>
<polygon fill="#fffbe6" stroke="black" points="506.25,-0.5 506.25,-81.5 560.25,-81.5 560.25,-0.5 506.25,-0.5"/>
<text xml:space="preserve" text-anchor="middle" x="533.25" y="-68" font-family="Times,serif" font-size="10.00">q₂</text>
<polyline fill="none" stroke="black" points="506.25,-61.5 560.25,-61.5"/>
<text xml:space="preserve" text-anchor="middle" x="533.25" y="-48" font-family="Times,serif" font-size="10.00">ba</text>
<polyline fill="none" stroke="black" points="506.25,-42.25 560.25,-42.25"/>
<text xml:space="preserve" text-anchor="middle" x="533.25" y="-28.75" font-family="Times,serif" font-size="10.00">b</text>
<text xml:space="preserve" text-anchor="middle" x="533.25" y="-17.5" font-family="Times,serif" font-size="10.00">a</text>
<text xml:space="preserve" text-anchor="middle" x="533.25" y="-6.25" font-family="Times,serif" font-size="10.00">$</text>
</g>
<!-- p3&#45;&gt;p4 -->
<g id="edge4" class="edge">
<title>p3&#45;&gt;p4</title>
<path fill="none" stroke="black" d="M434.55,-41C451.97,-41 475.11,-41 494.49,-41"/>
<polygon fill="black" stroke="black" points="494.48,-44.5 504.48,-41 494.48,-37.5 494.48,-44.5"/>
<text xml:space="preserve" text-anchor="middle" x="470.25" y="-44.2" font-family="Times,serif" font-size="14.00">c,ε→ε</text>
</g>
<!-- p5 -->
<g id="node6" class="node">
<title>p5</title>
<polygon fill="#fffbe6" stroke="black" points="633.75,-6.12 633.75,-75.88 687.75,-75.88 687.75,-6.12 633.75,-6.12"/>
<text xml:space="preserve" text-anchor="middle" x="660.75" y="-62.38" font-family="Times,serif" font-size="10.00">q₂</text>
<polyline fill="none" stroke="black" points="633.75,-55.88 687.75,-55.88"/>
<text xml:space="preserve" text-anchor="middle" x="660.75" y="-42.38" font-family="Times,serif" font-size="10.00">a</text>
<polyline fill="none" stroke="black" points="633.75,-36.62 687.75,-36.62"/>
<text xml:space="preserve" text-anchor="middle" x="660.75" y="-23.12" font-family="Times,serif" font-size="10.00">a</text>
<text xml:space="preserve" text-anchor="middle" x="660.75" y="-11.88" font-family="Times,serif" font-size="10.00">$</text>
</g>
<!-- p4&#45;&gt;p5 -->
<g id="edge5" class="edge">
<title>p4&#45;&gt;p5</title>
<path fill="none" stroke="black" d="M560.56,-41C578.38,-41 602.2,-41 622.03,-41"/>
<polygon fill="black" stroke="black" points="621.96,-44.5 631.96,-41 621.96,-37.5 621.96,-44.5"/>
<text xml:space="preserve" text-anchor="middle" x="597" y="-44.2" font-family="Times,serif" font-size="14.00">b,b→ε</text>
</g>
<!-- p6 -->
<g id="node7" class="node">
<title>p6</title>
<polygon fill="#fffbe6" stroke="black" points="759.75,-11.75 759.75,-70.25 813.75,-70.25 813.75,-11.75 759.75,-11.75"/>
<text xml:space="preserve" text-anchor="middle" x="786.75" y="-56.75" font-family="Times,serif" font-size="10.00">q₂</text>
<polyline fill="none" stroke="black" points="759.75,-50.25 813.75,-50.25"/>
<text xml:space="preserve" text-anchor="middle" x="786.75" y="-36.75" font-family="Times,serif" font-size="10.00">ε</text>
<polyline fill="none" stroke="black" points="759.75,-31 813.75,-31"/>
<text xml:space="preserve" text-anchor="middle" x="786.75" y="-17.5" font-family="Times,serif" font-size="10.00">$</text>
</g>
<!-- p5&#45;&gt;p6 -->
<g id="edge6" class="edge">
<title>p5&#45;&gt;p6</title>
<path fill="none" stroke="black" d="M688.05,-41C705.47,-41 728.61,-41 747.99,-41"/>
<polygon fill="black" stroke="black" points="747.98,-44.5 757.98,-41 747.98,-37.5 747.98,-44.5"/>
<text xml:space="preserve" text-anchor="middle" x="723.75" y="-44.2" font-family="Times,serif" font-size="14.00">a,a→ε</text>
</g>
<!-- p7 -->
<g id="node8" class="node">
<title>p7</title>
<polygon fill="#f2fff2" stroke="black" points="886.5,-9.88 886.5,-72.12 940.5,-72.12 940.5,-9.88 886.5,-9.88"/>
<text xml:space="preserve" text-anchor="middle" x="913.5" y="-58.62" font-family="Times,serif" font-size="10.00">q₃</text>
<polyline fill="none" stroke="black" points="886.5,-52.12 940.5,-52.12"/>
<text xml:space="preserve" text-anchor="middle" x="913.5" y="-38.62" font-family="Times,serif" font-size="10.00">ε</text>
<polyline fill="none" stroke="black" points="886.5,-32.88 940.5,-32.88"/>
<text xml:space="preserve" text-anchor="middle" x="913.5" y="-19.38" font-family="Times,serif" font-size="10.00">⊥</text>
</g>
<!-- p6&#45;&gt;p7 -->
<g id="edge7" class="edge">
<title>p6&#45;&gt;p7</title>
<path fill="none" stroke="black" d="M814.21,-41C831.82,-41 855.23,-41 874.79,-41"/>
<polygon fill="black" stroke="black" points="874.57,-44.5 884.57,-41 874.57,-37.5 874.57,-44.5"/>
<text xml:space="preserve" text-anchor="middle" x="850.12" y="-44.2" font-family="Times,serif" font-size="14.00">ε,$→ε</text>
</g>
</g>
</svg>
