<?xml version="1.0" encoding="UTF-8" standalone="no"?>
<!DOCTYPE svg PUBLIC "-//W3C//DTD SVG 1.1//EN"
 "http://www.w3.org/Graphics/SVG/1.1/DTD/svg11.dtd">
<!-- Generated by graphviz version 14.0.2 (20251019.1705)
 -->
<!-- Title: CFG7 Pages: 1 -->
<svg width="152pt" height="286pt"
 viewBox="0.00 0.00 152.00 286.00" xmlns="http://www.w3.org/2000/svg" xmlns:xlink="http://www.w3.org/1999/xlink">
<g id="graph0" class="graph" transform="scale(1 1) rotate(0) translate(4 281.75)">
<title>CFG7</title>
<polygon fill="white" stroke="none" points="-4,4 -4,-281.75 148,-281.75 148,4 -4,4"/>
<!-- S -->
<g id="node1" class="node">
<title>S</title>
<ellipse fill="#f9f9f9" stroke="black" cx="72" cy="-259.75" rx="18" ry="18"/>
<text xml:space="preserve" text-anchor="middle" x="72" y="-254.32" font-family="Arial" font-size="14.00">S</text>
</g>
<!-- a -->
<g id="node2" class="node">
<title>a</title>
<ellipse fill="#f9f9f9" stroke="black" cx="18" cy="-186.75" rx="18" ry="18"/>
<text xml:space="preserve" text-anchor="middle" x="18" y="-181.32" font-family="Arial" font-size="14.00">a</text>
</g>
<!-- S&#45;&gt;a -->
<g id="edge1" class="edge">
<title>S&#45;&gt;a</title>
<path fill="none" stroke="black" d="M61.33,-244.72C53.94,-234.99 43.92,-221.83 35.38,-210.6"/>
<polygon fill="black" stroke="black" points="38.4,-208.79 29.56,-202.95 32.83,-213.03 38.4,-208.79"/>
</g>
<!-- A -->
<g id="node3" class="node">
<title>A</title>
<ellipse fill="#f9f9f9" stroke="black" cx="72" cy="-186.75" rx="18" ry="18"/>
<text xml:space="preserve" text-anchor="middle" x="72" y="-181.32" font-family="Arial" font-size="14.00">A</text>
</g>
<!-- S&#45;&gt;A -->
<g id="edge2" class="edge">
<title>S&#45;&gt;A</title>
<path fill="none" stroke="black" d="M72,-241.56C72,-233.97 72,-224.85 72,-216.29"/>
<polygon fill="black" stroke="black" points="75.5,-216.29 72,-206.29 68.5,-216.29 75.5,-216.29"/>
</g>
<!-- d -->
<g id="node4" class="node">
<title>d</title>
<ellipse fill="#f9f9f9" stroke="black" cx="126" cy="-186.75" rx="18" ry="18"/>
<text xml:space="preserve" text-anchor="middle" x="126" y="-181.32" font-family="Arial" font-size="14.00">d</text>
</g>
<!-- S&#45;&gt;d -->
<g id="edge3" class="edge">
<title>S&#45;&gt;d</title>
<path fill="none" stroke="black" d="M82.67,-244.72C90.06,-234.99 100.08,-221.83 108.62,-210.6"/>
<polygon fill="black" stroke="black" points="111.17,-213.03 114.44,-202.95 105.6,-208.79 111.17,-213.03"/>
</g>
<!-- b -->
<g id="node5" class="node">
<title>b</title>
<ellipse fill="#f9f9f9" stroke="black" cx="34" cy="-18" rx="18" ry="18"/>
<text xml:space="preserve" text-anchor="middle" x="34" y="-12.57" font-family="Arial" font-size="14.00">b</text>
</g>
<!-- A&#45;&gt;b -->
<g id="edge4" class="edge">
<title>A&#45;&gt;b</title>
<path fill="none" stroke="black" d="M63.37,-170.57C56.03,-156.85 45.92,-135.85 41,-116.25 35.33,-93.65 33.74,-67.24 33.47,-47.65"/>
<polygon fill="black" stroke="black" points="36.97,-47.66 33.46,-37.66 29.97,-47.66 36.97,-47.66"/>
</g>
<!-- A2 -->
<g id="node6" class="node">
<title>A2</title>
<ellipse fill="#f9f9f9" stroke="black" cx="72" cy="-94.62" rx="21.62" ry="21.62"/>
<text xml:space="preserve" text-anchor="middle" x="72" y="-89.2" font-family="Arial" font-size="14.00">A2</text>
</g>
<!-- A&#45;&gt;A2 -->
<g id="edge5" class="edge">
<title>A&#45;&gt;A2</title>
<path fill="none" stroke="black" d="M72,-168.37C72,-156.9 72,-141.52 72,-127.85"/>
<polygon fill="black" stroke="black" points="75.5,-127.94 72,-117.94 68.5,-127.94 75.5,-127.94"/>
<text xml:space="preserve" text-anchor="middle" x="76.88" y="-137.45" font-family="Times,serif" font-size="14.00">A</text>
</g>
<!-- c -->
<g id="node7" class="node">
<title>c</title>
<ellipse fill="#f9f9f9" stroke="black" cx="99" cy="-18" rx="18" ry="18"/>
<text xml:space="preserve" text-anchor="middle" x="99" y="-12.57" font-family="Arial" font-size="14.00">c</text>
</g>
<!-- A&#45;&gt;c -->
<g id="edge6" class="edge">
<title>A&#45;&gt;c</title>
<path fill="none" stroke="black" d="M80.97,-170.65C88.54,-156.98 98.79,-136.02 103,-116.25 107.87,-93.39 106.31,-66.85 103.85,-47.27"/>
<polygon fill="black" stroke="black" points="107.34,-46.98 102.46,-37.58 100.41,-47.97 107.34,-46.98"/>
</g>
<!-- A2&#45;&gt;b -->
<g id="edge7" class="edge">
<title>A2&#45;&gt;b</title>
<path fill="none" stroke="black" d="M62.41,-74.79C57.76,-65.66 52.1,-54.55 47.07,-44.66"/>
<polygon fill="black" stroke="black" points="50.26,-43.22 42.61,-35.9 44.03,-46.4 50.26,-43.22"/>
</g>
<!-- A2&#45;&gt;c -->
<g id="edge8" class="edge">
<title>A2&#45;&gt;c</title>
<path fill="none" stroke="black" d="M79.09,-74.02C82.2,-65.42 85.9,-55.19 89.27,-45.9"/>
<polygon fill="black" stroke="black" points="92.51,-47.22 92.62,-36.63 85.93,-44.84 92.51,-47.22"/>
</g>
</g>
</svg>
