<?xml version="1.0" encoding="UTF-8" standalone="no"?>
<!DOCTYPE svg PUBLIC "-//W3C//DTD SVG 1.1//EN"
 "http://www.w3.org/Graphics/SVG/1.1/DTD/svg11.dtd">
<!-- Generated by graphviz version 14.0.2 (20251019.1705)
 -->
<!-- Title: PDA_equal Pages: 1 -->
<svg width="327pt" height="214pt"
 viewBox="0.00 0.00 327.00 214.00" xmlns="http://www.w3.org/2000/svg" xmlns:xlink="http://www.w3.org/1999/xlink">
<g id="graph0" class="graph" transform="scale(1 1) rotate(0) translate(4 210.42)">
<title>PDA_equal</title>
<polygon fill="white" stroke="none" points="-4,4 -4,-210.42 323.42,-210.42 323.42,4 -4,4"/>
<!-- q0 -->
<g id="node1" class="node">
<title>q0</title>
<ellipse fill="#fff8f8" stroke="#7b1113" cx="18" cy="-35.71" rx="18" ry="18"/>
<text xml:space="preserve" text-anchor="middle" x="18" y="-32.38" font-family="Times,serif" font-size="11.00">q₀</text>
</g>
<!-- q1 -->
<g id="node2" class="node">
<title>q1</title>
<ellipse fill="#f8f8f8" stroke="#7b1113" cx="155.71" cy="-35.71" rx="35.71" ry="35.71"/>
<text xml:space="preserve" text-anchor="middle" x="155.71" y="-39.13" font-family="Times,serif" font-size="11.00">q₁</text>
<text xml:space="preserve" text-anchor="middle" x="155.71" y="-24.88" font-family="Times,serif" font-size="11.00">balance</text>
</g>
<!-- q0&#45;&gt;q1 -->
<g id="edge1" class="edge">
<title>q0&#45;&gt;q1</title>
<path fill="none" stroke="black" d="M36.46,-35.71C54.51,-35.71 83.45,-35.71 108.18,-35.71"/>
<polygon fill="black" stroke="black" points="108.04,-39.21 118.04,-35.71 108.04,-32.21 108.04,-39.21"/>
<text xml:space="preserve" text-anchor="middle" x="78" y="-38.91" font-family="Times,serif" font-size="14.00">ε, ε → $</text>
</g>
<!-- q1&#45;&gt;q1 -->
<g id="edge2" class="edge">
<title>q1&#45;&gt;q1</title>
<path fill="none" stroke="black" d="M148.45,-71.09C148.7,-81.42 151.12,-89.42 155.71,-89.42 158.36,-89.42 160.29,-86.74 161.5,-82.49"/>
<polygon fill="black" stroke="black" points="164.96,-82.96 162.78,-72.59 158.02,-82.06 164.96,-82.96"/>
<text xml:space="preserve" text-anchor="middle" x="155.71" y="-125.62" font-family="Times,serif" font-size="14.00">a, $ → A$</text>
<text xml:space="preserve" text-anchor="middle" x="155.71" y="-109.12" font-family="Times,serif" font-size="14.00">a, A → AA</text>
<text xml:space="preserve" text-anchor="middle" x="155.71" y="-92.62" font-family="Times,serif" font-size="14.00">a, B → ε</text>
</g>
<!-- q1&#45;&gt;q1 -->
<g id="edge3" class="edge">
<title>q1&#45;&gt;q1</title>
<path fill="none" stroke="black" d="M143.27,-69.71C138.13,-101.01 142.28,-138.92 155.71,-138.92 167.57,-138.92 172.19,-109.37 169.57,-80.91"/>
<polygon fill="black" stroke="black" points="173.07,-80.69 168.34,-71.21 166.12,-81.57 173.07,-80.69"/>
<text xml:space="preserve" text-anchor="middle" x="155.71" y="-175.12" font-family="Times,serif" font-size="14.00">b, $ → B$</text>
<text xml:space="preserve" text-anchor="middle" x="155.71" y="-158.62" font-family="Times,serif" font-size="14.00">b, B → BB</text>
<text xml:space="preserve" text-anchor="middle" x="155.71" y="-142.12" font-family="Times,serif" font-size="14.00">b, A → ε</text>
</g>
<!-- q2 -->
<g id="node3" class="node">
<title>q2</title>
<ellipse fill="#f2fff2" stroke="#7b1113" cx="297.42" cy="-35.71" rx="18" ry="18"/>
<ellipse fill="none" stroke="#7b1113" cx="297.42" cy="-35.71" rx="22" ry="22"/>
<text xml:space="preserve" text-anchor="middle" x="297.42" y="-32.38" font-family="Times,serif" font-size="11.00">q₂</text>
</g>
<!-- q1&#45;&gt;q2 -->
<g id="edge4" class="edge">
<title>q1&#45;&gt;q2</title>
<path fill="none" stroke="black" d="M191.6,-35.71C213.7,-35.71 242.08,-35.71 263.74,-35.71"/>
<polygon fill="black" stroke="black" points="263.48,-39.21 273.48,-35.71 263.48,-32.21 263.48,-39.21"/>
<text xml:space="preserve" text-anchor="middle" x="233.42" y="-38.91" font-family="Times,serif" font-size="14.00">ε, $ → ε</text>
</g>
</g>
</svg>
