<?xml version="1.0" encoding="UTF-8" standalone="no"?>
<!DOCTYPE svg PUBLIC "-//W3C//DTD SVG 1.1//EN"
 "http://www.w3.org/Graphics/SVG/1.1/DTD/svg11.dtd">
<!-- Generated by graphviz version 14.0.2 (20251019.1705)
 -->
<!-- Title: Q11 Pages: 1 -->
<svg width="345pt" height="306pt"
 viewBox="0.00 0.00 345.00 306.00" xmlns="http://www.w3.org/2000/svg" xmlns:xlink="http://www.w3.org/1999/xlink">
<g id="graph0" class="graph" transform="scale(1 1) rotate(0) translate(4 301.6)">
<title>Q11</title>
<polygon fill="white" stroke="none" points="-4,4 -4,-301.6 340.75,-301.6 340.75,4 -4,4"/>
<!-- S -->
<g id="node1" class="node">
<title>S</title>
<ellipse fill="#f9f9f9" stroke="black" cx="144.62" cy="-279.6" rx="18" ry="18"/>
<text xml:space="preserve" text-anchor="middle" x="144.62" y="-274.55" font-family="Times,serif" font-size="14.00">S</text>
</g>
<!-- X -->
<g id="node2" class="node">
<title>X</title>
<ellipse fill="#f9f9f9" stroke="black" cx="116.62" cy="-206.6" rx="18" ry="18"/>
<text xml:space="preserve" text-anchor="middle" x="116.62" y="-201.55" font-family="Times,serif" font-size="14.00">X</text>
</g>
<!-- S&#45;&gt;X -->
<g id="edge1" class="edge">
<title>S&#45;&gt;X</title>
<path fill="none" stroke="black" d="M138.27,-262.48C134.97,-254.13 130.86,-243.72 127.11,-234.21"/>
<polygon fill="black" stroke="black" points="130.43,-233.07 123.5,-225.05 123.92,-235.64 130.43,-233.07"/>
</g>
<!-- Y -->
<g id="node3" class="node">
<title>Y</title>
<ellipse fill="#f9f9f9" stroke="black" cx="219.62" cy="-206.6" rx="18" ry="18"/>
<text xml:space="preserve" text-anchor="middle" x="219.62" y="-201.55" font-family="Times,serif" font-size="14.00">Y</text>
</g>
<!-- S&#45;&gt;Y -->
<g id="edge2" class="edge">
<title>S&#45;&gt;Y</title>
<path fill="none" stroke="black" d="M157.34,-266.55C168.66,-255.84 185.41,-239.98 198.7,-227.4"/>
<polygon fill="black" stroke="black" points="200.88,-230.16 205.74,-220.74 196.07,-225.07 200.88,-230.16"/>
</g>
<!-- a1 -->
<g id="node4" class="node">
<title>a1</title>
<ellipse fill="#f9f9f9" stroke="black" cx="19.62" cy="-113.92" rx="19.62" ry="19.62"/>
<text xml:space="preserve" text-anchor="middle" x="19.62" y="-108.87" font-family="Times,serif" font-size="14.00">a1</text>
</g>
<!-- X&#45;&gt;a1 -->
<g id="edge3" class="edge">
<title>X&#45;&gt;a1</title>
<path fill="none" stroke="black" d="M103.94,-193.74C88.17,-179 61,-153.6 41.77,-135.62"/>
<polygon fill="black" stroke="black" points="44.36,-133.25 34.66,-128.98 39.58,-138.37 44.36,-133.25"/>
<text xml:space="preserve" text-anchor="middle" x="79.81" y="-157.3" font-family="Times,serif" font-size="14.00">a</text>
</g>
<!-- Xp -->
<g id="node5" class="node">
<title>Xp</title>
<ellipse fill="#f9f9f9" stroke="black" cx="79.62" cy="-113.92" rx="22.18" ry="22.18"/>
<text xml:space="preserve" text-anchor="middle" x="79.62" y="-108.87" font-family="Times,serif" font-size="14.00">Xp</text>
</g>
<!-- X&#45;&gt;Xp -->
<g id="edge4" class="edge">
<title>X&#45;&gt;Xp</title>
<path fill="none" stroke="black" d="M110,-189.38C104.99,-177.09 97.95,-159.83 91.9,-145.03"/>
<polygon fill="black" stroke="black" points="95.32,-144.12 88.3,-136.19 88.84,-146.77 95.32,-144.12"/>
<text xml:space="preserve" text-anchor="middle" x="106.31" y="-157.3" font-family="Times,serif" font-size="14.00">X</text>
</g>
<!-- b1 -->
<g id="node6" class="node">
<title>b1</title>
<ellipse fill="#f9f9f9" stroke="black" cx="139.62" cy="-113.92" rx="20.13" ry="20.13"/>
<text xml:space="preserve" text-anchor="middle" x="139.62" y="-108.87" font-family="Times,serif" font-size="14.00">b1</text>
</g>
<!-- X&#45;&gt;b1 -->
<g id="edge5" class="edge">
<title>X&#45;&gt;b1</title>
<path fill="none" stroke="black" d="M120.84,-188.96C123.95,-176.7 128.27,-159.67 131.98,-145.04"/>
<polygon fill="black" stroke="black" points="135.35,-145.97 134.42,-135.42 128.57,-144.25 135.35,-145.97"/>
<text xml:space="preserve" text-anchor="middle" x="132.87" y="-157.3" font-family="Times,serif" font-size="14.00">b</text>
</g>
<!-- c1 -->
<g id="node8" class="node">
<title>c1</title>
<ellipse fill="#f9f9f9" stroke="black" cx="197.62" cy="-113.92" rx="19.62" ry="19.62"/>
<text xml:space="preserve" text-anchor="middle" x="197.62" y="-108.87" font-family="Times,serif" font-size="14.00">c1</text>
</g>
<!-- Y&#45;&gt;c1 -->
<g id="edge7" class="edge">
<title>Y&#45;&gt;c1</title>
<path fill="none" stroke="black" d="M215.58,-188.96C212.57,-176.54 208.37,-159.22 204.79,-144.46"/>
<polygon fill="black" stroke="black" points="208.2,-143.68 202.44,-134.79 201.4,-145.33 208.2,-143.68"/>
<text xml:space="preserve" text-anchor="middle" x="213.59" y="-157.3" font-family="Times,serif" font-size="14.00">c</text>
</g>
<!-- Yp -->
<g id="node9" class="node">
<title>Yp</title>
<ellipse fill="#f9f9f9" stroke="black" cx="256.62" cy="-113.92" rx="21.67" ry="21.67"/>
<text xml:space="preserve" text-anchor="middle" x="256.62" y="-108.87" font-family="Times,serif" font-size="14.00">Yp</text>
</g>
<!-- Y&#45;&gt;Yp -->
<g id="edge8" class="edge">
<title>Y&#45;&gt;Yp</title>
<path fill="none" stroke="black" d="M226.23,-189.38C231.29,-177 238.39,-159.6 244.45,-144.73"/>
<polygon fill="black" stroke="black" points="247.54,-146.44 248.07,-135.86 241.06,-143.8 247.54,-146.44"/>
<text xml:space="preserve" text-anchor="middle" x="245.21" y="-157.3" font-family="Times,serif" font-size="14.00">Y</text>
</g>
<!-- d1 -->
<g id="node10" class="node">
<title>d1</title>
<ellipse fill="#f9f9f9" stroke="black" cx="316.62" cy="-113.92" rx="20.13" ry="20.13"/>
<text xml:space="preserve" text-anchor="middle" x="316.62" y="-108.87" font-family="Times,serif" font-size="14.00">d1</text>
</g>
<!-- Y&#45;&gt;d1 -->
<g id="edge9" class="edge">
<title>Y&#45;&gt;d1</title>
<path fill="none" stroke="black" d="M232.3,-193.74C247.98,-179.09 274.93,-153.89 294.14,-135.93"/>
<polygon fill="black" stroke="black" points="296.34,-138.67 301.25,-129.28 291.56,-133.55 296.34,-138.67"/>
<text xml:space="preserve" text-anchor="middle" x="277.3" y="-157.3" font-family="Times,serif" font-size="14.00">d</text>
</g>
<!-- ab -->
<g id="node7" class="node">
<title>ab</title>
<ellipse fill="#f9f9f9" stroke="black" cx="79.62" cy="-19.62" rx="19.62" ry="19.62"/>
<text xml:space="preserve" text-anchor="middle" x="79.62" y="-14.57" font-family="Times,serif" font-size="14.00">ab</text>
</g>
<!-- Xp&#45;&gt;ab -->
<g id="edge6" class="edge">
<title>Xp&#45;&gt;ab</title>
<path fill="none" stroke="black" d="M79.62,-91.51C79.62,-79.52 79.62,-64.37 79.62,-51.16"/>
<polygon fill="black" stroke="black" points="83.12,-51.23 79.62,-41.23 76.12,-51.23 83.12,-51.23"/>
<text xml:space="preserve" text-anchor="middle" x="85.99" y="-60.44" font-family="Times,serif" font-size="14.00">ab</text>
</g>
<!-- cd -->
<g id="node11" class="node">
<title>cd</title>
<ellipse fill="#f9f9f9" stroke="black" cx="256.62" cy="-19.62" rx="19.62" ry="19.62"/>
<text xml:space="preserve" text-anchor="middle" x="256.62" y="-14.57" font-family="Times,serif" font-size="14.00">cd</text>
</g>
<!-- Yp&#45;&gt;cd -->
<g id="edge10" class="edge">
<title>Yp&#45;&gt;cd</title>
<path fill="none" stroke="black" d="M256.62,-91.97C256.62,-79.8 256.62,-64.24 256.62,-50.77"/>
<polygon fill="black" stroke="black" points="260.12,-51.11 256.62,-41.11 253.12,-51.11 260.12,-51.11"/>
<text xml:space="preserve" text-anchor="middle" x="262.99" y="-60.44" font-family="Times,serif" font-size="14.00">cd</text>
</g>
</g>
</svg>
