<?xml version="1.0" encoding="UTF-8" standalone="no"?>
<!DOCTYPE svg PUBLIC "-//W3C//DTD SVG 1.1//EN"
 "http://www.w3.org/Graphics/SVG/1.1/DTD/svg11.dtd">
<!-- Generated by graphviz version 14.0.2 (20251019.1705)
 -->
<!-- Title: Q9 Pages: 1 -->
<svg width="293pt" height="318pt"
 viewBox="0.00 0.00 293.00 318.00" xmlns="http://www.w3.org/2000/svg" xmlns:xlink="http://www.w3.org/1999/xlink">
<g id="graph0" class="graph" transform="scale(1 1) rotate(0) translate(4 314.05)">
<title>Q9</title>
<polygon fill="white" stroke="none" points="-4,4 -4,-314.05 289.24,-314.05 289.24,4 -4,4"/>
<!-- S -->
<g id="node1" class="node">
<title>S</title>
<ellipse fill="#f9f9f9" stroke="black" cx="108.62" cy="-292.05" rx="18" ry="18"/>
<text xml:space="preserve" text-anchor="middle" x="108.62" y="-287" font-family="Times,serif" font-size="14.00">S</text>
</g>
<!-- A -->
<g id="node2" class="node">
<title>A</title>
<ellipse fill="#f9f9f9" stroke="black" cx="79.62" cy="-200.9" rx="18" ry="18"/>
<text xml:space="preserve" text-anchor="middle" x="79.62" y="-195.85" font-family="Times,serif" font-size="14.00">A</text>
</g>
<!-- S&#45;&gt;A -->
<g id="edge1" class="edge">
<title>S&#45;&gt;A</title>
<path fill="none" stroke="black" d="M103.3,-274.7C99.16,-261.96 93.31,-244 88.47,-229.11"/>
<polygon fill="black" stroke="black" points="91.89,-228.32 85.47,-219.89 85.24,-230.48 91.89,-228.32"/>
</g>
<!-- Sp -->
<g id="node3" class="node">
<title>Sp</title>
<ellipse fill="#f9f9f9" stroke="black" cx="163.62" cy="-200.9" rx="20.64" ry="20.64"/>
<text xml:space="preserve" text-anchor="middle" x="163.62" y="-195.85" font-family="Times,serif" font-size="14.00">Sp</text>
</g>
<!-- S&#45;&gt;Sp -->
<g id="edge2" class="edge">
<title>S&#45;&gt;Sp</title>
<path fill="none" stroke="black" d="M117.7,-276.33C125.66,-263.43 137.43,-244.35 147.06,-228.74"/>
<polygon fill="black" stroke="black" points="149.95,-230.72 152.22,-220.38 143.99,-227.05 149.95,-230.72"/>
<text xml:space="preserve" text-anchor="middle" x="144.29" y="-242.75" font-family="Times,serif" font-size="14.00">S&#39;</text>
</g>
<!-- a1 -->
<g id="node4" class="node">
<title>a1</title>
<ellipse fill="#f9f9f9" stroke="black" cx="19.62" cy="-102.51" rx="19.62" ry="19.62"/>
<text xml:space="preserve" text-anchor="middle" x="19.62" y="-97.46" font-family="Times,serif" font-size="14.00">a1</text>
</g>
<!-- A&#45;&gt;a1 -->
<g id="edge3" class="edge">
<title>A&#45;&gt;a1</title>
<path fill="none" stroke="black" d="M70.51,-185.26C61.26,-170.4 46.74,-147.09 35.58,-129.15"/>
<polygon fill="black" stroke="black" points="38.68,-127.5 30.42,-120.86 32.73,-131.2 38.68,-127.5"/>
</g>
<!-- A2 -->
<g id="node5" class="node">
<title>A2</title>
<ellipse fill="#f9f9f9" stroke="black" cx="79.62" cy="-102.51" rx="22.18" ry="22.18"/>
<text xml:space="preserve" text-anchor="middle" x="79.62" y="-97.46" font-family="Times,serif" font-size="14.00">A2</text>
</g>
<!-- A&#45;&gt;A2 -->
<g id="edge4" class="edge">
<title>A&#45;&gt;A2</title>
<path fill="none" stroke="black" d="M79.62,-182.67C79.62,-169.81 79.62,-151.85 79.62,-136.29"/>
<polygon fill="black" stroke="black" points="83.12,-136.49 79.62,-126.49 76.12,-136.49 83.12,-136.49"/>
<text xml:space="preserve" text-anchor="middle" x="84.49" y="-148.96" font-family="Times,serif" font-size="14.00">A</text>
</g>
<!-- b1 -->
<g id="node7" class="node">
<title>b1</title>
<ellipse fill="#f9f9f9" stroke="black" cx="139.62" cy="-102.51" rx="20.13" ry="20.13"/>
<text xml:space="preserve" text-anchor="middle" x="139.62" y="-97.46" font-family="Times,serif" font-size="14.00">b1</text>
</g>
<!-- Sp&#45;&gt;b1 -->
<g id="edge6" class="edge">
<title>Sp&#45;&gt;b1</title>
<path fill="none" stroke="black" d="M158.76,-180.4C155.4,-166.9 150.86,-148.67 147.05,-133.35"/>
<polygon fill="black" stroke="black" points="150.48,-132.66 144.67,-123.8 143.69,-134.35 150.48,-132.66"/>
</g>
<!-- Sp2 -->
<g id="node8" class="node">
<title>Sp2</title>
<ellipse fill="#f9f9f9" stroke="black" cx="202.62" cy="-102.51" rx="25.25" ry="25.25"/>
<text xml:space="preserve" text-anchor="middle" x="202.62" y="-97.46" font-family="Times,serif" font-size="14.00">Sp2</text>
</g>
<!-- Sp&#45;&gt;Sp2 -->
<g id="edge7" class="edge">
<title>Sp&#45;&gt;Sp2</title>
<path fill="none" stroke="black" d="M171.14,-181.32C176.23,-168.73 183.11,-151.74 189.13,-136.84"/>
<polygon fill="black" stroke="black" points="192.26,-138.45 192.77,-127.87 185.77,-135.82 192.26,-138.45"/>
<text xml:space="preserve" text-anchor="middle" x="190.33" y="-148.96" font-family="Times,serif" font-size="14.00">S&#39;</text>
</g>
<!-- c1 -->
<g id="node9" class="node">
<title>c1</title>
<ellipse fill="#f9f9f9" stroke="black" cx="265.62" cy="-102.51" rx="19.62" ry="19.62"/>
<text xml:space="preserve" text-anchor="middle" x="265.62" y="-97.46" font-family="Times,serif" font-size="14.00">c1</text>
</g>
<!-- Sp&#45;&gt;c1 -->
<g id="edge8" class="edge">
<title>Sp&#45;&gt;c1</title>
<path fill="none" stroke="black" d="M178.23,-186.09C195.32,-169.95 223.76,-143.07 243.54,-124.38"/>
<polygon fill="black" stroke="black" points="245.72,-127.13 250.59,-117.72 240.92,-122.04 245.72,-127.13"/>
</g>
<!-- a2 -->
<g id="node6" class="node">
<title>a2</title>
<ellipse fill="#f9f9f9" stroke="black" cx="79.62" cy="-20.13" rx="19.62" ry="19.62"/>
<text xml:space="preserve" text-anchor="middle" x="79.62" y="-15.08" font-family="Times,serif" font-size="14.00">a2</text>
</g>
<!-- A2&#45;&gt;a2 -->
<g id="edge5" class="edge">
<title>A2&#45;&gt;a2</title>
<path fill="none" stroke="black" d="M79.62,-79.97C79.62,-71.21 79.62,-60.93 79.62,-51.43"/>
<polygon fill="black" stroke="black" points="83.12,-51.51 79.62,-41.51 76.12,-51.51 83.12,-51.51"/>
</g>
<!-- b2 -->
<g id="node10" class="node">
<title>b2</title>
<ellipse fill="#f9f9f9" stroke="black" cx="173.62" cy="-20.13" rx="20.13" ry="20.13"/>
<text xml:space="preserve" text-anchor="middle" x="173.62" y="-15.08" font-family="Times,serif" font-size="14.00">b2</text>
</g>
<!-- Sp2&#45;&gt;b2 -->
<g id="edge9" class="edge">
<title>Sp2&#45;&gt;b2</title>
<path fill="none" stroke="black" d="M194.23,-78.26C191.07,-69.49 187.43,-59.41 184.1,-50.18"/>
<polygon fill="black" stroke="black" points="187.44,-49.12 180.75,-40.91 180.86,-51.5 187.44,-49.12"/>
</g>
<!-- c2 -->
<g id="node11" class="node">
<title>c2</title>
<ellipse fill="#f9f9f9" stroke="black" cx="231.62" cy="-20.13" rx="19.62" ry="19.62"/>
<text xml:space="preserve" text-anchor="middle" x="231.62" y="-15.08" font-family="Times,serif" font-size="14.00">c2</text>
</g>
<!-- Sp2&#45;&gt;c2 -->
<g id="edge10" class="edge">
<title>Sp2&#45;&gt;c2</title>
<path fill="none" stroke="black" d="M211.01,-78.26C214.22,-69.36 217.92,-59.11 221.29,-49.76"/>
<polygon fill="black" stroke="black" points="224.57,-50.98 224.67,-40.39 217.99,-48.61 224.57,-50.98"/>
</g>
</g>
</svg>
