<?xml version="1.0" encoding="UTF-8" standalone="no"?>
<!DOCTYPE svg PUBLIC "-//W3C//DTD SVG 1.1//EN"
 "http://www.w3.org/Graphics/SVG/1.1/DTD/svg11.dtd">
<!-- Generated by graphviz version 14.0.2 (20251019.1705)
 -->
<!-- Title: PDA_palindrome Pages: 1 -->
<svg width="561pt" height="221pt"
 viewBox="0.00 0.00 561.00 221.00" xmlns="http://www.w3.org/2000/svg" xmlns:xlink="http://www.w3.org/1999/xlink">
<g id="graph0" class="graph" transform="scale(1 1) rotate(0) translate(4 217.31)">
<title>PDA_palindrome</title>
<polygon fill="white" stroke="none" points="-4,4 -4,-217.31 556.79,-217.31 556.79,4 -4,4"/>
<!-- q0 -->
<g id="node1" class="node">
<title>q0</title>
<ellipse fill="#fff8f8" stroke="#7b1113" cx="30.41" cy="-43.13" rx="30.41" ry="30.41"/>
<text xml:space="preserve" text-anchor="middle" x="30.41" y="-46.56" font-family="Times,serif" font-size="11.00">q₀</text>
<text xml:space="preserve" text-anchor="middle" x="30.41" y="-32.31" font-family="Times,serif" font-size="11.00">(start)</text>
</g>
<!-- q1 -->
<g id="node2" class="node">
<title>q1</title>
<ellipse fill="#f8f8f8" stroke="#7b1113" cx="179.99" cy="-43.13" rx="35.18" ry="35.18"/>
<text xml:space="preserve" text-anchor="middle" x="179.99" y="-46.56" font-family="Times,serif" font-size="11.00">q₁</text>
<text xml:space="preserve" text-anchor="middle" x="179.99" y="-32.31" font-family="Times,serif" font-size="11.00">push W</text>
</g>
<!-- q0&#45;&gt;q1 -->
<g id="edge1" class="edge">
<title>q0&#45;&gt;q1</title>
<path fill="none" stroke="black" d="M61.27,-43.13C81.88,-43.13 109.67,-43.13 133.08,-43.13"/>
<polygon fill="black" stroke="black" points="133,-46.63 143,-43.13 133,-39.63 133,-46.63"/>
<text xml:space="preserve" text-anchor="middle" x="102.81" y="-46.33" font-family="Times,serif" font-size="14.00">ε, ε → $</text>
</g>
<!-- q1&#45;&gt;q1 -->
<g id="edge2" class="edge">
<title>q1&#45;&gt;q1</title>
<path fill="none" stroke="black" d="M172.77,-77.91C172.99,-88.26 175.39,-96.31 179.99,-96.31 182.72,-96.31 184.68,-93.47 185.86,-89"/>
<polygon fill="black" stroke="black" points="189.29,-89.76 187.03,-79.42 182.35,-88.92 189.29,-89.76"/>
<text xml:space="preserve" text-anchor="middle" x="179.99" y="-132.51" font-family="Times,serif" font-size="14.00">a, ε → a</text>
<text xml:space="preserve" text-anchor="middle" x="179.99" y="-116.01" font-family="Times,serif" font-size="14.00">a, a → aa</text>
<text xml:space="preserve" text-anchor="middle" x="179.99" y="-99.51" font-family="Times,serif" font-size="14.00">a, b → ab</text>
</g>
<!-- q1&#45;&gt;q1 -->
<g id="edge3" class="edge">
<title>q1&#45;&gt;q1</title>
<path fill="none" stroke="black" d="M167.73,-76.41C162.49,-107.64 166.57,-145.81 179.99,-145.81 191.83,-145.81 196.41,-116.06 193.71,-87.6"/>
<polygon fill="black" stroke="black" points="197.21,-87.37 192.45,-77.91 190.27,-88.28 197.21,-87.37"/>
<text xml:space="preserve" text-anchor="middle" x="179.99" y="-182.01" font-family="Times,serif" font-size="14.00">b, ε → b</text>
<text xml:space="preserve" text-anchor="middle" x="179.99" y="-165.51" font-family="Times,serif" font-size="14.00">b, a → ba</text>
<text xml:space="preserve" text-anchor="middle" x="179.99" y="-149.01" font-family="Times,serif" font-size="14.00">b, b → bb</text>
</g>
<!-- q2 -->
<g id="node3" class="node">
<title>q2</title>
<ellipse fill="#f8f8f8" stroke="#7b1113" cx="343.05" cy="-43.13" rx="43.13" ry="43.13"/>
<text xml:space="preserve" text-anchor="middle" x="343.05" y="-46.56" font-family="Times,serif" font-size="11.00">q₂</text>
<text xml:space="preserve" text-anchor="middle" x="343.05" y="-32.31" font-family="Times,serif" font-size="11.00">match Wᴿ</text>
</g>
<!-- q1&#45;&gt;q2 -->
<g id="edge4" class="edge">
<title>q1&#45;&gt;q2</title>
<path fill="none" stroke="black" d="M215.54,-43.13C236.67,-43.13 264.15,-43.13 288.1,-43.13"/>
<polygon fill="black" stroke="black" points="288.02,-46.63 298.02,-43.13 288.02,-39.63 288.02,-46.63"/>
<text xml:space="preserve" text-anchor="middle" x="257.54" y="-62.83" font-family="Times,serif" font-size="14.00">c, a → a</text>
<text xml:space="preserve" text-anchor="middle" x="257.54" y="-46.33" font-family="Times,serif" font-size="14.00">c, b → b</text>
</g>
<!-- q2&#45;&gt;q2 -->
<g id="edge5" class="edge">
<title>q2&#45;&gt;q2</title>
<path fill="none" stroke="black" d="M327.15,-83.7C327.78,-95.31 333.08,-104.27 343.05,-104.27 349.44,-104.27 353.92,-100.59 356.47,-94.9"/>
<polygon fill="black" stroke="black" points="359.88,-95.7 358.62,-85.18 353.04,-94.18 359.88,-95.7"/>
<text xml:space="preserve" text-anchor="middle" x="343.05" y="-123.97" font-family="Times,serif" font-size="14.00">a, a → ε</text>
<text xml:space="preserve" text-anchor="middle" x="343.05" y="-107.47" font-family="Times,serif" font-size="14.00">b, b → ε</text>
</g>
<!-- q3 -->
<g id="node4" class="node">
<title>q3</title>
<ellipse fill="#f2fff2" stroke="#7b1113" cx="511.49" cy="-43.13" rx="37.3" ry="37.3"/>
<ellipse fill="none" stroke="#7b1113" cx="511.49" cy="-43.13" rx="41.3" ry="41.3"/>
<text xml:space="preserve" text-anchor="middle" x="511.49" y="-46.56" font-family="Times,serif" font-size="11.00">q₃</text>
<text xml:space="preserve" text-anchor="middle" x="511.49" y="-32.31" font-family="Times,serif" font-size="11.00">(accept)</text>
</g>
<!-- q2&#45;&gt;q3 -->
<g id="edge6" class="edge">
<title>q2&#45;&gt;q3</title>
<path fill="none" stroke="black" d="M386.48,-43.13C408.4,-43.13 435.33,-43.13 458.48,-43.13"/>
<polygon fill="black" stroke="black" points="458.34,-46.63 468.34,-43.13 458.34,-39.63 458.34,-46.63"/>
<text xml:space="preserve" text-anchor="middle" x="428.19" y="-46.33" font-family="Times,serif" font-size="14.00">ε, $ → ε</text>
</g>
</g>
</svg>
