<?xml version="1.0" encoding="UTF-8" standalone="no"?>
<!DOCTYPE svg PUBLIC "-//W3C//DTD SVG 1.1//EN"
 "http://www.w3.org/Graphics/SVG/1.1/DTD/svg11.dtd">
<!-- Generated by graphviz version 14.0.2 (20251019.1705)
 -->
<!-- Title: Q10 Pages: 1 -->
<svg width="163pt" height="384pt"
 viewBox="0.00 0.00 163.00 384.00" xmlns="http://www.w3.org/2000/svg" xmlns:xlink="http://www.w3.org/1999/xlink">
<g id="graph0" class="graph" transform="scale(1 1) rotate(0) translate(4 379.88)">
<title>Q10</title>
<polygon fill="white" stroke="none" points="-4,4 -4,-379.88 159.24,-379.88 159.24,4 -4,4"/>
<!-- S1 -->
<g id="node1" class="node">
<title>S1</title>
<ellipse fill="#f9f9f9" stroke="black" cx="77.62" cy="-357.88" rx="18" ry="18"/>
<text xml:space="preserve" text-anchor="middle" x="77.62" y="-352.83" font-family="Times,serif" font-size="14.00">S</text>
</g>
<!-- a1 -->
<g id="node2" class="node">
<title>a1</title>
<ellipse fill="#f9f9f9" stroke="black" cx="19.62" cy="-266.74" rx="19.62" ry="19.62"/>
<text xml:space="preserve" text-anchor="middle" x="19.62" y="-261.69" font-family="Times,serif" font-size="14.00">a1</text>
</g>
<!-- S1&#45;&gt;a1 -->
<g id="edge1" class="edge">
<title>S1&#45;&gt;a1</title>
<path fill="none" stroke="black" d="M68.04,-342.16C59.36,-328.81 46.37,-308.85 36.03,-292.96"/>
<polygon fill="black" stroke="black" points="39.21,-291.43 30.82,-284.95 33.34,-295.24 39.21,-291.43"/>
<text xml:space="preserve" text-anchor="middle" x="56.81" y="-308.58" font-family="Times,serif" font-size="14.00">a</text>
</g>
<!-- S2 -->
<g id="node3" class="node">
<title>S2</title>
<ellipse fill="#f9f9f9" stroke="black" cx="77.62" cy="-266.74" rx="20.64" ry="20.64"/>
<text xml:space="preserve" text-anchor="middle" x="77.62" y="-261.69" font-family="Times,serif" font-size="14.00">S2</text>
</g>
<!-- S1&#45;&gt;S2 -->
<g id="edge2" class="edge">
<title>S1&#45;&gt;S2</title>
<path fill="none" stroke="black" d="M77.62,-339.69C77.62,-328.19 77.62,-312.71 77.62,-299.06"/>
<polygon fill="black" stroke="black" points="81.12,-299.19 77.62,-289.19 74.12,-299.19 81.12,-299.19"/>
<text xml:space="preserve" text-anchor="middle" x="81.37" y="-308.58" font-family="Times,serif" font-size="14.00">S</text>
</g>
<!-- c1 -->
<g id="node4" class="node">
<title>c1</title>
<ellipse fill="#f9f9f9" stroke="black" cx="135.62" cy="-266.74" rx="19.62" ry="19.62"/>
<text xml:space="preserve" text-anchor="middle" x="135.62" y="-261.69" font-family="Times,serif" font-size="14.00">c1</text>
</g>
<!-- S1&#45;&gt;c1 -->
<g id="edge3" class="edge">
<title>S1&#45;&gt;c1</title>
<path fill="none" stroke="black" d="M87.2,-342.16C95.88,-328.81 108.87,-308.85 119.21,-292.96"/>
<polygon fill="black" stroke="black" points="121.9,-295.24 124.42,-284.95 116.03,-291.43 121.9,-295.24"/>
<text xml:space="preserve" text-anchor="middle" x="113.09" y="-308.58" font-family="Times,serif" font-size="14.00">c</text>
</g>
<!-- B -->
<g id="node5" class="node">
<title>B</title>
<ellipse fill="#f9f9f9" stroke="black" cx="77.62" cy="-191.1" rx="18" ry="18"/>
<text xml:space="preserve" text-anchor="middle" x="77.62" y="-186.05" font-family="Times,serif" font-size="14.00">B</text>
</g>
<!-- S2&#45;&gt;B -->
<g id="edge4" class="edge">
<title>S2&#45;&gt;B</title>
<path fill="none" stroke="black" d="M77.62,-245.61C77.62,-237.86 77.62,-228.85 77.62,-220.45"/>
<polygon fill="black" stroke="black" points="81.12,-220.71 77.62,-210.71 74.12,-220.71 81.12,-220.71"/>
</g>
<!-- b1 -->
<g id="node6" class="node">
<title>b1</title>
<ellipse fill="#f9f9f9" stroke="black" cx="61.62" cy="-98.93" rx="20.13" ry="20.13"/>
<text xml:space="preserve" text-anchor="middle" x="61.62" y="-93.88" font-family="Times,serif" font-size="14.00">b1</text>
</g>
<!-- B&#45;&gt;b1 -->
<g id="edge5" class="edge">
<title>B&#45;&gt;b1</title>
<path fill="none" stroke="black" d="M74.61,-173.14C72.47,-161.1 69.55,-144.61 67.01,-130.33"/>
<polygon fill="black" stroke="black" points="70.46,-129.72 65.27,-120.49 63.57,-130.95 70.46,-129.72"/>
</g>
<!-- B2 -->
<g id="node7" class="node">
<title>B2</title>
<ellipse fill="#f9f9f9" stroke="black" cx="121.62" cy="-98.93" rx="21.67" ry="21.67"/>
<text xml:space="preserve" text-anchor="middle" x="121.62" y="-93.88" font-family="Times,serif" font-size="14.00">B2</text>
</g>
<!-- B&#45;&gt;B2 -->
<g id="edge6" class="edge">
<title>B&#45;&gt;B2</title>
<path fill="none" stroke="black" d="M85.28,-174.39C91.41,-161.84 100.15,-143.93 107.53,-128.81"/>
<polygon fill="black" stroke="black" points="110.46,-130.77 111.7,-120.25 104.17,-127.7 110.46,-130.77"/>
<text xml:space="preserve" text-anchor="middle" x="106.75" y="-141.8" font-family="Times,serif" font-size="14.00">B</text>
</g>
<!-- b2 -->
<g id="node8" class="node">
<title>b2</title>
<ellipse fill="#f9f9f9" stroke="black" cx="121.62" cy="-20.13" rx="20.13" ry="20.13"/>
<text xml:space="preserve" text-anchor="middle" x="121.62" y="-15.08" font-family="Times,serif" font-size="14.00">b2</text>
</g>
<!-- B2&#45;&gt;b2 -->
<g id="edge7" class="edge">
<title>B2&#45;&gt;b2</title>
<path fill="none" stroke="black" d="M121.62,-76.94C121.62,-69.22 121.62,-60.29 121.62,-51.88"/>
<polygon fill="black" stroke="black" points="125.12,-52.02 121.62,-42.02 118.12,-52.02 125.12,-52.02"/>
</g>
</g>
</svg>
