<?xml version="1.0" encoding="UTF-8" standalone="no"?>
<!DOCTYPE svg PUBLIC "-//W3C//DTD SVG 1.1//EN"
 "http://www.w3.org/Graphics/SVG/1.1/DTD/svg11.dtd">
<!-- Generated by graphviz version 14.0.2 (20251019.1705)
 -->
<!-- Title: Q2 Pages: 1 -->
<svg width="169pt" height="233pt"
 viewBox="0.00 0.00 169.00 233.00" xmlns="http://www.w3.org/2000/svg" xmlns:xlink="http://www.w3.org/1999/xlink">
<g id="graph0" class="graph" transform="scale(1 1) rotate(0) translate(4 229.5)">
<title>Q2</title>
<polygon fill="white" stroke="none" points="-4,4 -4,-229.5 165.25,-229.5 165.25,4 -4,4"/>
<!-- S1 -->
<g id="node1" class="node">
<title>S1</title>
<ellipse fill="#f9f9f9" stroke="black" cx="80.63" cy="-207.5" rx="18" ry="18"/>
<text xml:space="preserve" text-anchor="middle" x="80.63" y="-202.07" font-family="Arial" font-size="14.00">S</text>
</g>
<!-- a1 -->
<g id="node2" class="node">
<title>a1</title>
<ellipse fill="#f9f9f9" stroke="black" cx="20.63" cy="-115.37" rx="20.63" ry="20.63"/>
<text xml:space="preserve" text-anchor="middle" x="20.63" y="-109.95" font-family="Arial" font-size="14.00">a1</text>
</g>
<!-- S1&#45;&gt;a1 -->
<g id="edge1" class="edge">
<title>S1&#45;&gt;a1</title>
<path fill="none" stroke="black" d="M70.99,-192.02C62.1,-178.67 48.69,-158.53 37.95,-142.4"/>
<polygon fill="black" stroke="black" points="40.96,-140.6 32.51,-134.22 35.13,-144.48 40.96,-140.6"/>
<text xml:space="preserve" text-anchor="middle" x="59" y="-158.2" font-family="Times,serif" font-size="14.00">a</text>
</g>
<!-- S2 -->
<g id="node3" class="node">
<title>S2</title>
<ellipse fill="#f9f9f9" stroke="black" cx="80.63" cy="-115.37" rx="21.62" ry="21.62"/>
<text xml:space="preserve" text-anchor="middle" x="80.63" y="-109.95" font-family="Arial" font-size="14.00">S2</text>
</g>
<!-- S1&#45;&gt;S2 -->
<g id="edge2" class="edge">
<title>S1&#45;&gt;S2</title>
<path fill="none" stroke="black" d="M80.63,-189.12C80.63,-177.65 80.63,-162.27 80.63,-148.6"/>
<polygon fill="black" stroke="black" points="84.13,-148.69 80.63,-138.69 77.13,-148.69 84.13,-148.69"/>
<text xml:space="preserve" text-anchor="middle" x="84.38" y="-158.2" font-family="Times,serif" font-size="14.00">S</text>
</g>
<!-- b1 -->
<g id="node4" class="node">
<title>b1</title>
<ellipse fill="#f9f9f9" stroke="black" cx="140.63" cy="-115.37" rx="20.63" ry="20.63"/>
<text xml:space="preserve" text-anchor="middle" x="140.63" y="-109.95" font-family="Arial" font-size="14.00">b1</text>
</g>
<!-- S1&#45;&gt;b1 -->
<g id="edge3" class="edge">
<title>S1&#45;&gt;b1</title>
<path fill="none" stroke="black" d="M90.27,-192.02C99.15,-178.67 112.56,-158.53 123.3,-142.4"/>
<polygon fill="black" stroke="black" points="126.12,-144.48 128.74,-134.22 120.29,-140.6 126.12,-144.48"/>
<text xml:space="preserve" text-anchor="middle" x="117.59" y="-158.2" font-family="Times,serif" font-size="14.00">b</text>
</g>
<!-- a2 -->
<g id="node5" class="node">
<title>a2</title>
<ellipse fill="#f9f9f9" stroke="black" cx="50.63" cy="-20.63" rx="20.63" ry="20.63"/>
<text xml:space="preserve" text-anchor="middle" x="50.63" y="-15.2" font-family="Arial" font-size="14.00">a2</text>
</g>
<!-- S2&#45;&gt;a2 -->
<g id="edge4" class="edge">
<title>S2&#45;&gt;a2</title>
<path fill="none" stroke="black" d="M74.12,-94.25C70.06,-81.72 64.78,-65.38 60.25,-51.38"/>
<polygon fill="black" stroke="black" points="63.69,-50.64 57.28,-42.2 57.03,-52.79 63.69,-50.64"/>
<text xml:space="preserve" text-anchor="middle" x="70.42" y="-62.45" font-family="Times,serif" font-size="14.00">a</text>
</g>
<!-- ab -->
<g id="node6" class="node">
<title>ab</title>
<ellipse fill="#f9f9f9" stroke="black" cx="109.63" cy="-20.63" rx="20.63" ry="20.63"/>
<text xml:space="preserve" text-anchor="middle" x="109.63" y="-15.2" font-family="Arial" font-size="14.00">ab</text>
</g>
<!-- S2&#45;&gt;ab -->
<g id="edge5" class="edge">
<title>S2&#45;&gt;ab</title>
<path fill="none" stroke="black" d="M86.92,-94.25C90.83,-81.72 95.94,-65.38 100.32,-51.38"/>
<polygon fill="black" stroke="black" points="103.55,-52.79 103.19,-42.2 96.87,-50.7 103.55,-52.79"/>
<text xml:space="preserve" text-anchor="middle" x="104.1" y="-62.45" font-family="Times,serif" font-size="14.00">ab</text>
</g>
</g>
</svg>
