<?xml version="1.0" encoding="UTF-8" standalone="no"?>
<!DOCTYPE svg PUBLIC "-//W3C//DTD SVG 1.1//EN"
 "http://www.w3.org/Graphics/SVG/1.1/DTD/svg11.dtd">
<!-- Generated by graphviz version 14.0.2 (20251019.1705)
 -->
<!-- Title: StackTrace_anbn Pages: 1 -->
<svg width="1096pt" height="101pt"
 viewBox="0.00 0.00 1096.00 101.00" xmlns="http://www.w3.org/2000/svg" xmlns:xlink="http://www.w3.org/1999/xlink">
<g id="graph0" class="graph" transform="scale(1 1) rotate(0) translate(4 97.25)">
<title>StackTrace_anbn</title>
<polygon fill="white" stroke="none" points="-4,4 -4,-97.25 1092.25,-97.25 1092.25,4 -4,4"/>
<!-- s0 -->
<g id="node1" class="node">
<title>s0</title>
<polygon fill="#fff8f8" stroke="black" points="0,-15.5 0,-77.75 54,-77.75 54,-15.5 0,-15.5"/>
<text xml:space="preserve" text-anchor="middle" x="27" y="-64.25" font-family="Times,serif" font-size="10.00">q₀</text>
<polyline fill="none" stroke="black" points="0,-57.75 54,-57.75"/>
<text xml:space="preserve" text-anchor="middle" x="27" y="-44.25" font-family="Times,serif" font-size="10.00">aaabbb</text>
<polyline fill="none" stroke="black" points="0,-38.5 54,-38.5"/>
<text xml:space="preserve" text-anchor="middle" x="27" y="-25" font-family="Times,serif" font-size="10.00">⊥</text>
</g>
<!-- s1 -->
<g id="node2" class="node">
<title>s1</title>
<polygon fill="#e6f7ff" stroke="black" points="126.75,-17.38 126.75,-75.88 180.75,-75.88 180.75,-17.38 126.75,-17.38"/>
<text xml:space="preserve" text-anchor="middle" x="153.75" y="-62.38" font-family="Times,serif" font-size="10.00">q₁</text>
<polyline fill="none" stroke="black" points="126.75,-55.88 180.75,-55.88"/>
<text xml:space="preserve" text-anchor="middle" x="153.75" y="-42.38" font-family="Times,serif" font-size="10.00">aaabbb</text>
<polyline fill="none" stroke="black" points="126.75,-36.62 180.75,-36.62"/>
<text xml:space="preserve" text-anchor="middle" x="153.75" y="-23.12" font-family="Times,serif" font-size="10.00">$</text>
</g>
<!-- s0&#45;&gt;s1 -->
<g id="edge1" class="edge">
<title>s0&#45;&gt;s1</title>
<path fill="none" stroke="black" d="M54.46,-46.62C72.07,-46.62 95.48,-46.62 115.04,-46.62"/>
<polygon fill="black" stroke="black" points="114.82,-50.13 124.82,-46.63 114.82,-43.13 114.82,-50.13"/>
<text xml:space="preserve" text-anchor="middle" x="90.38" y="-49.83" font-family="Times,serif" font-size="14.00">ε,ε→$</text>
</g>
<!-- s2 -->
<g id="node3" class="node">
<title>s2</title>
<polygon fill="#e6f7ff" stroke="black" points="256.5,-11.75 256.5,-81.5 310.5,-81.5 310.5,-11.75 256.5,-11.75"/>
<text xml:space="preserve" text-anchor="middle" x="283.5" y="-68" font-family="Times,serif" font-size="10.00">q₁</text>
<polyline fill="none" stroke="black" points="256.5,-61.5 310.5,-61.5"/>
<text xml:space="preserve" text-anchor="middle" x="283.5" y="-48" font-family="Times,serif" font-size="10.00">aabbb</text>
<polyline fill="none" stroke="black" points="256.5,-42.25 310.5,-42.25"/>
<text xml:space="preserve" text-anchor="middle" x="283.5" y="-28.75" font-family="Times,serif" font-size="10.00">A</text>
<text xml:space="preserve" text-anchor="middle" x="283.5" y="-17.5" font-family="Times,serif" font-size="10.00">$</text>
</g>
<!-- s1&#45;&gt;s2 -->
<g id="edge2" class="edge">
<title>s1&#45;&gt;s2</title>
<path fill="none" stroke="black" d="M181.22,-46.62C199.55,-46.62 224.22,-46.62 244.62,-46.62"/>
<polygon fill="black" stroke="black" points="244.55,-50.13 254.55,-46.63 244.55,-43.13 244.55,-50.13"/>
<text xml:space="preserve" text-anchor="middle" x="218.62" y="-49.83" font-family="Times,serif" font-size="14.00">a,ε→A</text>
</g>
<!-- s3 -->
<g id="node4" class="node">
<title>s3</title>
<polygon fill="#e6f7ff" stroke="black" points="386.25,-6.12 386.25,-87.12 440.25,-87.12 440.25,-6.12 386.25,-6.12"/>
<text xml:space="preserve" text-anchor="middle" x="413.25" y="-73.62" font-family="Times,serif" font-size="10.00">q₁</text>
<polyline fill="none" stroke="black" points="386.25,-67.12 440.25,-67.12"/>
<text xml:space="preserve" text-anchor="middle" x="413.25" y="-53.62" font-family="Times,serif" font-size="10.00">abbb</text>
<polyline fill="none" stroke="black" points="386.25,-47.88 440.25,-47.88"/>
<text xml:space="preserve" text-anchor="middle" x="413.25" y="-34.38" font-family="Times,serif" font-size="10.00">A</text>
<text xml:space="preserve" text-anchor="middle" x="413.25" y="-23.12" font-family="Times,serif" font-size="10.00">A</text>
<text xml:space="preserve" text-anchor="middle" x="413.25" y="-11.88" font-family="Times,serif" font-size="10.00">$</text>
</g>
<!-- s2&#45;&gt;s3 -->
<g id="edge3" class="edge">
<title>s2&#45;&gt;s3</title>
<path fill="none" stroke="black" d="M310.97,-46.62C329.3,-46.62 353.97,-46.62 374.37,-46.62"/>
<polygon fill="black" stroke="black" points="374.3,-50.13 384.3,-46.63 374.3,-43.13 374.3,-50.13"/>
<text xml:space="preserve" text-anchor="middle" x="348.38" y="-49.83" font-family="Times,serif" font-size="14.00">a,ε→A</text>
</g>
<!-- s4 -->
<g id="node5" class="node">
<title>s4</title>
<polygon fill="#e6f7ff" stroke="black" points="516,-0.5 516,-92.75 570,-92.75 570,-0.5 516,-0.5"/>
<text xml:space="preserve" text-anchor="middle" x="543" y="-79.25" font-family="Times,serif" font-size="10.00">q₁</text>
<polyline fill="none" stroke="black" points="516,-72.75 570,-72.75"/>
<text xml:space="preserve" text-anchor="middle" x="543" y="-59.25" font-family="Times,serif" font-size="10.00">bbb</text>
<polyline fill="none" stroke="black" points="516,-53.5 570,-53.5"/>
<text xml:space="preserve" text-anchor="middle" x="543" y="-40" font-family="Times,serif" font-size="10.00">A</text>
<text xml:space="preserve" text-anchor="middle" x="543" y="-28.75" font-family="Times,serif" font-size="10.00">A</text>
<text xml:space="preserve" text-anchor="middle" x="543" y="-17.5" font-family="Times,serif" font-size="10.00">A</text>
<text xml:space="preserve" text-anchor="middle" x="543" y="-6.25" font-family="Times,serif" font-size="10.00">$</text>
</g>
<!-- s3&#45;&gt;s4 -->
<g id="edge4" class="edge">
<title>s3&#45;&gt;s4</title>
<path fill="none" stroke="black" d="M440.72,-46.62C459.05,-46.62 483.72,-46.62 504.12,-46.62"/>
<polygon fill="black" stroke="black" points="504.05,-50.13 514.05,-46.63 504.05,-43.13 504.05,-50.13"/>
<text xml:space="preserve" text-anchor="middle" x="478.12" y="-49.83" font-family="Times,serif" font-size="14.00">a,ε→A</text>
</g>
<!-- s5 -->
<g id="node6" class="node">
<title>s5</title>
<polygon fill="#fffbe6" stroke="black" points="646.5,-6.12 646.5,-87.12 700.5,-87.12 700.5,-6.12 646.5,-6.12"/>
<text xml:space="preserve" text-anchor="middle" x="673.5" y="-73.62" font-family="Times,serif" font-size="10.00">q₂</text>
<polyline fill="none" stroke="black" points="646.5,-67.12 700.5,-67.12"/>
<text xml:space="preserve" text-anchor="middle" x="673.5" y="-53.62" font-family="Times,serif" font-size="10.00">bb</text>
<polyline fill="none" stroke="black" points="646.5,-47.88 700.5,-47.88"/>
<text xml:space="preserve" text-anchor="middle" x="673.5" y="-34.38" font-family="Times,serif" font-size="10.00">A</text>
<text xml:space="preserve" text-anchor="middle" x="673.5" y="-23.12" font-family="Times,serif" font-size="10.00">A</text>
<text xml:space="preserve" text-anchor="middle" x="673.5" y="-11.88" font-family="Times,serif" font-size="10.00">$</text>
</g>
<!-- s4&#45;&gt;s5 -->
<g id="edge5" class="edge">
<title>s4&#45;&gt;s5</title>
<path fill="none" stroke="black" d="M570.31,-46.62C588.94,-46.62 614.19,-46.62 634.93,-46.62"/>
<polygon fill="black" stroke="black" points="634.71,-50.13 644.71,-46.63 634.71,-43.13 634.71,-50.13"/>
<text xml:space="preserve" text-anchor="middle" x="608.25" y="-49.83" font-family="Times,serif" font-size="14.00">b,A→ε</text>
</g>
<!-- s6 -->
<g id="node7" class="node">
<title>s6</title>
<polygon fill="#fffbe6" stroke="black" points="777,-11.75 777,-81.5 831,-81.5 831,-11.75 777,-11.75"/>
<text xml:space="preserve" text-anchor="middle" x="804" y="-68" font-family="Times,serif" font-size="10.00">q₂</text>
<polyline fill="none" stroke="black" points="777,-61.5 831,-61.5"/>
<text xml:space="preserve" text-anchor="middle" x="804" y="-48" font-family="Times,serif" font-size="10.00">b</text>
<polyline fill="none" stroke="black" points="777,-42.25 831,-42.25"/>
<text xml:space="preserve" text-anchor="middle" x="804" y="-28.75" font-family="Times,serif" font-size="10.00">A</text>
<text xml:space="preserve" text-anchor="middle" x="804" y="-17.5" font-family="Times,serif" font-size="10.00">$</text>
</g>
<!-- s5&#45;&gt;s6 -->
<g id="edge6" class="edge">
<title>s5&#45;&gt;s6</title>
<path fill="none" stroke="black" d="M700.81,-46.62C719.44,-46.62 744.69,-46.62 765.43,-46.62"/>
<polygon fill="black" stroke="black" points="765.21,-50.13 775.21,-46.63 765.21,-43.13 765.21,-50.13"/>
<text xml:space="preserve" text-anchor="middle" x="738.75" y="-49.83" font-family="Times,serif" font-size="14.00">b,A→ε</text>
</g>
<!-- s7 -->
<g id="node8" class="node">
<title>s7</title>
<polygon fill="#fffbe6" stroke="black" points="907.5,-17.38 907.5,-75.88 961.5,-75.88 961.5,-17.38 907.5,-17.38"/>
<text xml:space="preserve" text-anchor="middle" x="934.5" y="-62.38" font-family="Times,serif" font-size="10.00">q₂</text>
<polyline fill="none" stroke="black" points="907.5,-55.88 961.5,-55.88"/>
<text xml:space="preserve" text-anchor="middle" x="934.5" y="-42.38" font-family="Times,serif" font-size="10.00">ε</text>
<polyline fill="none" stroke="black" points="907.5,-36.62 961.5,-36.62"/>
<text xml:space="preserve" text-anchor="middle" x="934.5" y="-23.12" font-family="Times,serif" font-size="10.00">$</text>
</g>
<!-- s6&#45;&gt;s7 -->
<g id="edge7" class="edge">
<title>s6&#45;&gt;s7</title>
<path fill="none" stroke="black" d="M831.31,-46.62C849.94,-46.62 875.19,-46.62 895.93,-46.62"/>
<polygon fill="black" stroke="black" points="895.71,-50.13 905.71,-46.63 895.71,-43.13 895.71,-50.13"/>
<text xml:space="preserve" text-anchor="middle" x="869.25" y="-49.83" font-family="Times,serif" font-size="14.00">b,A→ε</text>
</g>
<!-- s8 -->
<g id="node9" class="node">
<title>s8</title>
<polygon fill="#f2fff2" stroke="black" points="1034.25,-15.5 1034.25,-77.75 1088.25,-77.75 1088.25,-15.5 1034.25,-15.5"/>
<text xml:space="preserve" text-anchor="middle" x="1061.25" y="-64.25" font-family="Times,serif" font-size="10.00">q₃</text>
<polyline fill="none" stroke="black" points="1034.25,-57.75 1088.25,-57.75"/>
<text xml:space="preserve" text-anchor="middle" x="1061.25" y="-44.25" font-family="Times,serif" font-size="10.00">ε</text>
<polyline fill="none" stroke="black" points="1034.25,-38.5 1088.25,-38.5"/>
<text xml:space="preserve" text-anchor="middle" x="1061.25" y="-25" font-family="Times,serif" font-size="10.00">⊥</text>
</g>
<!-- s7&#45;&gt;s8 -->
<g id="edge8" class="edge">
<title>s7&#45;&gt;s8</title>
<path fill="none" stroke="black" d="M961.96,-46.62C979.57,-46.62 1002.98,-46.62 1022.54,-46.62"/>
<polygon fill="black" stroke="black" points="1022.32,-50.13 1032.32,-46.63 1022.32,-43.13 1022.32,-50.13"/>
<text xml:space="preserve" text-anchor="middle" x="997.88" y="-49.83" font-family="Times,serif" font-size="14.00">ε,$→ε</text>
</g>
</g>
</svg>
