<?xml version="1.0" encoding="UTF-8" standalone="no"?>
<!DOCTYPE svg PUBLIC "-//W3C//DTD SVG 1.1//EN"
 "http://www.w3.org/Graphics/SVG/1.1/DTD/svg11.dtd">
<!-- Generated by graphviz version 14.0.2 (20251019.1705)
 -->
<!-- Title: CFG_PDA_Equivalence Pages: 1 -->
<svg width="455pt" height="44pt"
 viewBox="0.00 0.00 455.00 44.00" xmlns="http://www.w3.org/2000/svg" xmlns:xlink="http://www.w3.org/1999/xlink">
<g id="graph0" class="graph" transform="scale(1 1) rotate(0) translate(4 40)">
<title>CFG_PDA_Equivalence</title>
<polygon fill="white" stroke="none" points="-4,4 -4,-40 451,-40 451,4 -4,4"/>
<!-- CFG -->
<g id="node1" class="node">
<title>CFG</title>
<path fill="#e8f4f8" stroke="black" d="M79,-36C79,-36 12,-36 12,-36 6,-36 0,-30 0,-24 0,-24 0,-12 0,-12 0,-6 6,0 12,0 12,0 79,0 79,0 85,0 91,-6 91,-12 91,-12 91,-24 91,-24 91,-30 85,-36 79,-36"/>
<text xml:space="preserve" text-anchor="middle" x="45.5" y="-21.05" font-family="Times,serif" font-size="11.00">Context&#45;Free</text>
<text xml:space="preserve" text-anchor="middle" x="45.5" y="-7.55" font-family="Times,serif" font-size="11.00">Grammar (CFG)</text>
</g>
<!-- CFL -->
<g id="node3" class="node">
<title>CFL</title>
<path fill="#e8f4f8" stroke="black" d="M243.5,-36C243.5,-36 177.25,-36 177.25,-36 171.25,-36 165.25,-30 165.25,-24 165.25,-24 165.25,-12 165.25,-12 165.25,-6 171.25,0 177.25,0 177.25,0 243.5,0 243.5,0 249.5,0 255.5,-6 255.5,-12 255.5,-12 255.5,-24 255.5,-24 255.5,-30 249.5,-36 243.5,-36"/>
<text xml:space="preserve" text-anchor="middle" x="210.38" y="-21.05" font-family="Times,serif" font-size="11.00">Context&#45;Free</text>
<text xml:space="preserve" text-anchor="middle" x="210.38" y="-7.55" font-family="Times,serif" font-size="11.00">Language (CFL)</text>
</g>
<!-- CFG&#45;&gt;CFL -->
<g id="edge1" class="edge">
<title>CFG&#45;&gt;CFL</title>
<path fill="none" stroke="black" d="M91.44,-18C110.65,-18 133.29,-18 153.56,-18"/>
<polygon fill="black" stroke="black" points="153.35,-21.5 163.35,-18 153.35,-14.5 153.35,-21.5"/>
<text xml:space="preserve" text-anchor="middle" x="128.12" y="-19.75" font-family="Times,serif" font-size="10.00">generates</text>
</g>
<!-- PDA -->
<g id="node2" class="node">
<title>PDA</title>
<path fill="#e8f4f8" stroke="black" d="M435,-36C435,-36 361.25,-36 361.25,-36 355.25,-36 349.25,-30 349.25,-24 349.25,-24 349.25,-12 349.25,-12 349.25,-6 355.25,0 361.25,0 361.25,0 435,0 435,0 441,0 447,-6 447,-12 447,-12 447,-24 447,-24 447,-30 441,-36 435,-36"/>
<text xml:space="preserve" text-anchor="middle" x="398.12" y="-21.05" font-family="Times,serif" font-size="11.00">Pushdown</text>
<text xml:space="preserve" text-anchor="middle" x="398.12" y="-7.55" font-family="Times,serif" font-size="11.00">Automaton (PDA)</text>
</g>
<!-- PDA&#45;&gt;CFL -->
<g id="edge3" class="edge">
<title>PDA&#45;&gt;CFL</title>
<path fill="none" stroke="black" d="M348.78,-5.49C342.91,-4.36 336.96,-3.4 331.25,-2.75 305.75,0.16 298.98,0.33 273.5,-2.75 271.44,-3 269.35,-3.29 267.24,-3.62"/>
<polygon fill="black" stroke="black" points="266.62,-0.18 257.42,-5.43 267.89,-7.06 266.62,-0.18"/>
<text xml:space="preserve" text-anchor="middle" x="302.38" y="-4.5" font-family="Times,serif" font-size="10.00">accepts</text>
</g>
<!-- CFL&#45;&gt;PDA -->
<g id="edge2" class="edge">
<title>CFL&#45;&gt;PDA</title>
<path fill="none" stroke="black" d="M255.87,-18C280.27,-18 310.85,-18 337.32,-18"/>
<polygon fill="black" stroke="black" points="337.25,-21.5 347.25,-18 337.25,-14.5 337.25,-21.5"/>
<text xml:space="preserve" text-anchor="middle" x="302.38" y="-19.75" font-family="Times,serif" font-size="10.00">recognized by</text>
</g>
</g>
</svg>
