<?xml version="1.0" encoding="UTF-8" standalone="no"?>
<!DOCTYPE svg PUBLIC "-//W3C//DTD SVG 1.1//EN"
 "http://www.w3.org/Graphics/SVG/1.1/DTD/svg11.dtd">
<!-- Generated by graphviz version 14.0.2 (20251019.1705)
 -->
<!-- Title: FA21 Pages: 1 -->
<svg width="399pt" height="273pt"
 viewBox="0.00 0.00 399.00 273.00" xmlns="http://www.w3.org/2000/svg" xmlns:xlink="http://www.w3.org/1999/xlink">
<g id="graph0" class="graph" transform="scale(1 1) rotate(0) translate(4 268.53)">
<title>FA21</title>
<polygon fill="white" stroke="none" points="-4,4 -4,-268.53 395.18,-268.53 395.18,4 -4,4"/>
<!-- q0 -->
<g id="node1" class="node">
<title>q0</title>
<ellipse fill="#f9f9f9" stroke="black" cx="115.02" cy="-115.02" rx="111.02" ry="111.02"/>
<ellipse fill="none" stroke="black" cx="115.02" cy="-115.02" rx="115.02" ry="115.02"/>
<text xml:space="preserve" text-anchor="middle" x="115.02" y="-110.72" font-family="Times,serif" font-size="14.00">q₀ (Even a’s, Start, Final)</text>
</g>
<!-- q0&#45;&gt;q0 -->
<g id="edge3" class="edge">
<title>q0&#45;&gt;q0</title>
<path fill="none" stroke="black" d="M93.89,-228.54C98.01,-240.42 105.05,-248.03 115.02,-248.03 121.71,-248.03 127.08,-244.6 131.14,-238.74"/>
<polygon fill="black" stroke="black" points="134.22,-240.42 135.48,-229.9 127.93,-237.34 134.22,-240.42"/>
<text xml:space="preserve" text-anchor="middle" x="115.02" y="-251.23" font-family="Times,serif" font-size="14.00">b</text>
</g>
<!-- q1 -->
<g id="node2" class="node">
<title>q1</title>
<ellipse fill="#f9f9f9" stroke="black" cx="331.61" cy="-115.02" rx="59.57" ry="59.57"/>
<text xml:space="preserve" text-anchor="middle" x="331.61" y="-110.72" font-family="Times,serif" font-size="14.00">q₁ (Odd a’s)</text>
</g>
<!-- q0&#45;&gt;q1 -->
<g id="edge1" class="edge">
<title>q0&#45;&gt;q1</title>
<path fill="none" stroke="black" d="M230.22,-115.02C240.4,-115.02 250.49,-115.02 260.13,-115.02"/>
<polygon fill="black" stroke="black" points="260.13,-118.52 270.13,-115.02 260.13,-111.52 260.13,-118.52"/>
<text xml:space="preserve" text-anchor="middle" x="251.03" y="-118.22" font-family="Times,serif" font-size="14.00">a</text>
</g>
<!-- q1&#45;&gt;q0 -->
<g id="edge2" class="edge">
<title>q1&#45;&gt;q0</title>
<path fill="none" stroke="black" d="M274.07,-98.11C267.37,-96.64 260.58,-95.38 254.03,-94.52 249.3,-93.89 244.49,-93.49 239.62,-93.27"/>
<polygon fill="black" stroke="black" points="239.77,-89.77 229.72,-93.11 239.66,-96.77 239.77,-89.77"/>
<text xml:space="preserve" text-anchor="middle" x="251.03" y="-97.72" font-family="Times,serif" font-size="14.00">a</text>
</g>
<!-- q1&#45;&gt;q1 -->
<g id="edge4" class="edge">
<title>q1&#45;&gt;q1</title>
<path fill="none" stroke="black" d="M317.17,-173.2C318.85,-184.54 323.66,-192.59 331.61,-192.59 336.7,-192.59 340.5,-189.29 343.02,-183.93"/>
<polygon fill="black" stroke="black" points="346.29,-185.24 345.63,-174.66 339.55,-183.34 346.29,-185.24"/>
<text xml:space="preserve" text-anchor="middle" x="331.61" y="-195.79" font-family="Times,serif" font-size="14.00">b</text>
</g>
</g>
</svg>
