<?xml version="1.0" encoding="UTF-8" standalone="no"?>
<!DOCTYPE svg PUBLIC "-//W3C//DTD SVG 1.1//EN"
 "http://www.w3.org/Graphics/SVG/1.1/DTD/svg11.dtd">
<!-- Generated by graphviz version 14.0.2 (20251019.1705)
 -->
<!-- Title: StackReject_equal Pages: 1 -->
<svg width="895pt" height="101pt"
 viewBox="0.00 0.00 895.00 101.00" xmlns="http://www.w3.org/2000/svg" xmlns:xlink="http://www.w3.org/1999/xlink">
<g id="graph0" class="graph" transform="scale(1 1) rotate(0) translate(4 97.25)">
<title>StackReject_equal</title>
<polygon fill="white" stroke="none" points="-4,4 -4,-97.25 891.25,-97.25 891.25,4 -4,4"/>
<!-- g0 -->
<g id="node1" class="node">
<title>g0</title>
<polygon fill="#fff8f8" stroke="black" points="0,-15.5 0,-77.75 54,-77.75 54,-15.5 0,-15.5"/>
<text xml:space="preserve" text-anchor="middle" x="27" y="-64.25" font-family="Times,serif" font-size="10.00">q₀</text>
<polyline fill="none" stroke="black" points="0,-57.75 54,-57.75"/>
<text xml:space="preserve" text-anchor="middle" x="27" y="-44.25" font-family="Times,serif" font-size="10.00">aaab</text>
<polyline fill="none" stroke="black" points="0,-38.5 54,-38.5"/>
<text xml:space="preserve" text-anchor="middle" x="27" y="-25" font-family="Times,serif" font-size="10.00">⊥</text>
</g>
<!-- g1 -->
<g id="node2" class="node">
<title>g1</title>
<polygon fill="#e6f7ff" stroke="black" points="126.75,-17.38 126.75,-75.88 180.75,-75.88 180.75,-17.38 126.75,-17.38"/>
<text xml:space="preserve" text-anchor="middle" x="153.75" y="-62.38" font-family="Times,serif" font-size="10.00">q₁</text>
<polyline fill="none" stroke="black" points="126.75,-55.88 180.75,-55.88"/>
<text xml:space="preserve" text-anchor="middle" x="153.75" y="-42.38" font-family="Times,serif" font-size="10.00">aaab</text>
<polyline fill="none" stroke="black" points="126.75,-36.62 180.75,-36.62"/>
<text xml:space="preserve" text-anchor="middle" x="153.75" y="-23.12" font-family="Times,serif" font-size="10.00">$</text>
</g>
<!-- g0&#45;&gt;g1 -->
<g id="edge1" class="edge">
<title>g0&#45;&gt;g1</title>
<path fill="none" stroke="black" d="M54.46,-46.62C72.07,-46.62 95.48,-46.62 115.04,-46.62"/>
<polygon fill="black" stroke="black" points="114.82,-50.13 124.82,-46.63 114.82,-43.13 114.82,-50.13"/>
<text xml:space="preserve" text-anchor="middle" x="90.38" y="-49.83" font-family="Times,serif" font-size="14.00">ε,ε→$</text>
</g>
<!-- g2 -->
<g id="node3" class="node">
<title>g2</title>
<polygon fill="#e6f7ff" stroke="black" points="264,-11.75 264,-81.5 318,-81.5 318,-11.75 264,-11.75"/>
<text xml:space="preserve" text-anchor="middle" x="291" y="-68" font-family="Times,serif" font-size="10.00">q₁</text>
<polyline fill="none" stroke="black" points="264,-61.5 318,-61.5"/>
<text xml:space="preserve" text-anchor="middle" x="291" y="-48" font-family="Times,serif" font-size="10.00">aab</text>
<polyline fill="none" stroke="black" points="264,-42.25 318,-42.25"/>
<text xml:space="preserve" text-anchor="middle" x="291" y="-28.75" font-family="Times,serif" font-size="10.00">A</text>
<text xml:space="preserve" text-anchor="middle" x="291" y="-17.5" font-family="Times,serif" font-size="10.00">$</text>
</g>
<!-- g1&#45;&gt;g2 -->
<g id="edge2" class="edge">
<title>g1&#45;&gt;g2</title>
<path fill="none" stroke="black" d="M181.15,-46.62C201.44,-46.62 229.75,-46.62 252.41,-46.62"/>
<polygon fill="black" stroke="black" points="252.15,-50.13 262.15,-46.63 252.15,-43.13 252.15,-50.13"/>
<text xml:space="preserve" text-anchor="middle" x="222.38" y="-49.83" font-family="Times,serif" font-size="14.00">a,$→A$</text>
</g>
<!-- g3 -->
<g id="node4" class="node">
<title>g3</title>
<polygon fill="#e6f7ff" stroke="black" points="407.25,-6.12 407.25,-87.12 461.25,-87.12 461.25,-6.12 407.25,-6.12"/>
<text xml:space="preserve" text-anchor="middle" x="434.25" y="-73.62" font-family="Times,serif" font-size="10.00">q₁</text>
<polyline fill="none" stroke="black" points="407.25,-67.12 461.25,-67.12"/>
<text xml:space="preserve" text-anchor="middle" x="434.25" y="-53.62" font-family="Times,serif" font-size="10.00">ab</text>
<polyline fill="none" stroke="black" points="407.25,-47.88 461.25,-47.88"/>
<text xml:space="preserve" text-anchor="middle" x="434.25" y="-34.38" font-family="Times,serif" font-size="10.00">A</text>
<text xml:space="preserve" text-anchor="middle" x="434.25" y="-23.12" font-family="Times,serif" font-size="10.00">A</text>
<text xml:space="preserve" text-anchor="middle" x="434.25" y="-11.88" font-family="Times,serif" font-size="10.00">$</text>
</g>
<!-- g2&#45;&gt;g3 -->
<g id="edge3" class="edge">
<title>g2&#45;&gt;g3</title>
<path fill="none" stroke="black" d="M318.24,-46.62C340.04,-46.62 371.33,-46.62 395.78,-46.62"/>
<polygon fill="black" stroke="black" points="395.64,-50.13 405.64,-46.63 395.64,-43.13 395.64,-50.13"/>
<text xml:space="preserve" text-anchor="middle" x="362.62" y="-49.83" font-family="Times,serif" font-size="14.00">a,A→AA</text>
</g>
<!-- g4 -->
<g id="node5" class="node">
<title>g4</title>
<polygon fill="#e6f7ff" stroke="black" points="550.5,-0.5 550.5,-92.75 604.5,-92.75 604.5,-0.5 550.5,-0.5"/>
<text xml:space="preserve" text-anchor="middle" x="577.5" y="-79.25" font-family="Times,serif" font-size="10.00">q₁</text>
<polyline fill="none" stroke="black" points="550.5,-72.75 604.5,-72.75"/>
<text xml:space="preserve" text-anchor="middle" x="577.5" y="-59.25" font-family="Times,serif" font-size="10.00">b</text>
<polyline fill="none" stroke="black" points="550.5,-53.5 604.5,-53.5"/>
<text xml:space="preserve" text-anchor="middle" x="577.5" y="-40" font-family="Times,serif" font-size="10.00">A</text>
<text xml:space="preserve" text-anchor="middle" x="577.5" y="-28.75" font-family="Times,serif" font-size="10.00">A</text>
<text xml:space="preserve" text-anchor="middle" x="577.5" y="-17.5" font-family="Times,serif" font-size="10.00">A</text>
<text xml:space="preserve" text-anchor="middle" x="577.5" y="-6.25" font-family="Times,serif" font-size="10.00">$</text>
</g>
<!-- g3&#45;&gt;g4 -->
<g id="edge4" class="edge">
<title>g3&#45;&gt;g4</title>
<path fill="none" stroke="black" d="M461.49,-46.62C483.29,-46.62 514.58,-46.62 539.03,-46.62"/>
<polygon fill="black" stroke="black" points="538.89,-50.13 548.89,-46.63 538.89,-43.13 538.89,-50.13"/>
<text xml:space="preserve" text-anchor="middle" x="505.88" y="-49.83" font-family="Times,serif" font-size="14.00">a,A→AA</text>
</g>
<!-- g5 -->
<g id="node6" class="node">
<title>g5</title>
<polygon fill="#fff1f0" stroke="black" points="681,-6.12 681,-87.12 735,-87.12 735,-6.12 681,-6.12"/>
<text xml:space="preserve" text-anchor="middle" x="708" y="-73.62" font-family="Times,serif" font-size="10.00">q₁</text>
<polyline fill="none" stroke="black" points="681,-67.12 735,-67.12"/>
<text xml:space="preserve" text-anchor="middle" x="708" y="-53.62" font-family="Times,serif" font-size="10.00">ε</text>
<polyline fill="none" stroke="black" points="681,-47.88 735,-47.88"/>
<text xml:space="preserve" text-anchor="middle" x="708" y="-34.38" font-family="Times,serif" font-size="10.00">A</text>
<text xml:space="preserve" text-anchor="middle" x="708" y="-23.12" font-family="Times,serif" font-size="10.00">A</text>
<text xml:space="preserve" text-anchor="middle" x="708" y="-11.88" font-family="Times,serif" font-size="10.00">$</text>
</g>
<!-- g4&#45;&gt;g5 -->
<g id="edge5" class="edge">
<title>g4&#45;&gt;g5</title>
<path fill="none" stroke="black" d="M604.81,-46.62C623.44,-46.62 648.69,-46.62 669.43,-46.62"/>
<polygon fill="black" stroke="black" points="669.21,-50.13 679.21,-46.63 669.21,-43.13 669.21,-50.13"/>
<text xml:space="preserve" text-anchor="middle" x="642.75" y="-49.83" font-family="Times,serif" font-size="14.00">b,A→ε</text>
</g>
<!-- g6 -->
<g id="node7" class="node">
<title>g6</title>
<polygon fill="#ffcccc" stroke="black" points="833.25,-6.5 833.25,-86.75 887.25,-86.75 887.25,-6.5 833.25,-6.5"/>
<text xml:space="preserve" text-anchor="middle" x="860.25" y="-73.25" font-family="Times,serif" font-size="10.00">STUCK</text>
<polyline fill="none" stroke="black" points="833.25,-67.5 887.25,-67.5"/>
<text xml:space="preserve" text-anchor="middle" x="860.25" y="-54" font-family="Times,serif" font-size="10.00">—</text>
<polyline fill="none" stroke="black" points="833.25,-48.25 887.25,-48.25"/>
<text xml:space="preserve" text-anchor="middle" x="860.25" y="-34.75" font-family="Times,serif" font-size="10.00">A</text>
<text xml:space="preserve" text-anchor="middle" x="860.25" y="-23.5" font-family="Times,serif" font-size="10.00">A</text>
<text xml:space="preserve" text-anchor="middle" x="860.25" y="-12.25" font-family="Times,serif" font-size="10.00">$</text>
</g>
<!-- g5&#45;&gt;g6 -->
<g id="edge6" class="edge">
<title>g5&#45;&gt;g6</title>
<path fill="none" stroke="black" d="M735.17,-46.62C759.05,-46.62 794.61,-46.62 821.55,-46.62"/>
<polygon fill="black" stroke="black" points="821.36,-50.13 831.36,-46.63 821.36,-43.13 821.36,-50.13"/>
<text xml:space="preserve" text-anchor="middle" x="784.12" y="-52.08" font-family="Times,serif" font-size="14.00">❌ STUCK</text>
</g>
</g>
</svg>
