<?xml version="1.0" encoding="UTF-8" standalone="no"?>
<!DOCTYPE svg PUBLIC "-//W3C//DTD SVG 1.1//EN"
 "http://www.w3.org/Graphics/SVG/1.1/DTD/svg11.dtd">
<!-- Generated by graphviz version 14.0.2 (20251019.1705)
 -->
<!-- Title: CFG_PDA Pages: 1 -->
<svg width="650pt" height="44pt"
 viewBox="0.00 0.00 650.00 44.00" xmlns="http://www.w3.org/2000/svg" xmlns:xlink="http://www.w3.org/1999/xlink">
<g id="graph0" class="graph" transform="scale(1 1) rotate(0) translate(4 40)">
<title>CFG_PDA</title>
<polygon fill="white" stroke="none" points="-4,4 -4,-40 645.5,-40 645.5,4 -4,4"/>
<!-- CFG -->
<g id="node1" class="node">
<title>CFG</title>
<path fill="#e8f4f8" stroke="black" d="M132.25,-36C132.25,-36 12,-36 12,-36 6,-36 0,-30 0,-24 0,-24 0,-12 0,-12 0,-6 6,0 12,0 12,0 132.25,0 132.25,0 138.25,0 144.25,-6 144.25,-12 144.25,-12 144.25,-24 144.25,-24 144.25,-30 138.25,-36 132.25,-36"/>
<text xml:space="preserve" text-anchor="middle" x="72.12" y="-12.95" font-family="Times,serif" font-size="14.00">Context&#45;Free Grammar</text>
</g>
<!-- CFL -->
<g id="node3" class="node">
<title>CFL</title>
<path fill="#e8f4f8" stroke="black" d="M313.5,-36C313.5,-36 193.25,-36 193.25,-36 187.25,-36 181.25,-30 181.25,-24 181.25,-24 181.25,-12 181.25,-12 181.25,-6 187.25,0 193.25,0 193.25,0 313.5,0 313.5,0 319.5,0 325.5,-6 325.5,-12 325.5,-12 325.5,-24 325.5,-24 325.5,-30 319.5,-36 313.5,-36"/>
<text xml:space="preserve" text-anchor="middle" x="253.38" y="-12.95" font-family="Times,serif" font-size="14.00">Context&#45;Free Language</text>
</g>
<!-- CFG&#45;&gt;CFL -->
<g id="edge1" class="edge">
<title>CFG&#45;&gt;CFL</title>
<path fill="none" stroke="black" d="M144.74,-18C152.92,-18 161.31,-18 169.62,-18"/>
<polygon fill="black" stroke="black" points="169.36,-21.5 179.36,-18 169.36,-14.5 169.36,-21.5"/>
</g>
<!-- PDA -->
<g id="node2" class="node">
<title>PDA</title>
<path fill="#e8f4f8" stroke="black" d="M629.5,-36C629.5,-36 516.75,-36 516.75,-36 510.75,-36 504.75,-30 504.75,-24 504.75,-24 504.75,-12 504.75,-12 504.75,-6 510.75,0 516.75,0 516.75,0 629.5,0 629.5,0 635.5,0 641.5,-6 641.5,-12 641.5,-12 641.5,-24 641.5,-24 641.5,-30 635.5,-36 629.5,-36"/>
<text xml:space="preserve" text-anchor="middle" x="573.12" y="-12.95" font-family="Times,serif" font-size="14.00">Pushdown Automaton</text>
</g>
<!-- CFL&#45;&gt;PDA -->
<g id="edge2" class="edge">
<title>CFL&#45;&gt;PDA</title>
<path fill="none" stroke="black" d="M325.68,-18C375.36,-18 441.64,-18 492.95,-18"/>
<polygon fill="black" stroke="black" points="492.81,-21.5 502.81,-18 492.81,-14.5 492.81,-21.5"/>
<text xml:space="preserve" text-anchor="middle" x="415.12" y="-21.2" font-family="Times,serif" font-size="14.00">Equivalent Representation</text>
</g>
</g>
</svg>
