<?xml version="1.0" encoding="UTF-8" standalone="no"?>
<!DOCTYPE svg PUBLIC "-//W3C//DTD SVG 1.1//EN"
 "http://www.w3.org/Graphics/SVG/1.1/DTD/svg11.dtd">
<!-- Generated by graphviz version 14.0.2 (20251019.1705)
 -->
<!-- Title: ArithParse Pages: 1 -->
<svg width="278pt" height="188pt"
 viewBox="0.00 0.00 278.00 188.00" xmlns="http://www.w3.org/2000/svg" xmlns:xlink="http://www.w3.org/1999/xlink">
<g id="graph0" class="graph" transform="scale(1 1) rotate(0) translate(4 184)">
<title>ArithParse</title>
<polygon fill="white" stroke="none" points="-4,4 -4,-184 274,-184 274,4 -4,4"/>
<!-- S0 -->
<g id="node1" class="node">
<title>S0</title>
<ellipse fill="#ffe6e6" stroke="black" cx="135" cy="-162" rx="18" ry="18"/>
<text xml:space="preserve" text-anchor="middle" x="135" y="-158.3" font-family="Times,serif" font-size="11.00">S</text>
</g>
<!-- S1 -->
<g id="node2" class="node">
<title>S1</title>
<ellipse fill="#ffe6e6" stroke="black" cx="72" cy="-90" rx="18" ry="18"/>
<text xml:space="preserve" text-anchor="middle" x="72" y="-86.3" font-family="Times,serif" font-size="11.00">S</text>
</g>
<!-- S0&#45;&gt;S1 -->
<g id="edge1" class="edge">
<title>S0&#45;&gt;S1</title>
<path fill="none" stroke="black" d="M123.15,-147.83C114.17,-137.86 101.66,-123.95 91.25,-112.39"/>
<polygon fill="black" stroke="black" points="94.1,-110.32 84.81,-105.23 88.9,-115.01 94.1,-110.32"/>
</g>
<!-- S2 -->
<g id="node3" class="node">
<title>S2</title>
<ellipse fill="#ffe6e6" stroke="black" cx="135" cy="-90" rx="18" ry="18"/>
<text xml:space="preserve" text-anchor="middle" x="135" y="-86.3" font-family="Times,serif" font-size="11.00">S</text>
</g>
<!-- S0&#45;&gt;S2 -->
<g id="edge3" class="edge">
<title>S0&#45;&gt;S2</title>
<path fill="none" stroke="black" d="M135,-143.7C135,-136.41 135,-127.73 135,-119.54"/>
<polygon fill="black" stroke="black" points="138.5,-119.62 135,-109.62 131.5,-119.62 138.5,-119.62"/>
</g>
<!-- plus1 -->
<g id="node4" class="node">
<title>plus1</title>
<polygon fill="#e6f3ff" stroke="black" points="225,-108 171,-108 171,-72 225,-72 225,-108"/>
<text xml:space="preserve" text-anchor="middle" x="198" y="-86.3" font-family="Times,serif" font-size="11.00">+</text>
</g>
<!-- S0&#45;&gt;plus1 -->
<g id="edge2" class="edge">
<title>S0&#45;&gt;plus1</title>
<path fill="none" stroke="black" d="M146.85,-147.83C154.7,-139.11 165.27,-127.37 174.76,-116.82"/>
<polygon fill="black" stroke="black" points="177.29,-119.24 181.38,-109.47 172.09,-114.56 177.29,-119.24"/>
</g>
<!-- n1 -->
<g id="node6" class="node">
<title>n1</title>
<polygon fill="#e6e6e6" stroke="black" points="54,-36 0,-36 0,0 54,0 54,-36"/>
<text xml:space="preserve" text-anchor="middle" x="27" y="-14.3" font-family="Times,serif" font-size="11.00">2</text>
</g>
<!-- S1&#45;&gt;n1 -->
<g id="edge4" class="edge">
<title>S1&#45;&gt;n1</title>
<path fill="none" stroke="black" d="M62.46,-74.15C57.17,-65.93 50.44,-55.46 44.27,-45.86"/>
<polygon fill="black" stroke="black" points="47.29,-44.08 38.93,-37.57 41.4,-47.87 47.29,-44.08"/>
</g>
<!-- plus2 -->
<g id="node5" class="node">
<title>plus2</title>
<polygon fill="#e6f3ff" stroke="black" points="126,-36 72,-36 72,0 126,0 126,-36"/>
<text xml:space="preserve" text-anchor="middle" x="99" y="-14.3" font-family="Times,serif" font-size="11.00">+</text>
</g>
<!-- S2&#45;&gt;plus2 -->
<g id="edge6" class="edge">
<title>S2&#45;&gt;plus2</title>
<path fill="none" stroke="black" d="M127.01,-73.46C122.96,-65.59 117.92,-55.79 113.24,-46.68"/>
<polygon fill="black" stroke="black" points="116.36,-45.1 108.67,-37.81 110.13,-48.3 116.36,-45.1"/>
</g>
<!-- n2 -->
<g id="node7" class="node">
<title>n2</title>
<polygon fill="#e6e6e6" stroke="black" points="198,-36 144,-36 144,0 198,0 198,-36"/>
<text xml:space="preserve" text-anchor="middle" x="171" y="-14.3" font-family="Times,serif" font-size="11.00">3</text>
</g>
<!-- S2&#45;&gt;n2 -->
<g id="edge5" class="edge">
<title>S2&#45;&gt;n2</title>
<path fill="none" stroke="black" d="M142.99,-73.46C147.04,-65.59 152.08,-55.79 156.76,-46.68"/>
<polygon fill="black" stroke="black" points="159.87,-48.3 161.33,-37.81 153.64,-45.1 159.87,-48.3"/>
</g>
<!-- n3 -->
<g id="node8" class="node">
<title>n3</title>
<polygon fill="#e6e6e6" stroke="black" points="270,-36 216,-36 216,0 270,0 270,-36"/>
<text xml:space="preserve" text-anchor="middle" x="243" y="-14.3" font-family="Times,serif" font-size="11.00">5</text>
</g>
<!-- S2&#45;&gt;n3 -->
<g id="edge7" class="edge">
<title>S2&#45;&gt;n3</title>
<path fill="none" stroke="black" d="M150.02,-79.27C164.59,-69.82 187.29,-55.11 206.6,-42.59"/>
<polygon fill="black" stroke="black" points="208.29,-45.67 214.78,-37.29 204.49,-39.79 208.29,-45.67"/>
</g>
</g>
</svg>
