<?xml version="1.0" encoding="UTF-8" standalone="no"?>
<!DOCTYPE svg PUBLIC "-//W3C//DTD SVG 1.1//EN"
 "http://www.w3.org/Graphics/SVG/1.1/DTD/svg11.dtd">
<!-- Generated by graphviz version 14.0.2 (20251019.1705)
 -->
<!-- Title: FA Pages: 1 -->
<svg width="222pt" height="91pt"
 viewBox="0.00 0.00 222.00 91.00" xmlns="http://www.w3.org/2000/svg" xmlns:xlink="http://www.w3.org/1999/xlink">
<g id="graph0" class="graph" transform="scale(1 1) rotate(0) translate(4 86.76)">
<title>FA</title>
<polygon fill="white" stroke="none" points="-4,4 -4,-86.76 217.54,-86.76 217.54,4 -4,4"/>
<!-- q2 -->
<g id="node1" class="node">
<title>q2</title>
<ellipse fill="none" stroke="black" cx="189.41" cy="-24.13" rx="20.13" ry="20.13"/>
<ellipse fill="none" stroke="black" cx="189.41" cy="-24.13" rx="24.13" ry="24.13"/>
<text xml:space="preserve" text-anchor="middle" x="189.41" y="-19.08" font-family="Times,serif" font-size="14.00">q2</text>
</g>
<!-- q2&#45;&gt;q2 -->
<g id="edge4" class="edge">
<title>q2&#45;&gt;q2</title>
<path fill="none" stroke="black" d="M181.01,-47.1C180.21,-57.38 183.01,-66.26 189.41,-66.26 193.21,-66.26 195.74,-63.13 197,-58.43"/>
<polygon fill="black" stroke="black" points="200.48,-58.83 197.7,-48.61 193.5,-58.34 200.48,-58.83"/>
<text xml:space="preserve" text-anchor="middle" x="189.41" y="-69.46" font-family="Times,serif" font-size="14.00">b</text>
</g>
<!-- q0 -->
<g id="node2" class="node">
<title>q0</title>
<ellipse fill="none" stroke="black" cx="20.13" cy="-24.13" rx="20.13" ry="20.13"/>
<text xml:space="preserve" text-anchor="middle" x="20.13" y="-19.08" font-family="Times,serif" font-size="14.00">q0</text>
</g>
<!-- q1 -->
<g id="node3" class="node">
<title>q1</title>
<ellipse fill="none" stroke="black" cx="102.39" cy="-24.13" rx="20.13" ry="20.13"/>
<text xml:space="preserve" text-anchor="middle" x="102.39" y="-19.08" font-family="Times,serif" font-size="14.00">q1</text>
</g>
<!-- q0&#45;&gt;q1 -->
<g id="edge1" class="edge">
<title>q0&#45;&gt;q1</title>
<path fill="none" stroke="black" d="M40.56,-24.13C49.56,-24.13 60.48,-24.13 70.57,-24.13"/>
<polygon fill="black" stroke="black" points="70.35,-27.63 80.35,-24.13 70.35,-20.63 70.35,-27.63"/>
<text xml:space="preserve" text-anchor="middle" x="61.26" y="-27.33" font-family="Times,serif" font-size="14.00">a</text>
</g>
<!-- q1&#45;&gt;q2 -->
<g id="edge2" class="edge">
<title>q1&#45;&gt;q2</title>
<path fill="none" stroke="black" d="M122.68,-24.13C131.8,-24.13 142.96,-24.13 153.48,-24.13"/>
<polygon fill="black" stroke="black" points="153.44,-27.63 163.44,-24.13 153.44,-20.63 153.44,-27.63"/>
<text xml:space="preserve" text-anchor="middle" x="143.9" y="-27.33" font-family="Times,serif" font-size="14.00">b</text>
</g>
<!-- q1&#45;&gt;q1 -->
<g id="edge3" class="edge">
<title>q1&#45;&gt;q1</title>
<path fill="none" stroke="black" d="M94.95,-43.36C93.81,-53.3 96.29,-62.26 102.39,-62.26 105.92,-62.26 108.24,-59.27 109.35,-54.82"/>
<polygon fill="black" stroke="black" points="112.84,-55.01 109.77,-44.87 105.85,-54.71 112.84,-55.01"/>
<text xml:space="preserve" text-anchor="middle" x="102.39" y="-65.46" font-family="Times,serif" font-size="14.00">a</text>
</g>
</g>
</svg>
