<?xml version="1.0" encoding="UTF-8" standalone="no"?>
<!DOCTYPE svg PUBLIC "-//W3C//DTD SVG 1.1//EN"
 "http://www.w3.org/Graphics/SVG/1.1/DTD/svg11.dtd">
<!-- Generated by graphviz version 14.0.2 (20251019.1705)
 -->
<!-- Title: CFG1 Pages: 1 -->
<svg width="98pt" height="206pt"
 viewBox="0.00 0.00 98.00 206.00" xmlns="http://www.w3.org/2000/svg" xmlns:xlink="http://www.w3.org/1999/xlink">
<g id="graph0" class="graph" transform="scale(1 1) rotate(0) translate(4 201.5)">
<title>CFG1</title>
<polygon fill="white" stroke="none" points="-4,4 -4,-201.5 94,-201.5 94,4 -4,4"/>
<!-- S -->
<g id="node1" class="node">
<title>S</title>
<ellipse fill="#f9f9f9" stroke="black" cx="44" cy="-179.5" rx="18" ry="18"/>
<text xml:space="preserve" text-anchor="middle" x="44" y="-174.07" font-family="Arial" font-size="14.00">S</text>
</g>
<!-- A -->
<g id="node2" class="node">
<title>A</title>
<ellipse fill="#f9f9f9" stroke="black" cx="18" cy="-91" rx="18" ry="18"/>
<text xml:space="preserve" text-anchor="middle" x="18" y="-85.58" font-family="Arial" font-size="14.00">A</text>
</g>
<!-- S&#45;&gt;A -->
<g id="edge1" class="edge">
<title>S&#45;&gt;A</title>
<path fill="none" stroke="black" d="M38.99,-161.82C35.39,-149.86 30.46,-133.46 26.28,-119.56"/>
<polygon fill="black" stroke="black" points="29.66,-118.65 23.43,-110.08 22.96,-120.66 29.66,-118.65"/>
<text xml:space="preserve" text-anchor="middle" x="35.2" y="-130.2" font-family="Times,serif" font-size="14.00"> </text>
</g>
<!-- B -->
<g id="node3" class="node">
<title>B</title>
<ellipse fill="#f9f9f9" stroke="black" cx="72" cy="-91" rx="18" ry="18"/>
<text xml:space="preserve" text-anchor="middle" x="72" y="-85.58" font-family="Arial" font-size="14.00">B</text>
</g>
<!-- S&#45;&gt;B -->
<g id="edge2" class="edge">
<title>S&#45;&gt;B</title>
<path fill="none" stroke="black" d="M49.4,-161.82C53.27,-149.86 58.58,-133.46 63.08,-119.56"/>
<polygon fill="black" stroke="black" points="66.4,-120.66 66.15,-110.07 59.74,-118.5 66.4,-120.66"/>
<text xml:space="preserve" text-anchor="middle" x="62.38" y="-130.2" font-family="Times,serif" font-size="14.00"> </text>
</g>
<!-- a -->
<g id="node4" class="node">
<title>a</title>
<ellipse fill="#f9f9f9" stroke="black" cx="18" cy="-18" rx="18" ry="18"/>
<text xml:space="preserve" text-anchor="middle" x="18" y="-12.57" font-family="Arial" font-size="14.00">a</text>
</g>
<!-- A&#45;&gt;a -->
<g id="edge3" class="edge">
<title>A&#45;&gt;a</title>
<path fill="none" stroke="black" d="M18,-72.81C18,-65.23 18,-56.1 18,-47.54"/>
<polygon fill="black" stroke="black" points="21.5,-47.54 18,-37.54 14.5,-47.54 21.5,-47.54"/>
</g>
<!-- b -->
<g id="node5" class="node">
<title>b</title>
<ellipse fill="#f9f9f9" stroke="black" cx="72" cy="-18" rx="18" ry="18"/>
<text xml:space="preserve" text-anchor="middle" x="72" y="-12.57" font-family="Arial" font-size="14.00">b</text>
</g>
<!-- B&#45;&gt;b -->
<g id="edge4" class="edge">
<title>B&#45;&gt;b</title>
<path fill="none" stroke="black" d="M72,-72.81C72,-65.23 72,-56.1 72,-47.54"/>
<polygon fill="black" stroke="black" points="75.5,-47.54 72,-37.54 68.5,-47.54 75.5,-47.54"/>
</g>
</g>
</svg>
