<?xml version="1.0" encoding="UTF-8" standalone="no"?>
<!DOCTYPE svg PUBLIC "-//W3C//DTD SVG 1.1//EN"
 "http://www.w3.org/Graphics/SVG/1.1/DTD/svg11.dtd">
<!-- Generated by graphviz version 14.0.2 (20251019.1705)
 -->
<!-- Title: CFG26 Pages: 1 -->
<svg width="341pt" height="111pt"
 viewBox="0.00 0.00 341.00 111.00" xmlns="http://www.w3.org/2000/svg" xmlns:xlink="http://www.w3.org/1999/xlink">
<g id="graph0" class="graph" transform="scale(1 1) rotate(0) translate(4 107)">
<title>CFG26</title>
<polygon fill="white" stroke="none" points="-4,4 -4,-107 337,-107 337,4 -4,4"/>
<!-- S -->
<g id="node1" class="node">
<title>S</title>
<polygon fill="#f8f8f8" stroke="black" points="54,-76 0,-76 0,-40 54,-40 54,-76"/>
<text xml:space="preserve" text-anchor="middle" x="27" y="-52.2" font-family="Helvetica,sans-Serif" font-size="14.00">S</text>
</g>
<!-- A -->
<g id="node2" class="node">
<title>A</title>
<polygon fill="#f8f8f8" stroke="black" points="194.25,-103 140.25,-103 140.25,-67 194.25,-67 194.25,-103"/>
<text xml:space="preserve" text-anchor="middle" x="167.25" y="-79.2" font-family="Helvetica,sans-Serif" font-size="14.00">A</text>
</g>
<!-- S&#45;&gt;A -->
<g id="edge1" class="edge">
<title>S&#45;&gt;A</title>
<path fill="none" stroke="black" d="M54.1,-70.14C59.89,-72.42 66.07,-74.54 72,-76 90.28,-80.51 111.08,-82.78 128.47,-83.92"/>
<polygon fill="black" stroke="black" points="128.22,-87.41 138.39,-84.46 128.6,-80.42 128.22,-87.41"/>
<text xml:space="preserve" text-anchor="middle" x="97.12" y="-86.53" font-family="Times,serif" font-size="14.00">bA</text>
</g>
<!-- B -->
<g id="node3" class="node">
<title>B</title>
<polygon fill="#f8f8f8" stroke="black" points="194.25,-36 140.25,-36 140.25,0 194.25,0 194.25,-36"/>
<text xml:space="preserve" text-anchor="middle" x="167.25" y="-12.2" font-family="Helvetica,sans-Serif" font-size="14.00">B</text>
</g>
<!-- S&#45;&gt;B -->
<g id="edge2" class="edge">
<title>S&#45;&gt;B</title>
<path fill="none" stroke="black" d="M53.11,-39.77C59.06,-36.18 65.56,-32.82 72,-30.5 90.01,-24.02 111.03,-20.85 128.65,-19.32"/>
<polygon fill="black" stroke="black" points="128.71,-22.82 138.44,-18.62 128.21,-15.84 128.71,-22.82"/>
<text xml:space="preserve" text-anchor="middle" x="97.12" y="-33.7" font-family="Times,serif" font-size="14.00">aB</text>
</g>
<!-- A&#45;&gt;S -->
<g id="edge4" class="edge">
<title>A&#45;&gt;S</title>
<path fill="none" stroke="black" d="M144.28,-66.6C137.61,-62.08 129.99,-57.86 122.25,-55.5 104.1,-49.98 83.06,-49.97 65.47,-51.61"/>
<polygon fill="black" stroke="black" points="65.23,-48.12 55.7,-52.75 66.04,-55.07 65.23,-48.12"/>
<text xml:space="preserve" text-anchor="middle" x="97.12" y="-58.7" font-family="Times,serif" font-size="14.00">aS | bAA</text>
</g>
<!-- A1 -->
<g id="node4" class="node">
<title>A1</title>
<polygon fill="#f8f8f8" stroke="black" points="333,-103 279,-103 279,-67 333,-67 333,-103"/>
<text xml:space="preserve" text-anchor="middle" x="306" y="-79.2" font-family="Helvetica,sans-Serif" font-size="14.00">A1</text>
</g>
<!-- A&#45;&gt;A1 -->
<g id="edge3" class="edge">
<title>A&#45;&gt;A1</title>
<path fill="none" stroke="black" d="M194.62,-85C215.24,-85 244.18,-85 267.26,-85"/>
<polygon fill="black" stroke="black" points="267.2,-88.5 277.2,-85 267.2,-81.5 267.2,-88.5"/>
<text xml:space="preserve" text-anchor="middle" x="236.62" y="-88.2" font-family="Times,serif" font-size="14.00">a</text>
</g>
<!-- S2 -->
<g id="node5" class="node">
<title>S2</title>
<polygon fill="#f8f8f8" stroke="black" points="333,-36 279,-36 279,0 333,0 333,-36"/>
<text xml:space="preserve" text-anchor="middle" x="306" y="-12.2" font-family="Helvetica,sans-Serif" font-size="14.00">S2</text>
</g>
<!-- B&#45;&gt;S2 -->
<g id="edge5" class="edge">
<title>B&#45;&gt;S2</title>
<path fill="none" stroke="black" d="M194.62,-18C215.24,-18 244.18,-18 267.26,-18"/>
<polygon fill="black" stroke="black" points="267.2,-21.5 277.2,-18 267.2,-14.5 267.2,-21.5"/>
<text xml:space="preserve" text-anchor="middle" x="236.62" y="-21.2" font-family="Times,serif" font-size="14.00">bS | aBB</text>
</g>
</g>
</svg>
