<?xml version="1.0" encoding="UTF-8" standalone="no"?>
<!DOCTYPE svg PUBLIC "-//W3C//DTD SVG 1.1//EN"
 "http://www.w3.org/Graphics/SVG/1.1/DTD/svg11.dtd">
<!-- Generated by graphviz version 14.0.2 (20251019.1705)
 -->
<!-- Title: StackReject_anbn Pages: 1 -->
<svg width="934pt" height="90pt"
 viewBox="0.00 0.00 934.00 90.00" xmlns="http://www.w3.org/2000/svg" xmlns:xlink="http://www.w3.org/1999/xlink">
<g id="graph0" class="graph" transform="scale(1 1) rotate(0) translate(4 86)">
<title>StackReject_anbn</title>
<polygon fill="white" stroke="none" points="-4,4 -4,-86 930.25,-86 930.25,4 -4,4"/>
<!-- s0 -->
<g id="node1" class="node">
<title>s0</title>
<polygon fill="#fff8f8" stroke="black" points="0,-9.88 0,-72.12 54,-72.12 54,-9.88 0,-9.88"/>
<text xml:space="preserve" text-anchor="middle" x="27" y="-58.62" font-family="Times,serif" font-size="10.00">q₀</text>
<polyline fill="none" stroke="black" points="0,-52.12 54,-52.12"/>
<text xml:space="preserve" text-anchor="middle" x="27" y="-38.62" font-family="Times,serif" font-size="10.00">aabbb</text>
<polyline fill="none" stroke="black" points="0,-32.88 54,-32.88"/>
<text xml:space="preserve" text-anchor="middle" x="27" y="-19.38" font-family="Times,serif" font-size="10.00">⊥</text>
</g>
<!-- s1 -->
<g id="node2" class="node">
<title>s1</title>
<polygon fill="#e6f7ff" stroke="black" points="126.75,-11.75 126.75,-70.25 180.75,-70.25 180.75,-11.75 126.75,-11.75"/>
<text xml:space="preserve" text-anchor="middle" x="153.75" y="-56.75" font-family="Times,serif" font-size="10.00">q₁</text>
<polyline fill="none" stroke="black" points="126.75,-50.25 180.75,-50.25"/>
<text xml:space="preserve" text-anchor="middle" x="153.75" y="-36.75" font-family="Times,serif" font-size="10.00">aabbb</text>
<polyline fill="none" stroke="black" points="126.75,-31 180.75,-31"/>
<text xml:space="preserve" text-anchor="middle" x="153.75" y="-17.5" font-family="Times,serif" font-size="10.00">$</text>
</g>
<!-- s0&#45;&gt;s1 -->
<g id="edge1" class="edge">
<title>s0&#45;&gt;s1</title>
<path fill="none" stroke="black" d="M54.46,-41C72.07,-41 95.48,-41 115.04,-41"/>
<polygon fill="black" stroke="black" points="114.82,-44.5 124.82,-41 114.82,-37.5 114.82,-44.5"/>
<text xml:space="preserve" text-anchor="middle" x="90.38" y="-44.2" font-family="Times,serif" font-size="14.00">ε,ε→$</text>
</g>
<!-- s2 -->
<g id="node3" class="node">
<title>s2</title>
<polygon fill="#e6f7ff" stroke="black" points="256.5,-6.12 256.5,-75.88 310.5,-75.88 310.5,-6.12 256.5,-6.12"/>
<text xml:space="preserve" text-anchor="middle" x="283.5" y="-62.38" font-family="Times,serif" font-size="10.00">q₁</text>
<polyline fill="none" stroke="black" points="256.5,-55.88 310.5,-55.88"/>
<text xml:space="preserve" text-anchor="middle" x="283.5" y="-42.38" font-family="Times,serif" font-size="10.00">abbb</text>
<polyline fill="none" stroke="black" points="256.5,-36.62 310.5,-36.62"/>
<text xml:space="preserve" text-anchor="middle" x="283.5" y="-23.12" font-family="Times,serif" font-size="10.00">A</text>
<text xml:space="preserve" text-anchor="middle" x="283.5" y="-11.88" font-family="Times,serif" font-size="10.00">$</text>
</g>
<!-- s1&#45;&gt;s2 -->
<g id="edge2" class="edge">
<title>s1&#45;&gt;s2</title>
<path fill="none" stroke="black" d="M181.22,-41C199.55,-41 224.22,-41 244.62,-41"/>
<polygon fill="black" stroke="black" points="244.55,-44.5 254.55,-41 244.55,-37.5 244.55,-44.5"/>
<text xml:space="preserve" text-anchor="middle" x="218.62" y="-44.2" font-family="Times,serif" font-size="14.00">a,ε→A</text>
</g>
<!-- s3 -->
<g id="node4" class="node">
<title>s3</title>
<polygon fill="#e6f7ff" stroke="black" points="399.75,-0.5 399.75,-81.5 453.75,-81.5 453.75,-0.5 399.75,-0.5"/>
<text xml:space="preserve" text-anchor="middle" x="426.75" y="-68" font-family="Times,serif" font-size="10.00">q₁</text>
<polyline fill="none" stroke="black" points="399.75,-61.5 453.75,-61.5"/>
<text xml:space="preserve" text-anchor="middle" x="426.75" y="-48" font-family="Times,serif" font-size="10.00">bbb</text>
<polyline fill="none" stroke="black" points="399.75,-42.25 453.75,-42.25"/>
<text xml:space="preserve" text-anchor="middle" x="426.75" y="-28.75" font-family="Times,serif" font-size="10.00">A</text>
<text xml:space="preserve" text-anchor="middle" x="426.75" y="-17.5" font-family="Times,serif" font-size="10.00">A</text>
<text xml:space="preserve" text-anchor="middle" x="426.75" y="-6.25" font-family="Times,serif" font-size="10.00">$</text>
</g>
<!-- s2&#45;&gt;s3 -->
<g id="edge3" class="edge">
<title>s2&#45;&gt;s3</title>
<path fill="none" stroke="black" d="M310.74,-41C332.54,-41 363.83,-41 388.28,-41"/>
<polygon fill="black" stroke="black" points="388.14,-44.5 398.14,-41 388.14,-37.5 388.14,-44.5"/>
<text xml:space="preserve" text-anchor="middle" x="355.12" y="-44.2" font-family="Times,serif" font-size="14.00">a,A→AA</text>
</g>
<!-- s4 -->
<g id="node5" class="node">
<title>s4</title>
<polygon fill="#fffbe6" stroke="black" points="530.25,-6.12 530.25,-75.88 584.25,-75.88 584.25,-6.12 530.25,-6.12"/>
<text xml:space="preserve" text-anchor="middle" x="557.25" y="-62.38" font-family="Times,serif" font-size="10.00">q₂</text>
<polyline fill="none" stroke="black" points="530.25,-55.88 584.25,-55.88"/>
<text xml:space="preserve" text-anchor="middle" x="557.25" y="-42.38" font-family="Times,serif" font-size="10.00">bb</text>
<polyline fill="none" stroke="black" points="530.25,-36.62 584.25,-36.62"/>
<text xml:space="preserve" text-anchor="middle" x="557.25" y="-23.12" font-family="Times,serif" font-size="10.00">A</text>
<text xml:space="preserve" text-anchor="middle" x="557.25" y="-11.88" font-family="Times,serif" font-size="10.00">$</text>
</g>
<!-- s3&#45;&gt;s4 -->
<g id="edge4" class="edge">
<title>s3&#45;&gt;s4</title>
<path fill="none" stroke="black" d="M454.06,-41C472.69,-41 497.94,-41 518.68,-41"/>
<polygon fill="black" stroke="black" points="518.46,-44.5 528.46,-41 518.46,-37.5 518.46,-44.5"/>
<text xml:space="preserve" text-anchor="middle" x="492" y="-44.2" font-family="Times,serif" font-size="14.00">b,A→ε</text>
</g>
<!-- s5 -->
<g id="node6" class="node">
<title>s5</title>
<polygon fill="#fff1f0" stroke="black" points="660.75,-11.75 660.75,-70.25 714.75,-70.25 714.75,-11.75 660.75,-11.75"/>
<text xml:space="preserve" text-anchor="middle" x="687.75" y="-56.75" font-family="Times,serif" font-size="10.00">q₂</text>
<polyline fill="none" stroke="black" points="660.75,-50.25 714.75,-50.25"/>
<text xml:space="preserve" text-anchor="middle" x="687.75" y="-36.75" font-family="Times,serif" font-size="10.00">b</text>
<polyline fill="none" stroke="black" points="660.75,-31 714.75,-31"/>
<text xml:space="preserve" text-anchor="middle" x="687.75" y="-17.5" font-family="Times,serif" font-size="10.00">$</text>
</g>
<!-- s4&#45;&gt;s5 -->
<g id="edge5" class="edge">
<title>s4&#45;&gt;s5</title>
<path fill="none" stroke="black" d="M584.56,-41C603.19,-41 628.44,-41 649.18,-41"/>
<polygon fill="black" stroke="black" points="648.96,-44.5 658.96,-41 648.96,-37.5 648.96,-44.5"/>
<text xml:space="preserve" text-anchor="middle" x="622.5" y="-44.2" font-family="Times,serif" font-size="14.00">b,A→ε</text>
</g>
<!-- s6 -->
<g id="node7" class="node">
<title>s6</title>
<polygon fill="#ffcccc" stroke="black" points="872.25,-12.12 872.25,-69.88 926.25,-69.88 926.25,-12.12 872.25,-12.12"/>
<text xml:space="preserve" text-anchor="middle" x="899.25" y="-56.38" font-family="Times,serif" font-size="10.00">STUCK</text>
<polyline fill="none" stroke="black" points="872.25,-50.62 926.25,-50.62"/>
<text xml:space="preserve" text-anchor="middle" x="899.25" y="-37.12" font-family="Times,serif" font-size="10.00">—</text>
<polyline fill="none" stroke="black" points="872.25,-31.38 926.25,-31.38"/>
<text xml:space="preserve" text-anchor="middle" x="899.25" y="-17.88" font-family="Times,serif" font-size="10.00">$</text>
</g>
<!-- s5&#45;&gt;s6 -->
<g id="edge6" class="edge">
<title>s5&#45;&gt;s6</title>
<path fill="none" stroke="black" d="M714.86,-41C751.48,-41 818.31,-41 860.39,-41"/>
<polygon fill="black" stroke="black" points="860.3,-44.5 870.3,-41 860.3,-37.5 860.3,-44.5"/>
<text xml:space="preserve" text-anchor="middle" x="793.5" y="-46.45" font-family="Times,serif" font-size="14.00">❌ NO TRANSITION</text>
</g>
</g>
</svg>
