<?xml version="1.0" encoding="UTF-8" standalone="no"?>
<!DOCTYPE svg PUBLIC "-//W3C//DTD SVG 1.1//EN"
 "http://www.w3.org/Graphics/SVG/1.1/DTD/svg11.dtd">
<!-- Generated by graphviz version 14.0.2 (20251019.1705)
 -->
<!-- Title: FA17 Pages: 1 -->
<svg width="287pt" height="120pt"
 viewBox="0.00 0.00 287.00 120.00" xmlns="http://www.w3.org/2000/svg" xmlns:xlink="http://www.w3.org/1999/xlink">
<g id="graph0" class="graph" transform="scale(1 1) rotate(0) translate(4 115.51)">
<title>FA17</title>
<polygon fill="white" stroke="none" points="-4,4 -4,-115.51 283.43,-115.51 283.43,4 -4,4"/>
<!-- q0 -->
<g id="node1" class="node">
<title>q0</title>
<ellipse fill="#f9f9f9" stroke="black" cx="35.71" cy="-41.3" rx="35.71" ry="35.71"/>
<text xml:space="preserve" text-anchor="middle" x="35.71" y="-45.25" font-family="Times,serif" font-size="14.00">q₀</text>
<text xml:space="preserve" text-anchor="middle" x="35.71" y="-27.25" font-family="Times,serif" font-size="14.00">(Start)</text>
</g>
<!-- q0&#45;&gt;q0 -->
<g id="edge1" class="edge">
<title>q0&#45;&gt;q0</title>
<path fill="none" stroke="black" d="M25.09,-75.91C25.3,-86.61 28.84,-95.01 35.71,-95.01 39.89,-95.01 42.84,-91.89 44.56,-87.03"/>
<polygon fill="black" stroke="black" points="47.97,-87.83 46.09,-77.4 41.06,-86.73 47.97,-87.83"/>
<text xml:space="preserve" text-anchor="middle" x="35.71" y="-98.21" font-family="Times,serif" font-size="14.00">a,b</text>
</g>
<!-- q1 -->
<g id="node2" class="node">
<title>q1</title>
<ellipse fill="#f9f9f9" stroke="black" cx="133.75" cy="-80.3" rx="20.33" ry="20.33"/>
<text xml:space="preserve" text-anchor="middle" x="133.75" y="-76" font-family="Times,serif" font-size="14.00">q₁</text>
</g>
<!-- q0&#45;&gt;q1 -->
<g id="edge2" class="edge">
<title>q0&#45;&gt;q1</title>
<path fill="none" stroke="black" d="M69.22,-54.5C80.57,-59.11 93.21,-64.24 104.21,-68.71"/>
<polygon fill="black" stroke="black" points="102.56,-71.82 113.15,-72.34 105.2,-65.33 102.56,-71.82"/>
<text xml:space="preserve" text-anchor="middle" x="92.42" y="-67.49" font-family="Times,serif" font-size="14.00">a</text>
</g>
<!-- q2 -->
<g id="node3" class="node">
<title>q2</title>
<ellipse fill="#f9f9f9" stroke="black" cx="238.13" cy="-41.3" rx="37.3" ry="37.3"/>
<ellipse fill="none" stroke="black" cx="238.13" cy="-41.3" rx="41.3" ry="41.3"/>
<text xml:space="preserve" text-anchor="middle" x="238.13" y="-45.25" font-family="Times,serif" font-size="14.00">q₂</text>
<text xml:space="preserve" text-anchor="middle" x="238.13" y="-27.25" font-family="Times,serif" font-size="14.00">(Final)</text>
</g>
<!-- q1&#45;&gt;q2 -->
<g id="edge3" class="edge">
<title>q1&#45;&gt;q2</title>
<path fill="none" stroke="black" d="M153.05,-73.33C163.03,-69.53 175.89,-64.63 188.54,-59.81"/>
<polygon fill="black" stroke="black" points="189.54,-63.17 197.64,-56.34 187.05,-56.63 189.54,-63.17"/>
<text xml:space="preserve" text-anchor="middle" x="175.45" y="-68.64" font-family="Times,serif" font-size="14.00">b</text>
</g>
<!-- q2&#45;&gt;q0 -->
<g id="edge4" class="edge">
<title>q2&#45;&gt;q0</title>
<path fill="none" stroke="black" d="M196.74,-37.24C172.57,-35.3 141.24,-33.62 113.42,-34.8 103.42,-35.22 92.72,-35.95 82.57,-36.78"/>
<polygon fill="black" stroke="black" points="82.59,-33.26 72.93,-37.6 83.19,-40.24 82.59,-33.26"/>
<text xml:space="preserve" text-anchor="middle" x="133.75" y="-38" font-family="Times,serif" font-size="14.00">a,b</text>
</g>
</g>
</svg>
