<?xml version="1.0" encoding="UTF-8" standalone="no"?>
<!DOCTYPE svg PUBLIC "-//W3C//DTD SVG 1.1//EN"
 "http://www.w3.org/Graphics/SVG/1.1/DTD/svg11.dtd">
<!-- Generated by graphviz version 14.0.2 (20251019.1705)
 -->
<!-- Title: EvenAsFA Pages: 1 -->
<svg width="246pt" height="123pt"
 viewBox="0.00 0.00 246.00 123.00" xmlns="http://www.w3.org/2000/svg" xmlns:xlink="http://www.w3.org/1999/xlink">
<g id="graph0" class="graph" transform="scale(1 1) rotate(0) translate(4 118.5)">
<title>EvenAsFA</title>
<polygon fill="white" stroke="none" points="-4,4 -4,-118.5 242.2,-118.5 242.2,4 -4,4"/>
<!-- q0 -->
<g id="node1" class="node">
<title>q0</title>
<ellipse fill="#ffffff" stroke="black" cx="84.2" cy="-40" rx="36" ry="36"/>
<ellipse fill="none" stroke="black" cx="84.2" cy="-40" rx="40" ry="40"/>
<text xml:space="preserve" text-anchor="middle" x="84.2" y="-50.35" font-family="Times,serif" font-size="12.00">q₀</text>
<text xml:space="preserve" text-anchor="middle" x="84.2" y="-35.35" font-family="Times,serif" font-size="12.00">(Even a’s)</text>
<text xml:space="preserve" text-anchor="middle" x="84.2" y="-21.1" font-family="Times,serif" font-size="12.00">Start, Final</text>
</g>
<!-- q0&#45;&gt;q0 -->
<g id="edge4" class="edge">
<title>q0&#45;&gt;q0</title>
<path fill="none" stroke="black" d="M73.29,-78.76C73.76,-89.64 77.4,-98 84.2,-98 88.34,-98 91.31,-94.9 93.11,-90.01"/>
<polygon fill="black" stroke="black" points="96.54,-90.71 94.85,-80.25 89.65,-89.48 96.54,-90.71"/>
<text xml:space="preserve" text-anchor="middle" x="84.2" y="-101.2" font-family="Times,serif" font-size="14.00">b</text>
</g>
<!-- q1 -->
<g id="node2" class="node">
<title>q1</title>
<ellipse fill="#ffffff" stroke="black" cx="202.2" cy="-40" rx="36" ry="36"/>
<text xml:space="preserve" text-anchor="middle" x="202.2" y="-43.23" font-family="Times,serif" font-size="12.00">q₁</text>
<text xml:space="preserve" text-anchor="middle" x="202.2" y="-28.23" font-family="Times,serif" font-size="12.00">(Odd a’s)</text>
</g>
<!-- q0&#45;&gt;q1 -->
<g id="edge2" class="edge">
<title>q0&#45;&gt;q1</title>
<path fill="none" stroke="black" d="M124.47,-40C134.11,-40 144.52,-40 154.47,-40"/>
<polygon fill="black" stroke="black" points="154.35,-43.5 164.35,-40 154.35,-36.5 154.35,-43.5"/>
<text xml:space="preserve" text-anchor="middle" x="145.2" y="-43.2" font-family="Times,serif" font-size="14.00">a</text>
</g>
<!-- q1&#45;&gt;q0 -->
<g id="edge3" class="edge">
<title>q1&#45;&gt;q0</title>
<path fill="none" stroke="black" d="M168.96,-25.37C162.23,-22.93 155.09,-20.79 148.2,-19.5 142.76,-18.48 137.14,-18.57 131.61,-19.39"/>
<polygon fill="black" stroke="black" points="130.87,-15.97 121.91,-21.62 132.44,-22.79 130.87,-15.97"/>
<text xml:space="preserve" text-anchor="middle" x="145.2" y="-22.7" font-family="Times,serif" font-size="14.00">a</text>
</g>
<!-- q1&#45;&gt;q1 -->
<g id="edge5" class="edge">
<title>q1&#45;&gt;q1</title>
<path fill="none" stroke="black" d="M191.52,-74.8C191.74,-85.55 195.3,-94 202.2,-94 206.41,-94 209.37,-90.86 211.09,-85.98"/>
<polygon fill="black" stroke="black" points="214.52,-86.72 212.64,-76.29 207.61,-85.62 214.52,-86.72"/>
<text xml:space="preserve" text-anchor="middle" x="202.2" y="-97.2" font-family="Times,serif" font-size="14.00">b</text>
</g>
<!-- start -->
<g id="node3" class="node">
<title>start</title>
<ellipse fill="#ffffff" stroke="black" cx="3.6" cy="-40" rx="3.6" ry="3.6"/>
</g>
<!-- start&#45;&gt;q0 -->
<g id="edge1" class="edge">
<title>start&#45;&gt;q0</title>
<path fill="none" stroke="black" d="M7.59,-40C12.21,-40 21.68,-40 32.41,-40"/>
<polygon fill="black" stroke="black" points="32.38,-43.5 42.38,-40 32.38,-36.5 32.38,-43.5"/>
</g>
</g>
</svg>
