<?xml version="1.0" encoding="UTF-8" standalone="no"?>
<!DOCTYPE svg PUBLIC "-//W3C//DTD SVG 1.1//EN"
 "http://www.w3.org/Graphics/SVG/1.1/DTD/svg11.dtd">
<!-- Generated by graphviz version 14.0.2 (20251019.1705)
 -->
<!-- Title: ParseTree_aabb Pages: 1 -->
<svg width="251pt" height="260pt"
 viewBox="0.00 0.00 251.00 260.00" xmlns="http://www.w3.org/2000/svg" xmlns:xlink="http://www.w3.org/1999/xlink">
<g id="graph0" class="graph" transform="scale(1 1) rotate(0) translate(4 256)">
<title>ParseTree_aabb</title>
<polygon fill="white" stroke="none" points="-4,4 -4,-256 247,-256 247,4 -4,4"/>
<!-- S -->
<g id="node1" class="node">
<title>S</title>
<ellipse fill="#ffe6e6" stroke="black" cx="121" cy="-234" rx="18" ry="18"/>
<text xml:space="preserve" text-anchor="middle" x="121" y="-229.72" font-family="Times,serif" font-size="12.00">S</text>
</g>
<!-- A1 -->
<g id="node2" class="node">
<title>A1</title>
<ellipse fill="#ffe6e6" stroke="black" cx="90" cy="-162" rx="18" ry="18"/>
<text xml:space="preserve" text-anchor="middle" x="90" y="-157.72" font-family="Times,serif" font-size="12.00">A</text>
</g>
<!-- S&#45;&gt;A1 -->
<g id="edge1" class="edge">
<title>S&#45;&gt;A1</title>
<path fill="none" stroke="black" d="M113.97,-217.12C110.32,-208.88 105.77,-198.61 101.62,-189.24"/>
<polygon fill="black" stroke="black" points="104.87,-187.93 97.62,-180.21 98.47,-190.77 104.87,-187.93"/>
</g>
<!-- B1 -->
<g id="node3" class="node">
<title>B1</title>
<ellipse fill="#ffe6e6" stroke="black" cx="153" cy="-162" rx="18" ry="18"/>
<text xml:space="preserve" text-anchor="middle" x="153" y="-157.72" font-family="Times,serif" font-size="12.00">B</text>
</g>
<!-- S&#45;&gt;B1 -->
<g id="edge2" class="edge">
<title>S&#45;&gt;B1</title>
<path fill="none" stroke="black" d="M128.26,-217.12C132.03,-208.88 136.72,-198.61 141.01,-189.24"/>
<polygon fill="black" stroke="black" points="144.16,-190.75 145.14,-180.2 137.8,-187.84 144.16,-190.75"/>
</g>
<!-- A2 -->
<g id="node4" class="node">
<title>A2</title>
<ellipse fill="#ffe6e6" stroke="black" cx="27" cy="-90" rx="18" ry="18"/>
<text xml:space="preserve" text-anchor="middle" x="27" y="-85.72" font-family="Times,serif" font-size="12.00">A</text>
</g>
<!-- A1&#45;&gt;A2 -->
<g id="edge4" class="edge">
<title>A1&#45;&gt;A2</title>
<path fill="none" stroke="black" d="M78.15,-147.83C69.17,-137.86 56.66,-123.95 46.25,-112.39"/>
<polygon fill="black" stroke="black" points="49.1,-110.32 39.81,-105.23 43.9,-115.01 49.1,-110.32"/>
</g>
<!-- a1 -->
<g id="node6" class="node">
<title>a1</title>
<polygon fill="#e6f3ff" stroke="black" points="117,-108 63,-108 63,-72 117,-72 117,-108"/>
<text xml:space="preserve" text-anchor="middle" x="90" y="-85.72" font-family="Times,serif" font-size="12.00">a</text>
</g>
<!-- A1&#45;&gt;a1 -->
<g id="edge3" class="edge">
<title>A1&#45;&gt;a1</title>
<path fill="none" stroke="black" d="M90,-143.7C90,-136.41 90,-127.73 90,-119.54"/>
<polygon fill="black" stroke="black" points="93.5,-119.62 90,-109.62 86.5,-119.62 93.5,-119.62"/>
</g>
<!-- B2 -->
<g id="node5" class="node">
<title>B2</title>
<ellipse fill="#ffe6e6" stroke="black" cx="153" cy="-90" rx="18" ry="18"/>
<text xml:space="preserve" text-anchor="middle" x="153" y="-85.72" font-family="Times,serif" font-size="12.00">B</text>
</g>
<!-- B1&#45;&gt;B2 -->
<g id="edge7" class="edge">
<title>B1&#45;&gt;B2</title>
<path fill="none" stroke="black" d="M153,-143.7C153,-136.41 153,-127.73 153,-119.54"/>
<polygon fill="black" stroke="black" points="156.5,-119.62 153,-109.62 149.5,-119.62 156.5,-119.62"/>
</g>
<!-- b1 -->
<g id="node8" class="node">
<title>b1</title>
<polygon fill="#e6f3ff" stroke="black" points="243,-108 189,-108 189,-72 243,-72 243,-108"/>
<text xml:space="preserve" text-anchor="middle" x="216" y="-85.72" font-family="Times,serif" font-size="12.00">b</text>
</g>
<!-- B1&#45;&gt;b1 -->
<g id="edge6" class="edge">
<title>B1&#45;&gt;b1</title>
<path fill="none" stroke="black" d="M164.85,-147.83C172.7,-139.11 183.27,-127.37 192.76,-116.82"/>
<polygon fill="black" stroke="black" points="195.29,-119.24 199.38,-109.47 190.09,-114.56 195.29,-119.24"/>
</g>
<!-- a2 -->
<g id="node7" class="node">
<title>a2</title>
<polygon fill="#e6f3ff" stroke="black" points="54,-36 0,-36 0,0 54,0 54,-36"/>
<text xml:space="preserve" text-anchor="middle" x="27" y="-13.72" font-family="Times,serif" font-size="12.00">a</text>
</g>
<!-- A2&#45;&gt;a2 -->
<g id="edge5" class="edge">
<title>A2&#45;&gt;a2</title>
<path fill="none" stroke="black" d="M27,-71.7C27,-64.41 27,-55.73 27,-47.54"/>
<polygon fill="black" stroke="black" points="30.5,-47.62 27,-37.62 23.5,-47.62 30.5,-47.62"/>
</g>
<!-- b2 -->
<g id="node9" class="node">
<title>b2</title>
<polygon fill="#e6f3ff" stroke="black" points="180,-36 126,-36 126,0 180,0 180,-36"/>
<text xml:space="preserve" text-anchor="middle" x="153" y="-13.72" font-family="Times,serif" font-size="12.00">b</text>
</g>
<!-- B2&#45;&gt;b2 -->
<g id="edge8" class="edge">
<title>B2&#45;&gt;b2</title>
<path fill="none" stroke="black" d="M153,-71.7C153,-64.41 153,-55.73 153,-47.54"/>
<polygon fill="black" stroke="black" points="156.5,-47.62 153,-37.62 149.5,-47.62 156.5,-47.62"/>
</g>
</g>
</svg>
